<svg id="Layer_1" data-name="Layer 1" xmlns="http://www.w3.org/2000/svg" viewBox="0 0 612 792"><defs><style>.cls-1{fill:none;stroke:red;stroke-miterlimit:10;stroke-width:0.28px;}</style></defs><title>8x11artboard</title><polygon class="cls-1" points="64.9 58.85 64.9 62.23 68.81 62.23 68.81 58.85 69.87 58.85 69.87 66.94 68.81 66.94 68.81 63.15 64.9 63.15 64.9 66.94 63.86 66.94 63.86 58.85 64.9 58.85"/><path class="cls-1" d="M72.23,64.23a1.87,1.87,0,0,0,2,2,3.75,3.75,0,0,0,1.6-.3l.18.76a4.84,4.84,0,0,1-1.93.36,2.69,2.69,0,0,1-2.85-2.93c0-1.75,1-3.13,2.72-3.13a2.46,2.46,0,0,1,2.4,2.73,4.36,4.36,0,0,1,0,.5Z"/><path class="cls-1" d="M75.33,63.47a1.51,1.51,0,0,0-1.46-1.72,1.75,1.75,0,0,0-1.62,1.72Z"/><rect class="cls-1" x="77.66" y="58.42" width="1.06" height="8.52"/><rect class="cls-1" x="80.49" y="58.42" width="1.06" height="8.52"/><path class="cls-1" d="M88.58,64a2.84,2.84,0,0,1-2.89,3.08,2.76,2.76,0,0,1-2.79-3A2.83,2.83,0,0,1,85.78,61,2.75,2.75,0,0,1,88.58,64Z"/><path class="cls-1" d="M84,64.05c0,1.27.73,2.23,1.76,2.23s1.77-1,1.77-2.26c0-1-.5-2.23-1.74-2.23S84,62.94,84,64.05Z"/><path class="cls-1" d="M88.94,68.41a17.44,17.44,0,0,0,.72-2.87l1.17-.12a14,14,0,0,1-1.14,2.92Z"/><path class="cls-1" d="M95.92,59.46v1.67h1.51v.8H95.92v3.13c0,.72.21,1.13.79,1.13a2.15,2.15,0,0,0,.61-.07l.05.79a2.39,2.39,0,0,1-.93.15,1.46,1.46,0,0,1-1.14-.45,2.15,2.15,0,0,1-.41-1.51V61.93H94v-.8h.9V59.74Z"/><path class="cls-1" d="M98.62,58.42h1.06V62h0a1.93,1.93,0,0,1,.76-.74,2.16,2.16,0,0,1,1.08-.3c.78,0,2,.48,2,2.48v3.46h-1V63.6c0-.93-.35-1.72-1.35-1.72a1.5,1.5,0,0,0-1.41,1,1.26,1.26,0,0,0-.07.5v3.51H98.62Z"/><path class="cls-1" d="M106.46,59.5a.66.66,0,0,1-1.31,0,.65.65,0,0,1,.66-.66A.63.63,0,0,1,106.46,59.5Z"/><rect class="cls-1" x="105.28" y="61.13" width="1.06" height="5.8"/><path class="cls-1" d="M108,65.86a2.79,2.79,0,0,0,1.39.42c.77,0,1.13-.39,1.13-.87s-.3-.78-1.08-1.06c-1-.38-1.54-.95-1.54-1.65a1.79,1.79,0,0,1,2-1.7,2.91,2.91,0,0,1,1.43.36l-.26.77a2.22,2.22,0,0,0-1.19-.34c-.62,0-1,.36-1,.79s.35.7,1.1,1c1,.38,1.52.88,1.52,1.75,0,1-.79,1.74-2.17,1.74a3.33,3.33,0,0,1-1.63-.4Z"/><path class="cls-1" d="M116.56,59.5a.62.62,0,0,1-.67.65.63.63,0,0,1-.64-.65.65.65,0,0,1,.66-.66A.63.63,0,0,1,116.56,59.5Z"/><rect class="cls-1" x="115.39" y="61.13" width="1.06" height="5.8"/><path class="cls-1" d="M118.05,65.86a2.79,2.79,0,0,0,1.39.42c.77,0,1.13-.39,1.13-.87s-.3-.78-1.08-1.06c-1-.38-1.54-.95-1.54-1.65a1.8,1.8,0,0,1,2-1.7,2.9,2.9,0,0,1,1.42.36l-.26.77a2.22,2.22,0,0,0-1.19-.34c-.62,0-1,.36-1,.79s.35.7,1.11,1c1,.38,1.52.88,1.52,1.75,0,1-.79,1.74-2.17,1.74a3.27,3.27,0,0,1-1.63-.4Z"/><path class="cls-1" d="M128.7,66.94l-.08-.74h0a2.14,2.14,0,0,1-1.77.87A1.66,1.66,0,0,1,125,65.4c0-1.4,1.25-2.17,3.49-2.16v-.12a1.19,1.19,0,0,0-1.31-1.34,3,3,0,0,0-1.52.43l-.24-.69a3.55,3.55,0,0,1,1.91-.52c1.78,0,2.21,1.21,2.21,2.37v2.17a8.52,8.52,0,0,0,.09,1.4Z"/><path class="cls-1" d="M128.55,64c-1.15,0-2.46.18-2.46,1.31a.94.94,0,0,0,1,1,1.45,1.45,0,0,0,1.4-1,1.35,1.35,0,0,0,.06-.34Z"/><path class="cls-1" d="M135.09,59.46v1.67h1.51v.8h-1.51v3.13c0,.72.2,1.13.79,1.13a2.15,2.15,0,0,0,.61-.07l0,.79a2.42,2.42,0,0,1-.93.15,1.45,1.45,0,0,1-1.14-.45,2.15,2.15,0,0,1-.41-1.51V61.93h-.9v-.8h.9V59.74Z"/><path class="cls-1" d="M138.31,64.23a1.85,1.85,0,0,0,2,2,3.75,3.75,0,0,0,1.6-.3l.18.76a4.8,4.8,0,0,1-1.93.36,2.7,2.7,0,0,1-2.85-2.93c0-1.75,1-3.13,2.72-3.13a2.46,2.46,0,0,1,2.4,2.73,2.85,2.85,0,0,1,0,.5Z"/><path class="cls-1" d="M141.4,63.47a1.51,1.51,0,0,0-1.46-1.72,1.75,1.75,0,0,0-1.62,1.72Z"/><path class="cls-1" d="M143.59,65.86a2.79,2.79,0,0,0,1.39.42c.77,0,1.12-.39,1.12-.87s-.3-.78-1.07-1.06c-1.05-.38-1.54-.95-1.54-1.65a1.79,1.79,0,0,1,2-1.7,2.91,2.91,0,0,1,1.43.36l-.26.77a2.22,2.22,0,0,0-1.19-.34c-.62,0-1,.36-1,.79s.35.7,1.1,1c1,.38,1.52.88,1.52,1.75,0,1-.79,1.74-2.17,1.74a3.33,3.33,0,0,1-1.63-.4Z"/><path class="cls-1" d="M149.75,59.46v1.67h1.51v.8h-1.51v3.13c0,.72.21,1.13.79,1.13a2.29,2.29,0,0,0,.62-.07l0,.79a2.39,2.39,0,0,1-.93.15,1.46,1.46,0,0,1-1.14-.45,2.15,2.15,0,0,1-.41-1.51V61.93h-.9v-.8h.9V59.74Z"/><path class="cls-1" d="M160.25,64a2.84,2.84,0,0,1-2.89,3.08,2.76,2.76,0,0,1-2.78-3A2.83,2.83,0,0,1,157.46,61,2.75,2.75,0,0,1,160.25,64Z"/><path class="cls-1" d="M155.65,64.05c0,1.27.73,2.23,1.76,2.23s1.76-1,1.76-2.26c0-1-.49-2.23-1.74-2.23S155.65,62.94,155.65,64.05Z"/><path class="cls-1" d="M161.69,66.94v-5h-.81v-.8h.81v-.27a2.71,2.71,0,0,1,.68-2,2,2,0,0,1,1.41-.54,2.32,2.32,0,0,1,.9.17l-.14.81a1.67,1.67,0,0,0-.68-.13c-.9,0-1.12.79-1.12,1.68v.31h1.4v.8h-1.4v5Z"/><path class="cls-1" d="M168.9,59.46v1.67h1.52v.8H168.9v3.13c0,.72.21,1.13.8,1.13a2.21,2.21,0,0,0,.61-.07l.05.79a2.48,2.48,0,0,1-.94.15,1.46,1.46,0,0,1-1.14-.45,2.15,2.15,0,0,1-.41-1.51V61.93H167v-.8h.9V59.74Z"/><path class="cls-1" d="M171.6,58.42h1.06V62h0a2,2,0,0,1,.76-.74,2.16,2.16,0,0,1,1.08-.3c.78,0,2,.48,2,2.48v3.46h-1.06V63.6c0-.93-.35-1.72-1.34-1.72a1.5,1.5,0,0,0-1.42,1,1.26,1.26,0,0,0-.07.5v3.51H171.6Z"/><path class="cls-1" d="M178.85,64.23a1.86,1.86,0,0,0,2,2,3.76,3.76,0,0,0,1.61-.3l.18.76a4.84,4.84,0,0,1-1.93.36,2.69,2.69,0,0,1-2.85-2.93c0-1.75,1-3.13,2.72-3.13a2.46,2.46,0,0,1,2.4,2.73,4.36,4.36,0,0,1,0,.5Z"/><path class="cls-1" d="M182,63.47a1.51,1.51,0,0,0-1.47-1.72,1.77,1.77,0,0,0-1.62,1.72Z"/><path class="cls-1" d="M192.07,64a2.84,2.84,0,0,1-2.89,3.08,2.76,2.76,0,0,1-2.78-3A2.83,2.83,0,0,1,189.28,61,2.74,2.74,0,0,1,192.07,64Z"/><path class="cls-1" d="M187.47,64.05c0,1.27.73,2.23,1.76,2.23S191,65.33,191,64c0-1-.49-2.23-1.73-2.23S187.47,62.94,187.47,64.05Z"/><path class="cls-1" d="M193.41,62.94c0-.68,0-1.27,0-1.81h.92l0,1.14h.05A1.74,1.74,0,0,1,196,61a.85.85,0,0,1,.29,0v1a1.69,1.69,0,0,0-.35,0,1.48,1.48,0,0,0-1.42,1.36,3.37,3.37,0,0,0-.05.49v3.1h-1Z"/><path class="cls-1" d="M198.56,59.5a.63.63,0,0,1-.68.65.63.63,0,0,1-.63-.65.64.64,0,0,1,.66-.66A.63.63,0,0,1,198.56,59.5Z"/><rect class="cls-1" x="197.38" y="61.13" width="1.06" height="5.8"/><path class="cls-1" d="M205.19,61.13c0,.42-.05.89-.05,1.6V66.1a3.32,3.32,0,0,1-.83,2.65,3.09,3.09,0,0,1-2.11.69,3.78,3.78,0,0,1-1.93-.48l.27-.8a3.25,3.25,0,0,0,1.7.46c1.08,0,1.87-.57,1.87-2v-.65h0a2.08,2.08,0,0,1-1.85,1,2.59,2.59,0,0,1-2.47-2.83A2.78,2.78,0,0,1,202.38,61a1.92,1.92,0,0,1,1.81,1h0l.05-.88Z"/><path class="cls-1" d="M204.1,63.42a1.47,1.47,0,0,0-.06-.48,1.52,1.52,0,0,0-1.48-1.11c-1,0-1.72.85-1.72,2.19,0,1.14.57,2.09,1.71,2.09A1.53,1.53,0,0,0,204,65a1.82,1.82,0,0,0,.09-.56Z"/><path class="cls-1" d="M208,59.5a.62.62,0,0,1-.67.65.63.63,0,0,1-.64-.65.65.65,0,0,1,.66-.66A.63.63,0,0,1,208,59.5Z"/><rect class="cls-1" x="206.82" y="61.13" width="1.06" height="5.8"/><path class="cls-1" d="M209.63,62.7c0-.6,0-1.09,0-1.57h.94l.06,1h0A2.14,2.14,0,0,1,212.52,61c.81,0,2,.48,2,2.47v3.47h-1V63.59c0-.94-.35-1.71-1.34-1.71A1.5,1.5,0,0,0,210.76,63a1.55,1.55,0,0,0-.07.5v3.49h-1.06Z"/><path class="cls-1" d="M218.84,63c0-.75,0-1.35-.05-1.9h1l0,1h0A2.27,2.27,0,0,1,221.87,61c1.4,0,2.46,1.19,2.46,3,0,2.09-1.27,3.12-2.64,3.12a2.05,2.05,0,0,1-1.79-.91h0v3.15h-1Z"/><path class="cls-1" d="M219.88,64.57a1.88,1.88,0,0,0,.05.43,1.62,1.62,0,0,0,1.58,1.24c1.12,0,1.76-.91,1.76-2.24,0-1.17-.61-2.16-1.72-2.16a1.69,1.69,0,0,0-1.6,1.31,1.93,1.93,0,0,0-.07.43Z"/><path class="cls-1" d="M225.66,62.94c0-.68,0-1.27,0-1.81h.92l0,1.14h0A1.75,1.75,0,0,1,228.23,61a.91.91,0,0,1,.3,0v1a1.88,1.88,0,0,0-.36,0,1.48,1.48,0,0,0-1.41,1.36,2.38,2.38,0,0,0,0,.49v3.1h-1.05Z"/><path class="cls-1" d="M234.72,64a2.84,2.84,0,0,1-2.89,3.08,2.76,2.76,0,0,1-2.78-3A2.83,2.83,0,0,1,231.93,61,2.75,2.75,0,0,1,234.72,64Z"/><path class="cls-1" d="M230.12,64.05c0,1.27.73,2.23,1.76,2.23s1.76-1,1.76-2.26c0-1-.49-2.23-1.74-2.23S230.12,62.94,230.12,64.05Z"/><path class="cls-1" d="M236,66.94c0-.4.05-1,.05-1.5v-7h1v3.65h0a2.18,2.18,0,0,1,2-1.07c1.44,0,2.46,1.2,2.45,3,0,2.08-1.31,3.11-2.6,3.11A2.1,2.1,0,0,1,237,66h0l-.05,1Z"/><path class="cls-1" d="M237.1,64.61a1.58,1.58,0,0,0,.05.38,1.63,1.63,0,0,0,1.58,1.24c1.1,0,1.76-.9,1.76-2.23,0-1.17-.6-2.16-1.72-2.16a1.69,1.69,0,0,0-1.61,1.29,2.46,2.46,0,0,0-.06.44Z"/><rect class="cls-1" x="242.37" y="63.3" width="2.96" height="0.78"/><rect class="cls-1" x="63.82" y="72.82" width="1.06" height="8.52"/><path class="cls-1" d="M67.24,78.63a1.86,1.86,0,0,0,2,2,3.8,3.8,0,0,0,1.61-.3l.18.76a4.84,4.84,0,0,1-1.93.36,2.7,2.7,0,0,1-2.86-2.93c0-1.75,1-3.13,2.73-3.13a2.46,2.46,0,0,1,2.4,2.73,4.36,4.36,0,0,1,0,.5Z"/><path class="cls-1" d="M70.34,77.87a1.51,1.51,0,0,0-1.47-1.72,1.77,1.77,0,0,0-1.62,1.72Z"/><path class="cls-1" d="M72.67,77.1c0-.6,0-1.09,0-1.57h.92l0,.94h0a2,2,0,0,1,1.82-1.07,1.71,1.71,0,0,1,1.64,1.16h0a2.39,2.39,0,0,1,.64-.75,2,2,0,0,1,1.29-.41c.76,0,1.9.5,1.9,2.52v3.42h-1V78.05c0-1.12-.41-1.79-1.26-1.79a1.37,1.37,0,0,0-1.24,1,1.73,1.73,0,0,0-.09.53v3.59h-1V77.86c0-.93-.41-1.6-1.21-1.6a1.45,1.45,0,0,0-1.31,1.06,1.4,1.4,0,0,0-.08.51v3.51h-1Z"/><path class="cls-1" d="M86.49,73.86v1.67H88v.8H86.49v3.13c0,.72.2,1.13.79,1.13a2.15,2.15,0,0,0,.61-.07l0,.79a2.42,2.42,0,0,1-.93.15A1.45,1.45,0,0,1,85.87,81a2.15,2.15,0,0,1-.41-1.51V76.33h-.9v-.8h.9V74.14Z"/><path class="cls-1" d="M89.19,72.82h1.06v3.62h0A1.93,1.93,0,0,1,91,75.7a2.15,2.15,0,0,1,1.07-.3c.78,0,2,.48,2,2.48v3.46h-1V78c0-.93-.35-1.73-1.35-1.73a1.51,1.51,0,0,0-1.41,1.06,1.26,1.26,0,0,0-.07.5v3.51H89.19Z"/><path class="cls-1" d="M99.06,81.34,99,80.6h0a2.14,2.14,0,0,1-1.77.87A1.65,1.65,0,0,1,95.4,79.8c0-1.4,1.24-2.17,3.48-2.16v-.12a1.19,1.19,0,0,0-1.31-1.34,3,3,0,0,0-1.52.43l-.24-.69a3.55,3.55,0,0,1,1.91-.52c1.78,0,2.21,1.21,2.21,2.37v2.17a8.52,8.52,0,0,0,.09,1.4Z"/><path class="cls-1" d="M98.91,78.37c-1.15,0-2.46.18-2.46,1.31a.94.94,0,0,0,1,1,1.45,1.45,0,0,0,1.4-1,1.35,1.35,0,0,0,.06-.34Z"/><path class="cls-1" d="M102.86,73.86v1.67h1.51v.8h-1.51v3.13c0,.72.2,1.13.79,1.13a2.15,2.15,0,0,0,.61-.07l0,.79a2.44,2.44,0,0,1-.94.15,1.47,1.47,0,0,1-1.14-.45,2.15,2.15,0,0,1-.4-1.51V76.33h-.9v-.8h.9V74.14Z"/><rect class="cls-1" x="108.14" y="73.25" width="1.04" height="8.08"/><path class="cls-1" d="M113.51,72.82h1.06v3.62h0a2,2,0,0,1,.76-.74,2.16,2.16,0,0,1,1.08-.3c.78,0,2,.48,2,2.48v3.46H117.4V78c0-.93-.35-1.73-1.34-1.73a1.51,1.51,0,0,0-1.42,1.06,1.26,1.26,0,0,0-.07.5v3.51h-1.06Z"/><path class="cls-1" d="M123.39,81.34l-.08-.74h0a2.16,2.16,0,0,1-1.78.87,1.65,1.65,0,0,1-1.77-1.67c0-1.4,1.25-2.17,3.49-2.16v-.12a1.19,1.19,0,0,0-1.32-1.34,2.93,2.93,0,0,0-1.51.43l-.24-.69a3.52,3.52,0,0,1,1.91-.52c1.77,0,2.2,1.21,2.2,2.37v2.17a8.44,8.44,0,0,0,.1,1.4Z"/><path class="cls-1" d="M123.23,78.37c-1.15,0-2.46.18-2.46,1.31a.94.94,0,0,0,1,1,1.43,1.43,0,0,0,1.4-1,1,1,0,0,0,.06-.34Z"/><path class="cls-1" d="M126.27,75.53l1.14,3.26c.19.53.35,1,.47,1.49h0c.14-.48.3-1,.5-1.49l1.12-3.26h1.11l-2.28,5.81h-1l-2.21-5.81Z"/><path class="cls-1" d="M132.1,78.63a1.86,1.86,0,0,0,2,2,3.76,3.76,0,0,0,1.61-.3l.18.76a4.84,4.84,0,0,1-1.93.36,2.69,2.69,0,0,1-2.85-2.93c0-1.75,1-3.13,2.72-3.13a2.46,2.46,0,0,1,2.4,2.73,4.36,4.36,0,0,1,0,.5Z"/><path class="cls-1" d="M135.2,77.87a1.51,1.51,0,0,0-1.47-1.72,1.77,1.77,0,0,0-1.62,1.72Z"/><path class="cls-1" d="M140,81.34c0-.4,0-1,0-1.5v-7h1v3.65h0a2.15,2.15,0,0,1,2-1.07c1.44,0,2.46,1.2,2.44,3,0,2.08-1.3,3.11-2.6,3.11A2.07,2.07,0,0,1,141,80.38h0l0,1Z"/><path class="cls-1" d="M141.11,79a2.32,2.32,0,0,0,0,.38,1.65,1.65,0,0,0,1.59,1.24c1.1,0,1.76-.9,1.76-2.23,0-1.17-.6-2.16-1.73-2.16a1.69,1.69,0,0,0-1.61,1.29,2.46,2.46,0,0,0-.06.44Z"/><path class="cls-1" d="M147.49,78.63a1.85,1.85,0,0,0,2,2,3.75,3.75,0,0,0,1.6-.3l.18.76a4.8,4.8,0,0,1-1.93.36,2.7,2.7,0,0,1-2.85-2.93c0-1.75,1-3.13,2.72-3.13a2.46,2.46,0,0,1,2.4,2.73,2.85,2.85,0,0,1,0,.5Z"/><path class="cls-1" d="M150.58,77.87a1.51,1.51,0,0,0-1.46-1.72,1.75,1.75,0,0,0-1.62,1.72Z"/><path class="cls-1" d="M153.5,78.63a1.85,1.85,0,0,0,2,2,3.83,3.83,0,0,0,1.61-.3l.18.76a4.9,4.9,0,0,1-1.94.36,2.7,2.7,0,0,1-2.85-2.93c0-1.75,1-3.13,2.72-3.13a2.46,2.46,0,0,1,2.4,2.73,4.92,4.92,0,0,1,0,.5Z"/><path class="cls-1" d="M156.59,77.87a1.5,1.5,0,0,0-1.46-1.72,1.75,1.75,0,0,0-1.62,1.72Z"/><path class="cls-1" d="M158.92,77.1c0-.6,0-1.09,0-1.57h.94l.06,1h0a2.14,2.14,0,0,1,1.92-1.09c.81,0,2.05.48,2.05,2.47v3.47h-1.05V78c0-.94-.35-1.72-1.35-1.72a1.51,1.51,0,0,0-1.41,1.08,1.55,1.55,0,0,0-.07.5v3.49h-1.06Z"/><path class="cls-1" d="M168.71,78.63a1.86,1.86,0,0,0,2,2,3.76,3.76,0,0,0,1.61-.3l.18.76a4.84,4.84,0,0,1-1.93.36,2.69,2.69,0,0,1-2.85-2.93c0-1.75,1-3.13,2.72-3.13a2.46,2.46,0,0,1,2.4,2.73,4.36,4.36,0,0,1,0,.5Z"/><path class="cls-1" d="M171.81,77.87a1.51,1.51,0,0,0-1.47-1.72,1.75,1.75,0,0,0-1.61,1.72Z"/><path class="cls-1" d="M174.59,75.53l.83,1.25c.22.32.4.62.59,1h0c.2-.35.39-.65.58-1l.82-1.24h1.14l-2,2.81,2,3h-1.2L176.58,80c-.22-.34-.42-.66-.62-1h0c-.2.35-.4.66-.62,1l-.83,1.31h-1.17l2.06-3-2-2.84Z"/><path class="cls-1" d="M179.66,77.43c0-.75,0-1.35,0-1.9h.95l0,1h0a2.27,2.27,0,0,1,2.06-1.13c1.41,0,2.46,1.19,2.46,2.95,0,2.09-1.27,3.12-2.64,3.12a2,2,0,0,1-1.78-.91h0v3.15h-1Z"/><path class="cls-1" d="M180.7,79a2.68,2.68,0,0,0,.05.43,1.62,1.62,0,0,0,1.58,1.24c1.12,0,1.77-.91,1.77-2.24,0-1.17-.62-2.16-1.73-2.16a1.69,1.69,0,0,0-1.6,1.31,1.93,1.93,0,0,0-.07.43Z"/><path class="cls-1" d="M187.07,78.63a1.86,1.86,0,0,0,2,2,3.76,3.76,0,0,0,1.61-.3l.18.76a4.84,4.84,0,0,1-1.93.36,2.69,2.69,0,0,1-2.85-2.93c0-1.75,1-3.13,2.72-3.13a2.46,2.46,0,0,1,2.4,2.73,4.36,4.36,0,0,1,0,.5Z"/><path class="cls-1" d="M190.17,77.87a1.51,1.51,0,0,0-1.47-1.72,1.77,1.77,0,0,0-1.62,1.72Z"/><path class="cls-1" d="M192.5,77.34c0-.68,0-1.27-.05-1.81h.92l0,1.14h.05a1.74,1.74,0,0,1,1.6-1.27.91.91,0,0,1,.3,0v1a1.71,1.71,0,0,0-.36,0,1.48,1.48,0,0,0-1.41,1.36,2.38,2.38,0,0,0-.05.49v3.1h-1Z"/><path class="cls-1" d="M197.64,73.9a.62.62,0,0,1-.67.65.63.63,0,0,1-.63-.65.64.64,0,0,1,.66-.66A.62.62,0,0,1,197.64,73.9Z"/><rect class="cls-1" x="196.47" y="75.53" width="1.06" height="5.8"/><path class="cls-1" d="M199.86,78.63a1.87,1.87,0,0,0,2,2,3.75,3.75,0,0,0,1.6-.3l.18.76a4.8,4.8,0,0,1-1.93.36,2.69,2.69,0,0,1-2.85-2.93c0-1.75,1-3.13,2.72-3.13a2.46,2.46,0,0,1,2.4,2.73,4.36,4.36,0,0,1,0,.5Z"/><path class="cls-1" d="M203,77.87a1.51,1.51,0,0,0-1.46-1.72,1.75,1.75,0,0,0-1.62,1.72Z"/><path class="cls-1" d="M205.29,77.1c0-.6,0-1.09,0-1.57h.94l.06,1h0a2.14,2.14,0,0,1,1.92-1.09c.8,0,2,.48,2,2.47v3.47h-1.06V78c0-.94-.34-1.72-1.34-1.72a1.51,1.51,0,0,0-1.41,1.08,1.54,1.54,0,0,0-.08.5v3.49h-1.05Z"/><path class="cls-1" d="M216.09,81.12a4,4,0,0,1-1.67.34,2.76,2.76,0,0,1-2.89-3,3,3,0,0,1,3.12-3.08,3.6,3.6,0,0,1,1.46.3l-.24.82a2.37,2.37,0,0,0-1.22-.28,2,2,0,0,0-2.05,2.2,2,2,0,0,0,2,2.17,3,3,0,0,0,1.3-.29Z"/><path class="cls-1" d="M218.5,73.9a.62.62,0,0,1-.67.65.63.63,0,0,1-.64-.65.65.65,0,0,1,.66-.66A.63.63,0,0,1,218.5,73.9Z"/><rect class="cls-1" x="217.32" y="75.53" width="1.06" height="5.8"/><path class="cls-1" d="M220.13,77.1c0-.6,0-1.09,0-1.57H221l.06,1h0A2.14,2.14,0,0,1,223,75.4c.81,0,2,.48,2,2.47v3.47h-1V78c0-.94-.35-1.72-1.35-1.72a1.51,1.51,0,0,0-1.41,1.08,1.55,1.55,0,0,0-.07.5v3.49h-1.06Z"/><path class="cls-1" d="M231.79,75.53c0,.42,0,.89,0,1.6V80.5a3.36,3.36,0,0,1-.83,2.65,3.12,3.12,0,0,1-2.11.69,3.73,3.73,0,0,1-1.93-.48l.26-.8a3.25,3.25,0,0,0,1.7.46c1.08,0,1.87-.57,1.87-2v-.65h0a2.07,2.07,0,0,1-1.85,1,2.59,2.59,0,0,1-2.47-2.83A2.79,2.79,0,0,1,229,75.4a1.94,1.94,0,0,1,1.81,1h0l.05-.88Z"/><path class="cls-1" d="M230.7,77.82a1.47,1.47,0,0,0-.06-.48,1.52,1.52,0,0,0-1.47-1.11c-1,0-1.73.85-1.73,2.19,0,1.14.58,2.09,1.71,2.09a1.55,1.55,0,0,0,1.47-1.08,1.81,1.81,0,0,0,.08-.56Z"/><rect class="cls-1" x="491.45" y="150.09" width="73.64" height="65.56"/></svg>