<svg id="Layer_1" data-name="Layer 1" xmlns="http://www.w3.org/2000/svg" viewBox="0 0 612 792"><defs><style>.cls-1{fill:none;stroke:#231f20;stroke-miterlimit:10;}</style></defs><title>all-shapes</title><rect class="cls-1" x="30.2" y="32.75" width="92.92" height="69.03"/><rect class="cls-1" x="145.49" y="132.66" width="55.17" height="33.85" transform="translate(-51.61 106.58) rotate(-30)"/><circle class="cls-1" cx="98.12" cy="239.61" r="36.95"/><polygon class="cls-1" points="352.33 124.79 304.5 142.14 265.56 109.39 274.45 59.3 322.28 41.95 361.21 74.69 352.33 124.79"/><line class="cls-1" x1="231.97" y1="202.66" x2="257.64" y2="269.04"/><path class="cls-1" d="M122.24,337.18c49,37.25,65,42.91,69,38.94,7.4-7.28-26.09-46.11-15.93-58.41,7.06-8.55,31.76-.13,54,9.73"/><path class="cls-1" d="M310.73,255.76c15.2-24.63,48.88-38.76,61.95-29.2,13.48,9.85-4.94,37.58,12.39,69.91,11.45,21.35,27.29,23.82,25.66,33.63-2.75,16.57-52.46,36.52-85,14.16C298,325.13,294.06,282.79,310.73,255.76Z"/><polyline class="cls-1" points="205.43 444.26 266.49 485.85 266.49 423.02 306 423.02 313.39 464.61"/><polygon class="cls-1" points="49.67 383.19 30.2 430.98 61.18 469.92 65.6 426.56 98.12 450.45 98.12 399.12 49.67 383.19"/><ellipse class="cls-1" cx="467.81" cy="160.63" rx="50.88" ry="22.57"/><polygon class="cls-1" points="482.42 276.56 453.14 270.36 431.44 290.96 428.29 261.21 402 246.94 429.32 234.74 434.76 205.32 454.8 227.54 484.47 223.63 469.53 249.55 482.42 276.56"/><polyline class="cls-1" points="347.04 391.96 376.41 496.46 435.8 425.79 480.25 463.13 449.25 516.9"/><polygon class="cls-1" points="85.48 522.67 155.61 537.37 211.16 507.6 147.97 506.06 181.6 475.75 106.99 478.61 85.48 522.67"/></svg>