<svg id="Layer_1" data-name="Layer 1" xmlns="http://www.w3.org/2000/svg" viewBox="0 0 183.47 167.96"><defs><style>.cls-1{fill:none;stroke:#231f20;stroke-miterlimit:10;}</style></defs><title>asha</title><polygon class="cls-1" points="41.76 72.27 37.59 84.89 32.23 84.89 45.86 44.77 52.11 44.77 65.8 84.89 60.27 84.89 55.98 72.27 41.76 72.27"/><path class="cls-1" d="M87.7,114.44l-3.93-11.55c-.89-2.62-1.49-5-2.08-7.32h-.12c-.59,2.38-1.25,4.82-2,7.26l-3.93,11.61Z" transform="translate(-32.79 -46.21)"/><path class="cls-1" d="M103.24,125.74a13.64,13.64,0,0,0,6.9,2.09c3.81,0,5.6-1.91,5.6-4.29s-1.49-3.87-5.36-5.3c-5.18-1.84-7.62-4.7-7.62-8.15,0-4.64,3.75-8.45,9.94-8.45a14.43,14.43,0,0,1,7.09,1.78l-1.31,3.81a11.28,11.28,0,0,0-5.9-1.66c-3.09,0-4.82,1.78-4.82,3.92,0,2.39,1.73,3.46,5.48,4.89,5,1.9,7.56,4.4,7.56,8.69,0,5.06-3.93,8.63-10.78,8.63a16.42,16.42,0,0,1-8.09-2Z" transform="translate(-32.79 -46.21)"/><path class="cls-1" d="M127.53,88.84h5.23v18h.12a9.78,9.78,0,0,1,3.75-3.69,10.74,10.74,0,0,1,5.36-1.49c3.87,0,10.06,2.38,10.06,12.32V131.1h-5.24V114.55c0-4.64-1.72-8.57-6.66-8.57a7.52,7.52,0,0,0-7,5.24,6.32,6.32,0,0,0-.36,2.5V131.1h-5.23Z" transform="translate(-32.79 -46.21)"/><path class="cls-1" d="M176.52,131.1l-.42-3.63h-.18a10.74,10.74,0,0,1-8.81,4.29c-5.83,0-8.81-4.11-8.81-8.28,0-7,6.19-10.77,17.32-10.71v-.6c0-2.38-.65-6.66-6.54-6.66a14.33,14.33,0,0,0-7.5,2.14l-1.2-3.45a17.91,17.91,0,0,1,9.47-2.56c8.81,0,11,6,11,11.78V124.2a40.16,40.16,0,0,0,.48,6.9Z" transform="translate(-32.79 -46.21)"/><path class="cls-1" d="M175.74,116.4c-5.71-.12-12.2.89-12.2,6.49a4.64,4.64,0,0,0,4.94,5,7.16,7.16,0,0,0,7-4.82,5.45,5.45,0,0,0,.3-1.67Z" transform="translate(-32.79 -46.21)"/><g id="DLTB6v.tif"><path class="cls-1" d="M124.51,73.49l-.53-.82a56.84,56.84,0,0,0-8.66-10.93C100.69,47.66,83.63,43.17,64.23,49.56c-17.94,5.92-30,22.39-30.86,42a98,98,0,0,0,1.14,19.2A67.2,67.2,0,0,0,43.15,135,99.23,99.23,0,0,0,58.4,154c8.74,8.77,18.18,16.74,27.52,24.84,12,10.4,23.93,20.87,35.48,31.77l3.12,2.92.67-.61c7.2-6.6,14.33-13.29,21.63-19.78,10.73-9.53,21.61-18.87,32.37-28.37a178.09,178.09,0,0,0,19.31-19.34,70.6,70.6,0,0,0,13.4-23.53A75.52,75.52,0,0,0,215.25,105c.52-6.12.85-12.24-.05-18.36A46,46,0,0,0,172.58,47a46.63,46.63,0,0,0-22.7,3.69,54,54,0,0,0-22.76,18.93C126.24,70.82,125.42,72.12,124.51,73.49Z" transform="translate(-32.79 -46.21)"/><path class="cls-1" d="M124.51,73.49c.91-1.37,1.73-2.67,2.61-3.91a54,54,0,0,1,22.76-18.93A46.63,46.63,0,0,1,172.58,47,46,46,0,0,1,215.2,86.59c.9,6.12.57,12.24.05,18.36a75.52,75.52,0,0,1-3.35,16.91,70.6,70.6,0,0,1-13.4,23.53,178.09,178.09,0,0,1-19.31,19.34c-10.76,9.5-21.64,18.84-32.37,28.37-7.3,6.49-14.43,13.18-21.63,19.78l-.67.61-3.12-2.92c-11.55-10.9-23.49-21.37-35.48-31.77C76.58,170.7,67.14,162.73,58.4,154A99.23,99.23,0,0,1,43.15,135a67.2,67.2,0,0,1-8.64-24.3,98,98,0,0,1-1.14-19.2c.84-19.59,12.92-36.06,30.86-42,19.4-6.39,36.46-1.9,51.09,12.18A56.84,56.84,0,0,1,124,72.67Z" transform="translate(-32.79 -46.21)"/></g></svg>