<svg id="Layer_1" data-name="Layer 1" xmlns="http://www.w3.org/2000/svg" viewBox="0 0 612 792"><defs><style>.cls-1{fill:none;stroke:#231f20;stroke-miterlimit:10;stroke-width:0.28px;}</style></defs><title>close-lines</title><line class="cls-1" x1="40.69" y1="21.79" x2="43.84" y2="21.79"/><line class="cls-1" x1="39.84" y1="22.11" x2="44.98" y2="22.11"/><line class="cls-1" x1="39.27" y1="22.36" x2="45.55" y2="22.36"/><line class="cls-1" x1="45.92" y1="22.64" x2="38.7" y2="22.64"/><line class="cls-1" x1="38.19" y1="22.96" x2="46.43" y2="22.96"/><line class="cls-1" x1="46.74" y1="23.34" x2="37.66" y2="23.34"/><line class="cls-1" x1="37.99" y1="23.13" x2="46.54" y2="23.13"/><line class="cls-1" x1="37.55" y1="23.57" x2="47.06" y2="23.57"/><line class="cls-1" x1="37.27" y1="23.77" x2="47.31" y2="23.77"/><line class="cls-1" x1="36.92" y1="24.01" x2="47.84" y2="24.01"/><line class="cls-1" x1="48" y1="24.26" x2="36.48" y2="24.26"/><line class="cls-1" x1="36.19" y1="24.52" x2="48.27" y2="24.52"/><line class="cls-1" x1="48.47" y1="24.78" x2="35.89" y2="24.78"/><line class="cls-1" x1="35.75" y1="25.02" x2="48.75" y2="25.02"/><line class="cls-1" x1="48.99" y1="25.31" x2="35.25" y2="25.31"/><line class="cls-1" x1="35.25" y1="25.53" x2="49.23" y2="25.53"/><line class="cls-1" x1="49.32" y1="25.77" x2="34.87" y2="25.77"/><line class="cls-1" x1="34.87" y1="25.99" x2="49.52" y2="25.99"/><line class="cls-1" x1="49.66" y1="26.26" x2="34.58" y2="26.26"/><line class="cls-1" x1="34.58" y1="26.52" x2="49.78" y2="26.52"/><line class="cls-1" x1="50.02" y1="26.75" x2="34.3" y2="26.75"/><line class="cls-1" x1="34.35" y1="27.01" x2="50.3" y2="27.01"/><line class="cls-1" x1="50.53" y1="27.19" x2="34.3" y2="27.19"/><line class="cls-1" x1="34.19" y1="27.45" x2="50.87" y2="27.45"/><line class="cls-1" x1="50.97" y1="27.68" x2="33.98" y2="27.68"/><line class="cls-1" x1="33.98" y1="27.88" x2="50.97" y2="27.88"/><line class="cls-1" x1="51.05" y1="28.11" x2="33.98" y2="28.11"/><line class="cls-1" x1="33.98" y1="28.37" x2="51.16" y2="28.37"/><line class="cls-1" x1="33.98" y1="33.53" x2="51.41" y2="33.53"/><line class="cls-1" x1="33.98" y1="33.77" x2="51.41" y2="33.77"/><line class="cls-1" x1="33.98" y1="33.97" x2="51.41" y2="33.97"/><line class="cls-1" x1="33.98" y1="34.2" x2="51.41" y2="34.2"/><line class="cls-1" x1="33.98" y1="34.44" x2="51.41" y2="34.44"/><line class="cls-1" x1="33.98" y1="34.67" x2="51.41" y2="34.67"/><line class="cls-1" x1="33.98" y1="34.87" x2="51.41" y2="34.87"/><line class="cls-1" x1="33.98" y1="35.1" x2="51.41" y2="35.1"/><line class="cls-1" x1="33.98" y1="35.34" x2="51.41" y2="35.34"/><line class="cls-1" x1="33.98" y1="35.57" x2="51.41" y2="35.57"/><line class="cls-1" x1="33.98" y1="35.77" x2="51.41" y2="35.77"/><line class="cls-1" x1="33.98" y1="36" x2="51.41" y2="36"/><line class="cls-1" x1="33.98" y1="36.24" x2="51.41" y2="36.24"/><line class="cls-1" x1="33.98" y1="36.47" x2="51.41" y2="36.47"/><line class="cls-1" x1="33.98" y1="36.67" x2="51.41" y2="36.67"/><line class="cls-1" x1="33.98" y1="36.9" x2="51.41" y2="36.9"/><line class="cls-1" x1="33.98" y1="37.14" x2="51.41" y2="37.14"/><line class="cls-1" x1="33.98" y1="37.37" x2="51.41" y2="37.37"/><line class="cls-1" x1="33.98" y1="37.57" x2="51.41" y2="37.57"/><line class="cls-1" x1="33.98" y1="37.8" x2="51.41" y2="37.8"/><line class="cls-1" x1="33.98" y1="38.04" x2="51.41" y2="38.04"/><line class="cls-1" x1="33.98" y1="38.27" x2="51.41" y2="38.27"/><line class="cls-1" x1="33.98" y1="38.47" x2="51.41" y2="38.47"/><line class="cls-1" x1="33.98" y1="38.71" x2="51.41" y2="38.71"/><line class="cls-1" x1="33.98" y1="38.94" x2="51.41" y2="38.94"/><line class="cls-1" x1="33.98" y1="39.17" x2="51.41" y2="39.17"/><line class="cls-1" x1="33.98" y1="39.37" x2="51.41" y2="39.37"/><line class="cls-1" x1="33.98" y1="39.61" x2="51.41" y2="39.61"/><line class="cls-1" x1="33.98" y1="39.84" x2="51.41" y2="39.84"/><line class="cls-1" x1="33.98" y1="40.07" x2="51.41" y2="40.07"/><line class="cls-1" x1="33.98" y1="40.27" x2="51.41" y2="40.27"/><line class="cls-1" x1="33.98" y1="40.51" x2="51.41" y2="40.51"/></svg>