<svg id="Layer_1" data-name="Layer 1" xmlns="http://www.w3.org/2000/svg" viewBox="0 0 125.06 126.03"><defs><style>.cls-1{fill:none;stroke:#231f20;stroke-miterlimit:10;}</style></defs><title>lines</title><line class="cls-1" x1="0.53" y1="0.97" x2="0.53" y2="125.03"/><line class="cls-1" x1="2.53" y1="0.97" x2="2.53" y2="125.03"/><line class="cls-1" x1="5.53" y1="0.97" x2="5.53" y2="125.03"/><line class="cls-1" x1="9.53" y1="0.97" x2="9.53" y2="125.03"/><line class="cls-1" x1="14.53" y1="0.97" x2="14.53" y2="125.03"/><line class="cls-1" x1="20.53" y1="0.97" x2="20.53" y2="125.03"/><line class="cls-1" x1="27.53" y1="0.97" x2="27.53" y2="125.03"/><line class="cls-1" x1="34.53" y1="0.97" x2="34.53" y2="125.03"/><line class="cls-1" x1="43.53" y1="0.97" x2="43.53" y2="125.03"/><line class="cls-1" x1="53.53" y1="0.97" x2="53.53" y2="125.03"/><line class="cls-1" x1="64.53" y1="0.97" x2="64.53" y2="125.03"/><line class="cls-1" x1="76.53" y1="0.97" x2="76.53" y2="125.03"/><line class="cls-1" x1="1.53" y1="0.97" x2="1.53" y2="125.03"/><line class="cls-1" x1="89.53" y1="0.97" x2="89.53" y2="125.03"/><line class="cls-1" x1="103.53" y1="0.97" x2="103.53" y2="125.03"/><line class="cls-1" x1="118.53" y1="1.97" x2="118.53" y2="126.03"/><line class="cls-1" x1="125.06" y1="0.5" x2="1" y2="0.5"/><line class="cls-1" x1="125.06" y1="2.5" x2="1" y2="2.5"/><line class="cls-1" x1="125.06" y1="5.5" x2="1" y2="5.5"/><line class="cls-1" x1="125.06" y1="9.5" x2="1" y2="9.5"/><line class="cls-1" x1="125.06" y1="14.5" x2="1" y2="14.5"/><line class="cls-1" x1="125.06" y1="20.5" x2="1" y2="20.5"/><line class="cls-1" x1="125.06" y1="27.5" x2="1" y2="27.5"/><line class="cls-1" x1="125.06" y1="34.5" x2="1" y2="34.5"/><line class="cls-1" x1="125.06" y1="43.5" x2="1" y2="43.5"/><line class="cls-1" x1="125.06" y1="53.5" x2="1" y2="53.5"/><line class="cls-1" x1="125.06" y1="64.5" x2="1" y2="64.5"/><line class="cls-1" x1="125.06" y1="76.5" x2="1" y2="76.5"/><line class="cls-1" x1="125.06" y1="1.5" x2="1" y2="1.5"/><line class="cls-1" x1="125.06" y1="89.5" x2="1" y2="89.5"/><line class="cls-1" x1="125.06" y1="103.5" x2="1" y2="103.5"/><line class="cls-1" x1="124.06" y1="118.5" y2="118.5"/></svg>