<svg id="Layer_1" data-name="Layer 1" xmlns="http://www.w3.org/2000/svg" viewBox="0 0 484.36 353.75"><defs><style>.cls-1{fill:none;stroke:#231f20;stroke-miterlimit:10;}</style></defs><title>lion</title><g id="D5P5iN"><path class="cls-1" d="M396.67,438.29,389,430.86l4.54,13.35-2.42-1c.54,2.4,1,4.59,1.51,6.78-6-6.95-7.14-15.35-6.88-23.8s1.67-16.62,2.72-26.34c-7,10.82-9.76,21.41-9.32,32.77.54,14.13,5.74,25.8,19.37,32.51l-.39,1.22-12.47,1.38,9.18,3.39-10.76,5.4.32,1.22L402.75,474l-3.93,10.7,1.22.82,15-16c-6.28-1.12-12,2.72-15.5-3.51l16,1v-1.09L399,458l10.79-3c-7.42-2.55-13.43-4.59-16.39-10.93,4.15,3.12,8.21,6.68,13.8,3.48l-8.64-7.46,3.73.81c-1.46-5.45-2.83-10.55-4.3-16C394,429.22,394.84,433.71,396.67,438.29Z" transform="translate(-35.68 -182.77)"/><path class="cls-1" d="M390.77,234.41l-8.86-6.52,18.79,27.69c2-7.25,8.52-10.72,17-11.87-3.07-.75-6.21-1.76-8.87-1-7.61,2.13-12.34-1.5-16.49-7a97.3,97.3,0,0,0,10.15,2.33c20.44,2.48,38.1,10.12,51.16,26.75,2.77,3.52,6.07,6.62,9.08,9.95,3.34,3.7,6.64,7.43,10,11.15l1.48-1.17c-7.56-10.22-14.8-20.71-22.78-30.59C445.21,246.43,437.38,240,428,236.8c-16.44-5.65-33.19-10.38-49.34-15.35C382.43,225.51,386.6,230,390.77,234.41Z" transform="translate(-35.68 -182.77)"/><path class="cls-1" d="M259.46,295.63,262.2,298H223.64c11.06-9.12,17.29-19.69,16.26-34-10.07,11.72-13.8,28.19-28.5,36.29l14.82.84c-17.55,7.25-33.78,14.1-50.13,20.63a81.63,81.63,0,0,1-15.74,4.62c-8.84,1.57-12.78-2.52-10.84-11.31,1.3-5.89,3.65-11.54,5.53-17.3-35.93,46.49-48.23,98.39-36,155.92-.64-41.42,14.64-76.36,43.71-105.32,28.72-28.62,63.71-44.51,104.83-48.42-1.52-5.19-2.07-10.05-4.28-14-3.55-6.27-8.2-11.91-12-17.26-1.44,5.95,2.11,18.54,8.11,26.89-5.87-1.31-7.51-6.27-8.72-11-1.16-4.54-1.26-9.35-2-15.42-4.12,8.86-7.67,16.47-8.27,26.45Z" transform="translate(-35.68 -182.77)"/><path class="cls-1" d="M246.15,338.67c-9.73,7.36-15.88,17.36-20.33,28.4-9.89,24.56-13.47,50.33-14.61,76.6a29.15,29.15,0,0,1-3.52,13.23c-7.24,12.13-14.62,24.26-23.09,35.54-12.22,16.26-27.08,29.81-46,38.26-2.27,1-4.63,1.82-7,2.66-2.17.78-4.36,1.47-6.55,2.19,60.82-6.31,105.88-37.27,137.43-85.89-10.7,10.15-22.7,22.07-35.29,33.31s-26.67,21-43.4,25.85C205.19,486,224.66,462.1,235,430.5l-12.74,9C220.05,402.6,225.91,369,246.15,338.67Z" transform="translate(-35.68 -182.77)"/><path class="cls-1" d="M259.25,353a9.45,9.45,0,0,0,1.4-.79c.85-1.23,1.67-2.48,2.52-3.71,8.69-12.59,19.11-23.18,34.14-27.89,23.59-7.39,37.05-24.06,44-47a15.86,15.86,0,0,1,3.41-5.68c8.67-9.74,17.47-19.36,26.23-29l-1.21-1.35L327,257c.55-8.82,4.36-15.08,8.62-21.32L324,246.53c6.74-22.37,20.2-29,46.28-23.45-11.13-5.53-20.28-11.52-21.14-24.39-.92.29-1.4.4-1.86.59a17.29,17.29,0,0,0-1.79.86c-16.91,9.51-23.65,24.33-23,43.27.1,3.19-1.22,6.62-2.55,9.64-3.18,7.18-6.76,14.18-10.18,21.26l1.36.75c3.68-2.47,7.25-5.14,11.08-7.36s7.89-4,12.83-1.31c-6.84,10.37-17.07,16.16-26.29,23.07l.88,1.46,29-16.31.85.88c-4.9,4.21-9.42,9-14.79,12.5-7.08,4.62-14.73,8.41-22.3,12.21C280.38,311.22,267,329.14,259.25,353Z" transform="translate(-35.68 -182.77)"/><path class="cls-1" d="M173.42,473.9c.33-2.13.72-4.26,1-6.4,2.94-25.88,8.32-51.24,17.34-75.68,13.37-36.23,31.75-68.67,69.86-86.52-1.74.24-2.37.27-3,.43-37.66,9.61-62.5,33.4-75.79,69.43C171,407.23,170.29,440.54,173.42,473.9Z" transform="translate(-35.68 -182.77)"/><path class="cls-1" d="M227.29,401.11c8.55-17.49,17.69-37.8,28.27-57.33a143.14,143.14,0,0,1,44.66-50.25c-9.8-12-14.44-25.46-13-40.85,1.4-15.08,7.77-28.07,16.47-40.21-8.42,6-15.84,12.85-21.25,21.63-6.83,11.09-8.93,23-4.8,35.42a100,100,0,0,0,8.52,18c1.81,3.16,1.37,4.7-1.14,7-18.4,17.15-32.24,37.57-42.65,60.39C235.19,370.65,229.9,387,227.29,401.11Z" transform="translate(-35.68 -182.77)"/><path class="cls-1" d="M453.27,291.15c-22.81,3.92-35.51-9.4-48.48-24.39.74,3.73,1.24,6.24,1.95,9.85-7.72-8.37-13.1-16.74-16.57-26.91l-2.09,11.52c-6.9-8.72-10.21-18.2-11.27-28.88-1.54,2.9-3,5.86-3.26,8.93-1.3,13.34,6.89,27.7,19,33.58,4,2,8.3,3.43,12.36,5.34a10.49,10.49,0,0,1,4.16,3.15,95.21,95.21,0,0,1,7,11.42c5.72,11.32,14.58,16,27,13.21a12.84,12.84,0,0,1,12,3.23c4,3.47,7.88,7,12.79,11.38-1.18-2.57-1.79-4-2.51-5.46-6.91-13.5-11.6-16.13-26.61-14.94-8.88.7-14.69-2.81-18-11.4,3.84,2,7.12,3.9,10.57,5.4s7.15,3.81,10.65,3.66c10.81-.45,18.25,4.9,24.81,12.46,6.71-13.94-13.75-33.88-24.57-30.35Z" transform="translate(-35.68 -182.77)"/><path class="cls-1" d="M232.77,264.47c-6.16,1.52-11.58,2.46-16.69,4.26-2.73,1-5.89,2.86-7.23,5.24-6.44,11.43-16.5,17.85-28.28,22.48a168.31,168.31,0,0,0-19.43,9,22.91,22.91,0,0,0-8.22,7.66c-1.09,1.78-.29,5.45.89,7.59.68,1.24,4,1.89,5.82,1.53a109.6,109.6,0,0,0,46.53-20.66C218.44,292.08,227.63,280.36,232.77,264.47Z" transform="translate(-35.68 -182.77)"/><path class="cls-1" d="M309.17,456.15c.46-5.29.65-10.62,1.42-15.87,2.3-15.81,7.62-30.17,19.45-41.68,3.45-3.36,6.89-7.63,8.2-12.1a313.3,313.3,0,0,0,7.82-34.42c1.51-8.76-.5-18.92-3.38-23.53-.94,12.86-6.07,23.92-12.78,34.41-4.75,7.42-9.72,14.75-13.82,22.52C304.2,408,303.25,431.79,309.17,456.15Z" transform="translate(-35.68 -182.77)"/><path class="cls-1" d="M231.65,310.38c-44.34,13.73-74.55,43.17-93.47,84.86-17.44,38.4-16.49,80.48-6.85,98.76C126.13,412,157.12,349.36,231.65,310.38Z" transform="translate(-35.68 -182.77)"/><path class="cls-1" d="M292.71,358.41c-4.34,10.4-7.88,19.65-12,28.64-7.86,17.14-16.47,34.06-30.5,47-7.19,6.6-12.23,14-16.73,22.42-5.64,10.61-12.53,20.55-19,31,1.44-1,2.84-1.75,4.06-2.76,7.28-6.06,14.87-11.8,21.7-18.35C262.73,444.74,280.59,420,289,389.44A95.38,95.38,0,0,0,292.71,358.41Z" transform="translate(-35.68 -182.77)"/><path class="cls-1" d="M337.44,290.52c-.65,1.28-1.29,2.57-2,3.84-4.64,8.85-10.64,16.62-19.4,21.63C287.8,332.15,271.45,357,263,387.78c-.75,2.73-1.45,5.47-2,8.23-.51,2.54-.81,5.13-1.2,7.69,6.21-12.35,12.4-24.47,19.73-35.85,5-7.8,11.77-14.31,20.72-18.18a31.16,31.16,0,0,0,10.52-7.18,197.78,197.78,0,0,0,16.19-20.2C333.45,312.91,337.62,302.47,337.44,290.52Z" transform="translate(-35.68 -182.77)"/><path class="cls-1" d="M291.24,418.81c.43-2.11.81-4.23,1.3-6.33,4.25-18.49,11.44-35.13,28.55-45.6a7.37,7.37,0,0,0,2.52-3c4.26-8.45,9-16.72,12.47-25.48,5-12.61,5.6-24.91,3.27-32.39-3.49,6.71-7,14.59-11.54,21.8-3.6,5.73-8.27,10.85-12.85,15.9-12.52,13.78-20.78,29.61-23.77,48.06C289.73,400.79,288.93,409.83,291.24,418.81Z" transform="translate(-35.68 -182.77)"/><path class="cls-1" d="M235.92,264.13c5.34-9,10.06-18,15.84-26.26s12.56-15.75,19-23.7c-1.9.93-4.21,1.56-5.91,3-8.58,7-17.18,14.07-25.4,21.51-2.74,2.47-4.38,3.22-7.91,1.28-19.42-10.7-40.06-17-62.52-15.57a63.83,63.83,0,0,0-30.42,9.43C179.64,226.09,198.34,232,235.92,264.13Z" transform="translate(-35.68 -182.77)"/><path class="cls-1" d="M301.3,209.4c-12.1,1.5-22.35,6.91-31.08,15.31-16.7,16.09-24.8,36.7-30.49,58.53-.45,1.73-.69,3.51-1.19,6.17l15.69-38.05,1.3.51c-.14,1.14-.35,2.28-.42,3.43-.51,9,1.39,17.42,7.47,24.12,2,2.26,2.77,4.45,3.71,7,1.77,4.81,4,9.43,6.32,14.73,3.24-3,5.26-5,7.37-6.85,3-2.62,3.29-5.34,1.2-8.81a52.68,52.68,0,0,1-4.31-9.52c-4.11-11.59-5.3-23.44-2.3-35.6l-1.91-.34c-3.05,12.08-6.11,24.16-8.81,34.82C260.32,249.13,271.31,229.54,301.3,209.4Z" transform="translate(-35.68 -182.77)"/><path class="cls-1" d="M310.18,462.91C299.41,443.49,299.31,423,304,401.84c-10.42,13.51-13.61,29.62-17,46.82a40,40,0,0,1-2.8-4.37c-4.16-9.35-2.46-19.14-1.58-29.67-7.12,12.88-3.14,40.74,7.11,52.29,1.64-5.5,3.22-10.81,5.11-17.17,4.75,12.64,11.4,22.24,23.28,28.53-1.39-15,3.67-27.09,12.3-38.39,5.89-7.71,6.41-17.33,5.74-25.78Z" transform="translate(-35.68 -182.77)"/><path class="cls-1" d="M217.06,264.53c-2.23-.41-4.44-.93-6.69-1.2-17.35-2.16-33.4,1.8-48.14,10.92-24.31,15-41,36.65-52.55,62.41-3.12,7-5.17,14.43-7.71,21.67l1.18.45C125.51,308.64,163.62,277.74,217.06,264.53Z" transform="translate(-35.68 -182.77)"/><path class="cls-1" d="M162.06,270.46c6-12.85,11.45-16.49,25.12-15.32,10.06.86,20,2.79,29.77,4.21-16.57-9.25-33.63-17.58-53.89-15.19-19.26,2.28-36.06,10.56-52.36,20.38C128.13,263.61,145.82,259.13,162.06,270.46Z" transform="translate(-35.68 -182.77)"/><path class="cls-1" d="M336.84,185.32c-29.84,4.43-56.2,71.47-39,96.62,2-5.41,2.81-11.68,6.14-16.05,6.6-8.66,7.27-17.7,7.39-28.18C311.58,217.2,319,199,336.84,185.32Z" transform="translate(-35.68 -182.77)"/><path class="cls-1" d="M129.87,198.37c18.83,2.56,37.47,6.24,55,13.67s34.57,16.11,52.67,24.64l8.16-9.71C212.82,204.63,163.42,194.63,129.87,198.37Z" transform="translate(-35.68 -182.77)"/><path class="cls-1" d="M271,305.4C224.69,321.66,191.61,375,201.34,427c.3-1.43.45-2.22.62-3,3.37-15.05,5.67-30.44,10.35-45.07,6.87-21.47,17.9-40.49,39.24-51.24A6.58,6.58,0,0,0,253.4,326C259,319.45,264.62,312.87,271,305.4Z" transform="translate(-35.68 -182.77)"/><path class="cls-1" d="M167.92,456.28c-2.08-40.7,6-78.38,25.76-113.7-7.85,8-15.78,15.87-22.82,24.48a43.26,43.26,0,0,0-8.09,15.18c-4.17,14.79-4,30-1.45,45.07C163,437.06,165.68,446.63,167.92,456.28Z" transform="translate(-35.68 -182.77)"/><path class="cls-1" d="M375.5,318.29c-17.09-5.27-26.44-17.64-32.17-33.51-.64,17.27,1.89,33.39,13.09,47.15.93,1.15,1,3.74.42,5.28A76,76,0,0,0,351.72,367c.36,9,3.83,18.82,7.8,22.41C349.72,362.83,362.2,340.75,375.5,318.29Z" transform="translate(-35.68 -182.77)"/><path class="cls-1" d="M274.1,434.37c-5.06,9.45-10.05,20.92-17,31.09a164,164,0,0,1-23.76,28.12,174.07,174.07,0,0,1-30.07,22.09c-10.45,6.18-22,10.46-32.23,15.16C222.19,520.14,268.93,485.74,274.1,434.37Z" transform="translate(-35.68 -182.77)"/><path class="cls-1" d="M497.52,343.31l.81-1.28a81.29,81.29,0,0,0,7.82,4.93c3.92,1.94,6.09.54,5.16-3.74-.69-3.18-2.29-7-4.74-8.82-12.4-9.43-24.62-18.94-33.3-32.26l-1,.69,11.87,22.75-.95.51L471,305.75A54.15,54.15,0,0,0,484,331.15c3.24,3.53,4.9,7.14,4.78,12.05-.07,2.74.82,6.46,2.71,8.12,5.11,4.49,10.46,8.5,10.69,16.18,2.84-6.19,5.37-11.69,7.63-16.6Z" transform="translate(-35.68 -182.77)"/><path class="cls-1" d="M322.29,474.55c.65-1.49,1.26-3,2-4.47,4.15-8.68,9.93-11.44,19.05-8.7,4.12,1.24,7.95,3.42,12.07,4.68,8.1,2.46,16.31,4.57,24.48,6.82-5.89-5-12.39-8.6-17.69-13.48-6.32-5.81-11.66-12.68-17.31-19.18-2.42-2.78-4.59-4.14-7.78-.93C327.4,449,321.82,460.49,322.29,474.55Z" transform="translate(-35.68 -182.77)"/><path class="cls-1" d="M445.3,377.92c-37.22-13.65-87.34,25.3-84.11,68.18l8.92-28.26,1.29.43c-.44,18.3,3.16,35,9.27,42.12-1.25-5-2.5-9.61-3.56-14.28-7-31,4.74-52.44,35-61.77C423.56,380.82,435.72,379.71,445.3,377.92Z" transform="translate(-35.68 -182.77)"/><path class="cls-1" d="M252.52,418.31c-1.74-10.11-3.07-19,1-27.61,1.46-3.15,2.24-6.61,3.49-9.87,6.68-17.48,13.94-34.62,27.95-47.82L283,332c-5.45,6.25-11.85,12.2-16.59,19.27-11.42,17-17.51,36.48-23.43,55.91a4.66,4.66,0,0,0,1.11,3.86c2.78,2.78,3,5.91,1.67,9.19-1.63,4-3.61,7.91-5.49,11.95,16.62-5.8,34-31.91,40.56-59.12C271.8,387.75,267.36,405.87,252.52,418.31Z" transform="translate(-35.68 -182.77)"/><path class="cls-1" d="M367.83,398.23c11.95-17,29.36-22.33,48.41-25.11-8-.46-16.07-1.06-23.63.68s-14.57,5.83-22.3,9.09c-7.12-17.37.42-34,4.46-51.47C358.37,347.17,354.66,383.14,367.83,398.23Z" transform="translate(-35.68 -182.77)"/><path class="cls-1" d="M118.39,360.49a90.54,90.54,0,0,1-37.94,21.7c-14.14,4-28.63,6.79-42.41,10,24.47,5,48.4,1.77,70.87-11a10.08,10.08,0,0,0,4.1-4.72C115.07,371.22,116.63,365.82,118.39,360.49Z" transform="translate(-35.68 -182.77)"/><path class="cls-1" d="M396.74,482.59c-8.29,3.94-16.72,4.5-25.25,4.75-13.89.41-25.75,4.88-33.34,17.38a51.81,51.81,0,0,0-2.38,5,6.47,6.47,0,0,0,3-2.36c7.18-9,16-13.23,27.9-11.72,5.49.7,11.34-1.36,17-2.18.46-.07.91-.17,1.61-.29-.51,1.34-.94,2.44-1.4,3.66,15.91,1.07,42-15,36.23-33.77-5.24,13-13.21,23-26.9,28.45Z" transform="translate(-35.68 -182.77)"/><path class="cls-1" d="M315.89,239.63c.94-3.78,1.79-7.15,2.61-10.53,4-16.49,14.39-27.72,29-35.52,3.55-1.9,5.73-2,7.32,2.67,3.09,9.15,9.06,16.45,16.73,22.47a81.62,81.62,0,0,1-11.65-31.4c-.57-3.71-3.05-4.34-6.22-3.95-13,1.63-23.25,7.52-29.57,19.42C318.09,214.21,316.39,226.57,315.89,239.63Z" transform="translate(-35.68 -182.77)"/><path class="cls-1" d="M456,271.07a68.32,68.32,0,0,0,16,25.43C483.06,308,494.7,318.91,506.22,330c8.23,7.89,9.55,14.78,4.42,25.08-1.37,2.76-2.77,5.51-4.79,9.51,2.57-1.75,3.87-2.65,5.19-3.53,8.58-5.7,9.63-8.59,7.65-18.76-1.9-9.76-8.21-16.61-15.1-22.92C486.9,304.06,470.12,288.89,456,271.07Z" transform="translate(-35.68 -182.77)"/><path class="cls-1" d="M258.77,348.24c-12,12.07-31.73,63.74-32.28,84.35C242.25,406.14,252.09,378.16,258.77,348.24Z" transform="translate(-35.68 -182.77)"/><path class="cls-1" d="M358,445.8c-3.1-10.86-4.45-20.45-2.44-30.35.34-1.7-1.06-4-2.21-5.68-4.05-5.85-6.72-12-5.4-19.45l8.47,1.41-11.92-17.48c-.43,1.76-1.16,4.14-1.6,6.57-1.92,10.74-3.17,21.23,3.83,31.11,3.16,4.48,2.84,10.2,1.39,16.65l-9.11-15C339.94,426.93,345.91,437.27,358,445.8Z" transform="translate(-35.68 -182.77)"/><path class="cls-1" d="M426.53,331.49c-6.49,8.15-13.28,15.68-25,18.26,9.09,3.45,16.08,1.08,21.37-4.38,9.74-10.05,18.72-20.82,28.39-31.71-9.16-1.78-15.28,2.74-21.44,7-7.66,5.26-15.21,10.67-25,11.55C412.17,336.35,419.25,334,426.53,331.49Z" transform="translate(-35.68 -182.77)"/><path class="cls-1" d="M50.38,302.8C64.15,313.44,92.64,322.69,109,322a4.69,4.69,0,0,0,3.3-1.45c3.06-4.33,5.86-8.84,8.63-13.09C84.49,310.78,81.59,310.59,50.38,302.8Z" transform="translate(-35.68 -182.77)"/><path class="cls-1" d="M379.11,375.15c11.4-5.19,22.61-8.08,34.18-6.7,8.82,1.06,17.36,4.28,26.13,6a57,57,0,0,0,13.7.51c2.24-.12,4-1.72,2.58-4.58-2.44-4.87-4.43-10-7.38-14.53-1.57-2.4-4.75-3.75-7.2-5.58,0,3.17.94,5.32,1.5,7.56,1.5,6,.07,7.48-6,7.43s-12.29.49-18.43.4a178.5,178.5,0,0,1-20.83-1.06C389.28,363.52,383.14,366.49,379.11,375.15Z" transform="translate(-35.68 -182.77)"/><path class="cls-1" d="M213.64,194.5c5.91,15.51,16.43,24.15,31.44,27.49a7.44,7.44,0,0,0,4.74-.62c14.7-8,29.7-15.25,46.24-18.92a23.63,23.63,0,0,0-5.91.39c-12.06,2.26-24,5.7-36.2,6.57C239.21,210.47,225.22,206.9,213.64,194.5Z" transform="translate(-35.68 -182.77)"/><path class="cls-1" d="M388.77,359.63c3,1.17,6,2.7,9.14,3.44,14,3.32,26.14-1.31,35.26-11.4,9.36-10.34,17-22.24,25.38-33.45L457,316.68c-3.12,2.29-6.6,4.22-9.27,6.95-5,5.11-9.63,10.57-14.18,16.07C422,353.72,407.72,361.35,388.77,359.63Z" transform="translate(-35.68 -182.77)"/><path class="cls-1" d="M384.94,286.08c-.27,6,0,11.89-.91,17.66-1.43,9.54-3.37,19-1.38,28.67,1.28,6.22,3.79,11.71,8.72,15.79.91.75,3.5,1.05,4,.45,3.05-3.57,5.71-7.46,8.5-11.25l-.76-.69c-2.69,1.41-5.38,2.83-9.52,5-.75-7.74-1.66-14.57-2-21.42-.34-6.47.29-13-.22-19.43C390.93,295.15,390.28,289.17,384.94,286.08Z" transform="translate(-35.68 -182.77)"/><path class="cls-1" d="M494.84,372.26l-8.66-2.58.14-.9h12.56l.19-1.41c-4.93-1.07-9.82-2.73-14.8-3-5.9-.36-9.17-2.32-11-8.37-1.49-4.92-4.61-9.6-7.91-13.64-2.45-3-6.37-4.81-9.63-7.14l-.78,1.08c9.44,8.42,16.35,22,15.94,32.09-2-4-3.39-7.53-5.41-10.71a45.26,45.26,0,0,0-7.36-9.34c-2.57-2.34-6-3.69-9.11-5.49l-.62,1.1a35.16,35.16,0,0,1,13.35,17.57c1.11,3.31,1.92,6.77,3.48,9.86a5.89,5.89,0,0,0,4.41,2.81C477.67,373.81,485.69,373,494.84,372.26Z" transform="translate(-35.68 -182.77)"/><path class="cls-1" d="M361.24,258.25c-4.65,5.76-9,11-13.12,16.37a6.27,6.27,0,0,0-1.2,4.11c1.61,14.4,8,25.87,21.07,32.93,1.73.93,3.81,1.19,6.47,2C356.84,285.61,355.77,281.11,361.24,258.25Z" transform="translate(-35.68 -182.77)"/><path class="cls-1" d="M211.26,248.65c-17-11-35.2-15.34-55.2-12.51-16.3,2.31-44.79,15.08-52.74,25C138.06,238.41,173.84,235.83,211.26,248.65Z" transform="translate(-35.68 -182.77)"/><path class="cls-1" d="M488.94,380.14v-.74c-5.59-.37-11.18-.78-16.77-1.11-4.51-.27-7.53-1.82-9.21-6.68a65.17,65.17,0,0,0-7.6-14.47c-1.9-2.87-5-5-7.51-7.41,5.63,8.69,8.44,18.22,12,27.53,4,10.52,0,19.29-3.57,28.86a76,76,0,0,0,13.26-13c2.65-3.42,3.32-9,6.53-11.16S484.56,380.63,488.94,380.14Z" transform="translate(-35.68 -182.77)"/><path class="cls-1" d="M433.52,311.46c-11.41.85-17.56-5.86-22.47-14.64-1.54-2.75-3.41-5.32-5.15-7.94-.94-1.41-1.94-2.77-2.91-4.15L401.36,286c2.08,5.56,4,11.17,6.27,16.66A21.66,21.66,0,0,0,420,315.26c-9.48,2.13-11.59-5.9-15.7-11.64-1.92,8.58-.15,14.48,4.88,17.5s10.92,1.86,17.11-3.62C428.63,315.41,431.1,313.47,433.52,311.46Z" transform="translate(-35.68 -182.77)"/><path class="cls-1" d="M365.73,270.65c5,2.54,9.23,4.39,13.16,6.77,12.82,7.77,16.24,20.32,16.81,34.15.22,5.16,0,10.33,0,15.5h1.55a60.49,60.49,0,0,0,3.39-25.36C399.26,282.53,386,270.35,365.73,270.65Z" transform="translate(-35.68 -182.77)"/><path class="cls-1" d="M417.81,383.39c-.05.7-.09,1.41-.14,2.11,9.6,2.81,18.55,8.38,29.85,5.91l-6,8.83c3.81-.9,7.21-2.13,9.76-4.35,2.83-2.47,4.87-5.84,7.25-8.81-3.5-1.58-7-4.38-10.5-4.5C438,382.26,427.89,383,417.81,383.39Z" transform="translate(-35.68 -182.77)"/><path class="cls-1" d="M373.26,227.43c-20.45-.55-36.76,8.74-38.74,21.6C348.13,242.88,362,237.55,373.26,227.43Z" transform="translate(-35.68 -182.77)"/><path class="cls-1" d="M164.7,299.87c15-6.06,30.89-11,39.07-27C187.28,276.8,175.8,288,164.7,299.87Z" transform="translate(-35.68 -182.77)"/><path class="cls-1" d="M390.49,479.85c0-.77,0-1.53,0-2.29-15.92.9-31.9,1.24-47.74,2.91-10.16,1.08-19,6-26.37,14.68a10.17,10.17,0,0,0,2.2-.4c16.38-9.24,34.1-12.7,52.75-12.79C377.69,481.93,384.09,480.59,390.49,479.85Z" transform="translate(-35.68 -182.77)"/><path class="cls-1" d="M440.24,432.15l-27.19,11.38,0,.42,14.09-3.25a41.46,41.46,0,0,1-9.95,5.6c-5.62,2.15-6.91,5.05-4.09,11.24C426.51,453.85,433.89,443.82,440.24,432.15Z" transform="translate(-35.68 -182.77)"/><path class="cls-1" d="M382.48,289.93c-11.6,1.33-14.13-7.63-19.74-14.14.26,13.79,7.58,22.93,15.06,32h1.61Z" transform="translate(-35.68 -182.77)"/><path class="cls-1" d="M410.73,255.42l-.2,1.34c15.54,3.14,31,6.55,42.25,20.78-4.94-16-20-27.82-33.72-27.84l15.12,8.38Z" transform="translate(-35.68 -182.77)"/><path class="cls-1" d="M385.89,349.75l-8.44-13.83c-4.67,13.11-6.19,32.73-3.2,40.41C376.58,367,375.33,356,385.89,349.75Z" transform="translate(-35.68 -182.77)"/><path class="cls-1" d="M403,404.44c-2.28,8.2-2.78,16.37,0,24.41,2.63,7.55,8.34,10.46,16.14,8.67C409.24,430.26,405.59,422.64,403,404.44Z" transform="translate(-35.68 -182.77)"/><path class="cls-1" d="M485.64,353.45l1.09-1.24c-2.12-3.45-4.15-7-6.39-10.33-2-3.08-4.82-5.76-6.32-9.05-2.56-5.59-5.86-7.92-12.13-7.06,2.41,1.77,4.7,3.47,7.58,5.6l-4.88.42,8.82,6.61-2.12,1.41,7.06,4.88-4,1.06Z" transform="translate(-35.68 -182.77)"/><path class="cls-1" d="M359.12,425.82c2.55-7.11,5.32-14.81,8-22.35l-15.2-7.24c2,3.16,3.85,5.78,5.3,8.62a15.2,15.2,0,0,1,1.79,6C359.28,416.05,359.12,421.27,359.12,425.82Z" transform="translate(-35.68 -182.77)"/><path class="cls-1" d="M368.2,429.08c-6.84,15.5-2.28,33.6,9,35.58C370.36,452.23,369,446.63,368.2,429.08Z" transform="translate(-35.68 -182.77)"/><path class="cls-1" d="M430.94,269.53l4.56,12c-9.47-4.53-18.12-7.24-22.82-16.95.86,9.48,12.34,18.6,25.55,21.16C437.78,279.4,436.52,273.68,430.94,269.53Z" transform="translate(-35.68 -182.77)"/><path class="cls-1" d="M417.9,429.9c7.38-12.78-.38-29.5-16.22-35C415.72,407.87,417.31,414.74,417.9,429.9Z" transform="translate(-35.68 -182.77)"/><path class="cls-1" d="M477.52,360.48h17.71c-5.72-5.24-12.66-7.5-20.73-8.85Z" transform="translate(-35.68 -182.77)"/><path class="cls-1" d="M417.16,401.07c6.6,9.28,8.16,19.7,6.61,31.69C430.52,421.17,427.93,409.48,417.16,401.07Z" transform="translate(-35.68 -182.77)"/><path class="cls-1" d="M478.94,393.57c11.51-1.75,23.08-10.18,23.33-16.67Z" transform="translate(-35.68 -182.77)"/><path class="cls-1" d="M389.24,413.84l1.45.07,9-14.72c-3.59.68-7.6.54-8,1.68C390.18,405,389.94,409.48,389.24,413.84Z" transform="translate(-35.68 -182.77)"/><path class="cls-1" d="M395.92,413.51c-3.94,1.41-6.79,4-6.72,8.1,0,2.82,1.75,5.62,2.72,8.42l1-.59Z" transform="translate(-35.68 -182.77)"/><path class="cls-1" d="M259.46,295.62c-6-8.35-9.55-20.94-8.11-26.89,3.79,5.35,8.44,11,12,17.26,2.21,3.91,2.76,8.77,4.28,14-41.12,3.91-76.11,19.8-104.83,48.42-29.07,29-44.35,63.9-43.71,105.32-12.27-57.53,0-109.43,36-155.92-1.88,5.76-4.23,11.41-5.53,17.3-1.94,8.79,2,12.88,10.84,11.31a81.63,81.63,0,0,0,15.74-4.62c16.35-6.53,32.58-13.38,50.13-20.63l-14.82-.84c14.7-8.1,18.43-24.57,28.5-36.29,1,14.29-5.2,24.86-16.26,34H262.2l-2.74-2.35Z" transform="translate(-35.68 -182.77)"/><path class="cls-1" d="M246.15,338.67c-20.24,30.36-26.1,63.93-23.94,100.86l12.74-9c-10.29,31.6-29.76,55.48-51.12,78.32,16.73-4.87,30.67-14.5,43.4-25.85s24.59-23.16,35.29-33.31c-31.55,48.62-76.61,79.58-137.43,85.89,2.19-.72,4.38-1.41,6.55-2.19,2.35-.84,4.71-1.64,7-2.66,18.9-8.45,33.76-22,46-38.26,8.47-11.28,15.85-23.41,23.09-35.54a29.15,29.15,0,0,0,3.52-13.23c1.14-26.27,4.72-52,14.61-76.6C230.27,356,236.42,346,246.15,338.67Z" transform="translate(-35.68 -182.77)"/><path class="cls-1" d="M259.25,353c7.73-23.86,21.13-41.78,43.12-52.8,7.57-3.8,15.22-7.59,22.3-12.21,5.37-3.49,9.89-8.29,14.79-12.5l-.85-.88-29,16.31-.88-1.46c9.22-6.91,19.45-12.7,26.29-23.07-4.94-2.67-9-.89-12.83,1.31s-7.4,4.89-11.08,7.36l-1.36-.75c3.42-7.08,7-14.08,10.18-21.26,1.33-3,2.65-6.45,2.55-9.64-.63-18.94,6.11-33.76,23-43.27a17.29,17.29,0,0,1,1.79-.86c.46-.19.94-.3,1.86-.59.86,12.87,10,18.86,21.14,24.39-26.08-5.55-39.54,1.08-46.28,23.45l11.57-10.85c-4.26,6.24-8.07,12.5-8.62,21.32l42.8-19.4L371,239c-8.76,9.66-17.56,19.28-26.23,29a15.86,15.86,0,0,0-3.41,5.68c-7,22.9-20.45,39.57-44,47-15,4.71-25.45,15.3-34.14,27.89-.85,1.23-1.67,2.48-2.52,3.71A9.45,9.45,0,0,1,259.25,353Z" transform="translate(-35.68 -182.77)"/><path class="cls-1" d="M173.42,473.9c-3.13-33.36-2.42-66.67,9.41-98.74,13.29-36,38.13-59.82,75.79-69.43.6-.16,1.23-.19,3-.43-38.11,17.85-56.49,50.29-69.86,86.52-9,24.44-14.4,49.8-17.34,75.68C174.14,469.64,173.75,471.77,173.42,473.9Z" transform="translate(-35.68 -182.77)"/><path class="cls-1" d="M227.29,401.11c2.61-14.12,7.9-30.46,15.07-46.2,10.41-22.82,24.25-43.24,42.65-60.39,2.51-2.34,2.95-3.88,1.14-7a100,100,0,0,1-8.52-18c-4.13-12.42-2-24.33,4.8-35.42,5.41-8.78,12.83-15.62,21.25-21.63-8.7,12.14-15.07,25.13-16.47,40.21-1.43,15.39,3.21,28.84,13,40.85a143.14,143.14,0,0,0-44.66,50.25C245,363.31,235.84,383.62,227.29,401.11Z" transform="translate(-35.68 -182.77)"/><path class="cls-1" d="M453.27,291.15l-11-9.2c10.82-3.53,31.28,16.41,24.57,30.35-6.56-7.56-14-12.91-24.81-12.46-3.5.15-7.19-2.15-10.65-3.66s-6.73-3.42-10.57-5.4c3.27,8.59,9.08,12.1,18,11.4,15-1.19,19.7,1.44,26.61,14.94.72,1.42,1.33,2.89,2.51,5.46-4.91-4.37-8.82-7.91-12.79-11.38a12.84,12.84,0,0,0-12-3.23c-12.46,2.79-21.32-1.89-27-13.21a95.21,95.21,0,0,0-7-11.42,10.49,10.49,0,0,0-4.16-3.15c-4.06-1.91-8.33-3.38-12.36-5.34-12.1-5.88-20.29-20.24-19-33.58.3-3.07,1.72-6,3.26-8.93,1.06,10.68,4.37,20.16,11.27,28.88l2.09-11.52c3.47,10.17,8.85,18.54,16.57,26.91-.71-3.61-1.21-6.12-1.95-9.85C417.76,281.75,430.46,295.07,453.27,291.15Z" transform="translate(-35.68 -182.77)"/><path class="cls-1" d="M232.77,264.47c-5.14,15.89-14.33,27.61-26.61,37.07a109.6,109.6,0,0,1-46.53,20.66c-1.86.36-5.14-.29-5.82-1.53-1.18-2.14-2-5.81-.89-7.59a22.91,22.91,0,0,1,8.22-7.66,168.31,168.31,0,0,1,19.43-9c11.78-4.63,21.84-11.05,28.28-22.48,1.34-2.38,4.5-4.28,7.23-5.24C221.19,266.93,226.61,266,232.77,264.47Z" transform="translate(-35.68 -182.77)"/><path class="cls-1" d="M309.17,456.15c-5.92-24.36-5-48.14,6.91-70.67,4.1-7.77,9.07-15.1,13.82-22.52,6.71-10.49,11.84-21.55,12.78-34.41,2.88,4.61,4.89,14.77,3.38,23.53a313.3,313.3,0,0,1-7.82,34.42c-1.31,4.47-4.75,8.74-8.2,12.1-11.83,11.51-17.15,25.87-19.45,41.68C309.82,445.53,309.63,450.86,309.17,456.15Z" transform="translate(-35.68 -182.77)"/><path class="cls-1" d="M231.65,310.38C157.12,349.36,126.13,412,131.33,494c-9.64-18.28-10.59-60.36,6.85-98.76C157.1,353.55,187.31,324.11,231.65,310.38Z" transform="translate(-35.68 -182.77)"/><path class="cls-1" d="M292.71,358.41a95.38,95.38,0,0,1-3.67,31c-8.45,30.58-26.31,55.3-48.84,76.92-6.83,6.55-14.42,12.29-21.7,18.35-1.22,1-2.62,1.79-4.06,2.76,6.51-10.49,13.4-20.43,19-31C238,448,243,440.61,250.21,434c14-12.9,22.64-29.82,30.5-47C284.83,378.06,288.37,368.81,292.71,358.41Z" transform="translate(-35.68 -182.77)"/><path class="cls-1" d="M337.44,290.52c.18,12-4,22.39-10.51,31.77a197.78,197.78,0,0,1-16.19,20.2,31.16,31.16,0,0,1-10.52,7.18c-9,3.87-15.69,10.38-20.72,18.18-7.33,11.38-13.52,23.5-19.73,35.85.39-2.56.69-5.15,1.2-7.69.56-2.76,1.26-5.5,2-8.23,8.47-30.74,24.82-55.63,53.1-71.79,8.76-5,14.76-12.78,19.4-21.63C336.15,293.09,336.79,291.8,337.44,290.52Z" transform="translate(-35.68 -182.77)"/><path class="cls-1" d="M291.24,418.81c-2.31-9-1.51-18-.05-27,3-18.45,11.25-34.28,23.77-48.06,4.58-5.05,9.25-10.17,12.85-15.9,4.55-7.21,8.05-15.09,11.54-21.8,2.33,7.48,1.75,19.78-3.27,32.39-3.49,8.76-8.21,17-12.47,25.48a7.37,7.37,0,0,1-2.52,3c-17.11,10.47-24.3,27.11-28.55,45.6C292.05,414.58,291.67,416.7,291.24,418.81Z" transform="translate(-35.68 -182.77)"/><path class="cls-1" d="M235.92,264.13c-37.58-32.13-56.28-38-97.32-30.36A63.83,63.83,0,0,1,169,224.34c22.46-1.41,43.1,4.87,62.52,15.57,3.53,1.94,5.17,1.19,7.91-1.28,8.22-7.44,16.82-14.48,25.4-21.51,1.7-1.39,4-2,5.91-3-6.44,8-13.25,15.46-19,23.7S241.26,255.17,235.92,264.13Z" transform="translate(-35.68 -182.77)"/><path class="cls-1" d="M301.3,209.4c-30,20.14-41,39.73-37.45,65.45,2.7-10.66,5.76-22.74,8.81-34.82l1.91.34c-3,12.16-1.81,24,2.3,35.6a52.68,52.68,0,0,0,4.31,9.52c2.09,3.47,1.78,6.19-1.2,8.81-2.11,1.86-4.13,3.83-7.37,6.85-2.31-5.3-4.55-9.92-6.32-14.73-.94-2.55-1.67-4.74-3.71-7-6.08-6.7-8-15.15-7.47-24.12.07-1.15.28-2.29.42-3.43l-1.3-.51-15.69,38.05c.5-2.66.74-4.44,1.19-6.17,5.69-21.83,13.79-42.44,30.49-58.53C279,216.31,289.2,210.9,301.3,209.4Z" transform="translate(-35.68 -182.77)"/><path class="cls-1" d="M310.18,462.91l26-48.81c.67,8.45.15,18.07-5.74,25.78-8.63,11.3-13.69,23.36-12.3,38.39-11.88-6.29-18.53-15.89-23.28-28.53-1.89,6.36-3.47,11.67-5.11,17.17-10.25-11.55-14.23-39.41-7.11-52.29-.88,10.53-2.58,20.32,1.58,29.67a40,40,0,0,0,2.8,4.37c3.36-17.2,6.55-33.31,17-46.82C299.31,423,299.41,443.49,310.18,462.91Z" transform="translate(-35.68 -182.77)"/><path class="cls-1" d="M217.06,264.53c-53.44,13.21-91.55,44.11-113.91,94.25l-1.18-.45c2.54-7.24,4.59-14.7,7.71-21.67,11.55-25.76,28.24-47.38,52.55-62.41,14.74-9.12,30.79-13.08,48.14-10.92C212.62,263.6,214.83,264.12,217.06,264.53Z" transform="translate(-35.68 -182.77)"/><path class="cls-1" d="M162.06,270.46c-16.24-11.33-33.93-6.85-51.36-5.92,16.3-9.82,33.1-18.1,52.36-20.38,20.26-2.39,37.32,5.94,53.89,15.19-9.75-1.42-19.71-3.35-29.77-4.21C173.51,254,168,257.61,162.06,270.46Z" transform="translate(-35.68 -182.77)"/><path class="cls-1" d="M336.84,185.32C319,199,311.58,217.2,311.34,237.71c-.12,10.48-.79,19.52-7.39,28.18-3.33,4.37-4.17,10.64-6.13,16.06C280.64,256.79,307,189.75,336.84,185.32Z" transform="translate(-35.68 -182.77)"/><path class="cls-1" d="M129.87,198.37c33.55-3.74,82.95,6.26,115.8,28.6l-8.16,9.71c-18.1-8.53-35.13-17.19-52.67-24.64S148.7,200.93,129.87,198.37Z" transform="translate(-35.68 -182.77)"/><path class="cls-1" d="M271,305.4c-6.37,7.47-12,14.05-17.59,20.61a6.58,6.58,0,0,1-1.85,1.65c-21.34,10.75-32.37,29.77-39.24,51.24-4.68,14.63-7,30-10.35,45.07-.17.78-.32,1.57-.62,3C191.61,375,224.69,321.66,271,305.4Z" transform="translate(-35.68 -182.77)"/><path class="cls-1" d="M167.92,456.28c-2.24-9.65-4.95-19.22-6.6-29-2.56-15.06-2.72-30.28,1.45-45.07a43.26,43.26,0,0,1,8.09-15.18c7-8.61,15-16.5,22.82-24.48C173.93,377.9,165.84,415.58,167.92,456.28Z" transform="translate(-35.68 -182.77)"/><path class="cls-1" d="M375.5,318.29c-13.3,22.46-25.78,44.54-16,71.11-4-3.59-7.44-13.45-7.8-22.41a76,76,0,0,1,5.12-29.78c.57-1.54.51-4.13-.42-5.28-11.2-13.76-13.73-29.88-13.09-47.15C349.06,300.65,358.41,313,375.5,318.29Z" transform="translate(-35.68 -182.77)"/><path class="cls-1" d="M393.39,444c3,6.35,9,8.39,16.4,10.94L399,458l16.48,7.91V467l-16-1c3.51,6.23,9.22,2.39,15.5,3.51l-15,16-1.22-.82,3.93-10.7-18.32,3.71-.32-1.22,10.76-5.4-9.18-3.39,12.47-1.38.39-1.22c-13.63-6.71-18.83-18.38-19.37-32.51-.44-11.36,2.32-21.95,9.32-32.77-1.05,9.72-2.45,18-2.72,26.34s.9,16.85,6.88,23.8c-.48-2.19-1-4.38-1.51-6.78l2.42,1Z" transform="translate(-35.68 -182.77)"/><path class="cls-1" d="M274.1,434.37c-5.17,51.37-51.91,85.77-103,96.46,10.2-4.7,21.78-9,32.23-15.16a174.07,174.07,0,0,0,30.07-22.09,164,164,0,0,0,23.76-28.12C264.05,455.29,269,443.82,274.1,434.37Z" transform="translate(-35.68 -182.77)"/><path class="cls-1" d="M497.52,343.31l12.31,7.59c-2.26,4.91-4.79,10.41-7.63,16.6-.23-7.68-5.58-11.69-10.69-16.18-1.89-1.66-2.78-5.38-2.71-8.12.12-4.91-1.54-8.52-4.78-12.05A54.15,54.15,0,0,1,471,305.75l12.24,20.34.95-.51-11.87-22.75,1-.69c8.68,13.32,20.9,22.83,33.3,32.26,2.45,1.86,4.05,5.64,4.74,8.82.93,4.28-1.24,5.68-5.16,3.74a81.29,81.29,0,0,1-7.82-4.93Z" transform="translate(-35.68 -182.77)"/><path class="cls-1" d="M493.16,336.23c-3.45,9.1-1,16.14,4.5,17.36Z" transform="translate(-35.68 -182.77)"/><path class="cls-1" d="M322.29,474.55c-.47-14.06,5.11-25.52,14.79-35.26,3.19-3.21,5.36-1.85,7.78.93,5.65,6.5,11,13.37,17.31,19.18,5.3,4.88,11.8,8.46,17.69,13.48-8.17-2.25-16.38-4.36-24.48-6.82-4.12-1.26-7.95-3.44-12.07-4.68-9.12-2.74-14.9,0-19.05,8.7C323.55,471.55,322.94,473.06,322.29,474.55Z" transform="translate(-35.68 -182.77)"/><path class="cls-1" d="M390.77,234.41c-4.17-4.45-8.34-8.9-12.13-13,16.15,5,32.9,9.7,49.34,15.35,9.4,3.23,17.23,9.63,23.45,17.34,8,9.88,15.22,20.37,22.78,30.59l-1.48,1.17c-3.32-3.72-6.62-7.45-10-11.15-3-3.33-6.31-6.43-9.08-9.95-13.06-16.63-30.72-24.27-51.16-26.75a97.3,97.3,0,0,1-10.15-2.33Z" transform="translate(-35.68 -182.77)"/><path class="cls-1" d="M445.3,377.92c-9.58,1.79-21.74,2.9-33.17,6.42-30.28,9.33-42.05,30.81-35,61.77,1.06,4.67,2.31,9.3,3.56,14.28-6.11-7.1-9.71-23.82-9.27-42.12l-1.29-.43-8.92,28.26C358,403.22,408.08,364.27,445.3,377.92Z" transform="translate(-35.68 -182.77)"/><path class="cls-1" d="M252.52,418.31c14.84-12.44,19.28-30.56,28.33-45.3-6.57,27.21-23.94,53.32-40.56,59.12,1.88-4,3.86-7.93,5.49-11.95,1.34-3.28,1.11-6.41-1.67-9.19a4.66,4.66,0,0,1-1.11-3.86c5.92-19.43,12-38.88,23.43-55.91,4.74-7.07,11.14-13,16.59-19.27l1.9,1.06c-14,13.2-21.27,30.34-27.95,47.82-1.25,3.26-2,6.72-3.49,9.87C249.45,399.34,250.78,408.2,252.52,418.31Z" transform="translate(-35.68 -182.77)"/><path class="cls-1" d="M367.83,398.23c-13.17-15.09-9.46-51.06,6.94-66.81-4,17.43-11.58,34.1-4.46,51.47,7.73-3.26,14.75-7.35,22.3-9.09s15.66-1.14,23.63-.68C397.19,375.9,379.78,381.28,367.83,398.23Z" transform="translate(-35.68 -182.77)"/><path class="cls-1" d="M118.39,360.49c-1.76,5.33-3.32,10.73-5.38,15.93a10.08,10.08,0,0,1-4.1,4.72c-22.47,12.8-46.4,16-70.87,11,13.78-3.19,28.27-6,42.41-10A90.54,90.54,0,0,0,118.39,360.49Z" transform="translate(-35.68 -182.77)"/><path class="cls-1" d="M396.74,482.59l-3.5,9c13.69-5.48,21.66-15.44,26.9-28.45,5.74,18.75-20.32,34.84-36.23,33.77.46-1.22.89-2.32,1.4-3.66-.7.12-1.15.22-1.61.29-5.68.82-11.53,2.88-17,2.18-11.93-1.51-20.72,2.76-27.9,11.72a6.47,6.47,0,0,1-3,2.36,51.81,51.81,0,0,1,2.38-5c7.59-12.5,19.45-17,33.34-17.38C380,487.09,388.45,486.53,396.74,482.59Z" transform="translate(-35.68 -182.77)"/><path class="cls-1" d="M315.89,239.63c.5-13.06,2.2-25.42,8.26-36.84,6.32-11.9,16.53-17.79,29.57-19.42,3.17-.39,5.65.24,6.22,3.95a81.62,81.62,0,0,0,11.65,31.4c-7.67-6-13.64-13.32-16.73-22.47-1.59-4.7-3.77-4.57-7.32-2.67-14.65,7.8-25,19-29,35.52C317.68,232.48,316.83,235.85,315.89,239.63Z" transform="translate(-35.68 -182.77)"/><path class="cls-1" d="M456,271.07c14.17,17.82,30.95,33,47.64,48.27,6.89,6.31,13.2,13.16,15.1,22.92,2,10.17.93,13.06-7.65,18.76-1.32.88-2.62,1.78-5.19,3.53,2-4,3.42-6.75,4.79-9.51,5.13-10.3,3.81-17.19-4.42-25.08-11.52-11-23.16-22-34.25-33.46A68.32,68.32,0,0,1,456,271.07Z" transform="translate(-35.68 -182.77)"/><path class="cls-1" d="M258.77,348.24c-6.68,29.92-16.52,57.9-32.28,84.35C227,412,246.78,360.31,258.77,348.24Z" transform="translate(-35.68 -182.77)"/><path class="cls-1" d="M358,445.8c-12-8.53-18-18.87-19-32.23l9.11,15c1.45-6.45,1.77-12.17-1.39-16.65-7-9.88-5.75-20.37-3.83-31.11.44-2.43,1.17-4.81,1.6-6.57l11.92,17.48-8.47-1.41c-1.32,7.49,1.35,13.6,5.4,19.45,1.15,1.65,2.55,4,2.21,5.68C353.5,425.35,354.85,434.94,358,445.8Z" transform="translate(-35.68 -182.77)"/><path class="cls-1" d="M426.53,331.49c-7.28,2.53-14.36,4.86-21.71.68,9.79-.88,17.34-6.29,25-11.55,6.16-4.22,12.28-8.74,21.44-7-9.67,10.89-18.65,21.66-28.39,31.71-5.29,5.46-12.28,7.83-21.37,4.38C413.25,347.17,420,339.64,426.53,331.49Z" transform="translate(-35.68 -182.77)"/><path class="cls-1" d="M50.38,302.8c31.21,7.79,34.11,8,70.59,4.7-2.77,4.25-5.57,8.76-8.63,13.09A4.69,4.69,0,0,1,109,322C92.64,322.69,64.15,313.44,50.38,302.8Z" transform="translate(-35.68 -182.77)"/><path class="cls-1" d="M379.11,375.15c4-8.66,10.17-11.63,18.26-10.58a178.5,178.5,0,0,0,20.83,1.06c6.14.09,12.29-.46,18.43-.4s7.49-1.47,6-7.43c-.56-2.24-1.47-4.39-1.5-7.56,2.45,1.83,5.63,3.18,7.2,5.58,2.95,4.52,4.94,9.66,7.38,14.53,1.43,2.86-.34,4.46-2.58,4.58a57,57,0,0,1-13.7-.51c-8.77-1.69-17.31-4.91-26.13-6C401.72,367.07,390.51,370,379.11,375.15Z" transform="translate(-35.68 -182.77)"/><path class="cls-1" d="M213.64,194.5c11.58,12.4,25.57,16,40.31,14.91,12.16-.87,24.14-4.31,36.2-6.57a23.63,23.63,0,0,1,5.91-.39c-16.54,3.67-31.54,10.9-46.24,18.92a7.44,7.44,0,0,1-4.74.62C230.07,218.65,219.55,210,213.64,194.5Z" transform="translate(-35.68 -182.77)"/><path class="cls-1" d="M388.77,359.63c19,1.72,33.19-5.91,44.79-19.93,4.55-5.5,9.19-11,14.18-16.07,2.67-2.73,6.15-4.66,9.27-6.95l1.54,1.54c-8.39,11.21-16,23.11-25.38,33.45-9.12,10.09-21.26,14.72-35.26,11.4C394.77,362.33,391.81,360.8,388.77,359.63Z" transform="translate(-35.68 -182.77)"/><path class="cls-1" d="M384.94,286.08c5.34,3.09,6,9.07,6.43,14.77.51,6.44-.12,13,.22,19.43.35,6.85,1.26,13.68,2,21.42,4.14-2.16,6.83-3.58,9.52-5l.76.69c-2.79,3.79-5.45,7.68-8.5,11.25-.51.6-3.1.3-4-.45-4.93-4.08-7.44-9.57-8.72-15.79-2-9.71,0-19.13,1.38-28.67C384.9,298,384.67,292.05,384.94,286.08Z" transform="translate(-35.68 -182.77)"/><path class="cls-1" d="M494.84,372.26c-9.15.74-17.17,1.55-25.21,1.89a5.89,5.89,0,0,1-4.41-2.81c-1.56-3.09-2.37-6.55-3.48-9.86a35.16,35.16,0,0,0-13.35-17.57l.62-1.1c3.07,1.8,6.54,3.15,9.11,5.49a45.26,45.26,0,0,1,7.36,9.34c2,3.18,3.44,6.74,5.41,10.71.41-10.1-6.5-23.67-15.94-32.09l.78-1.08c3.26,2.33,7.18,4.14,9.63,7.14,3.3,4,6.42,8.72,7.91,13.64,1.83,6.05,5.1,8,11,8.37,5,.31,9.87,2,14.8,3l-.19,1.41H486.32l-.14.9Z" transform="translate(-35.68 -182.77)"/><path class="cls-1" d="M361.24,258.25c-5.47,22.86-4.4,27.36,13.22,55.4-2.66-.8-4.74-1.06-6.47-2-13.09-7.06-19.46-18.53-21.07-32.93a6.27,6.27,0,0,1,1.2-4.11C352.25,269.24,356.59,264,361.24,258.25Z" transform="translate(-35.68 -182.77)"/><path class="cls-1" d="M211.26,248.65c-37.42-12.82-73.2-10.24-107.94,12.45,8-9.88,36.44-22.65,52.74-25C176.06,233.31,194.3,237.69,211.26,248.65Z" transform="translate(-35.68 -182.77)"/><path class="cls-1" d="M488.94,380.14c-4.38.49-9.66-.35-12.9,1.83s-3.88,7.74-6.53,11.16a76,76,0,0,1-13.26,13c3.58-9.57,7.58-18.34,3.57-28.86-3.54-9.31-6.35-18.84-12-27.53,2.55,2.45,5.61,4.54,7.51,7.41a65.17,65.17,0,0,1,7.6,14.47c1.68,4.86,4.7,6.41,9.21,6.68,5.59.33,11.18.74,16.77,1.11Z" transform="translate(-35.68 -182.77)"/><path class="cls-1" d="M433.52,311.46c-2.42,2-4.89,4-7.24,6-6.19,5.48-11.93,6.73-17.11,3.62s-6.8-8.92-4.88-17.5c4.11,5.74,6.22,13.77,15.7,11.64a21.66,21.66,0,0,1-12.36-12.56c-2.25-5.49-4.19-11.1-6.27-16.66l1.63-1.31c1,1.38,2,2.74,2.91,4.15,1.74,2.62,3.61,5.19,5.15,7.94C416,305.6,422.11,312.31,433.52,311.46Z" transform="translate(-35.68 -182.77)"/><path class="cls-1" d="M365.73,270.65c20.28-.3,33.53,11.88,34.95,31.05a60.49,60.49,0,0,1-3.39,25.36h-1.55c0-5.17.18-10.34,0-15.5-.57-13.83-4-26.38-16.81-34.15C375,275,370.71,273.19,365.73,270.65Z" transform="translate(-35.68 -182.77)"/><path class="cls-1" d="M417.81,383.39c10.08-.35,20.17-1.13,30.23-.81,3.55.12,7,2.92,10.5,4.5-2.38,3-4.42,6.34-7.25,8.81-2.55,2.22-6,3.45-9.76,4.35l6-8.83c-11.3,2.47-20.25-3.1-29.85-5.91C417.72,384.8,417.76,384.09,417.81,383.39Z" transform="translate(-35.68 -182.77)"/><path class="cls-1" d="M373.26,227.43C362,237.55,348.13,242.88,334.52,249,336.5,236.17,352.81,226.88,373.26,227.43Z" transform="translate(-35.68 -182.77)"/><path class="cls-1" d="M164.7,299.87c11.1-11.85,22.58-23.07,39.07-27C195.59,288.84,179.74,293.81,164.7,299.87Z" transform="translate(-35.68 -182.77)"/><path class="cls-1" d="M390.49,479.85c-6.4.74-12.8,2.08-19.2,2.11-18.65.09-36.37,3.55-52.75,12.79a10.17,10.17,0,0,1-2.2.4c7.34-8.66,16.21-13.6,26.37-14.68,15.84-1.67,31.82-2,47.74-2.91C390.46,478.32,390.47,479.08,390.49,479.85Z" transform="translate(-35.68 -182.77)"/><path class="cls-1" d="M440.24,432.15c-6.35,11.67-13.73,21.7-27.17,25.39-2.82-6.19-1.53-9.09,4.09-11.24a41.46,41.46,0,0,0,9.95-5.6L413,444l0-.42Z" transform="translate(-35.68 -182.77)"/><path class="cls-1" d="M382.48,289.93l-3.07,17.85H377.8c-7.48-9.06-14.8-18.2-15.06-32C368.35,282.3,370.88,291.26,382.48,289.93Z" transform="translate(-35.68 -182.77)"/><path class="cls-1" d="M410.73,255.42l23.45,2.66q-7.51-4.17-15.12-8.37c13.74,0,28.78,11.85,33.72,27.83-11.29-14.23-26.71-17.64-42.25-20.78Z" transform="translate(-35.68 -182.77)"/><path class="cls-1" d="M385.89,349.75c-10.56,6.23-9.31,17.29-11.64,26.58-3-7.68-1.47-27.3,3.2-40.41Z" transform="translate(-35.68 -182.77)"/><path class="cls-1" d="M390.77,234.41l1.61,1.31c4.15,5.48,8.88,9.11,16.49,7,2.66-.75,5.8.26,8.87,1-8.52,1.15-15,4.62-17,11.87l-18.79-27.69Z" transform="translate(-35.68 -182.77)"/><path class="cls-1" d="M259.46,295.63h-19c.6-10,4.15-17.59,8.27-26.45.73,6.07.83,10.88,2,15.42,1.21,4.75,2.85,9.71,8.72,11Z" transform="translate(-35.68 -182.77)"/><path class="cls-1" d="M403,404.44c2.6,18.2,6.25,25.82,16.16,33.08-7.8,1.79-13.51-1.12-16.14-8.67C400.21,420.81,400.71,412.64,403,404.44Z" transform="translate(-35.68 -182.77)"/><path class="cls-1" d="M485.64,353.45l-11.3-7.7,4-1.06-7.06-4.88,2.12-1.41-8.82-6.61,4.88-.42c-2.88-2.13-5.17-3.83-7.58-5.6,6.27-.86,9.57,1.47,12.13,7.06,1.5,3.29,4.29,6,6.32,9.05,2.24,3.37,4.27,6.88,6.39,10.33Z" transform="translate(-35.68 -182.77)"/><path class="cls-1" d="M359.12,425.82c0-4.55.16-9.77-.09-15a15.2,15.2,0,0,0-1.79-6c-1.45-2.84-3.33-5.46-5.3-8.62l15.2,7.24C364.44,411,361.67,418.71,359.12,425.82Z" transform="translate(-35.68 -182.77)"/><path class="cls-1" d="M368.2,429.08c.75,17.55,2.16,23.15,9,35.58C365.92,462.68,361.36,444.58,368.2,429.08Z" transform="translate(-35.68 -182.77)"/><path class="cls-1" d="M430.94,269.53c5.58,4.15,6.84,9.87,7.29,16.17C425,283.14,413.54,274,412.68,264.54c4.7,9.71,13.35,12.42,22.82,16.95Z" transform="translate(-35.68 -182.77)"/><path class="cls-1" d="M417.9,429.9c-.59-15.16-2.18-22-16.22-35C417.52,400.4,425.28,417.12,417.9,429.9Z" transform="translate(-35.68 -182.77)"/><path class="cls-1" d="M477.52,360.48l-3-8.85c8.07,1.35,15,3.61,20.73,8.85Z" transform="translate(-35.68 -182.77)"/><path class="cls-1" d="M393.57,444.21,389,430.86l7.64,7.43,1.89,1.77,8.64,7.46c-5.59,3.2-9.65-.36-13.8-3.49Z" transform="translate(-35.68 -182.77)"/><path class="cls-1" d="M417.16,401.07c10.77,8.41,13.36,20.1,6.61,31.69C425.32,420.77,423.76,410.35,417.16,401.07Z" transform="translate(-35.68 -182.77)"/><path class="cls-1" d="M478.94,393.57l23.33-16.67C502,383.39,490.45,391.82,478.94,393.57Z" transform="translate(-35.68 -182.77)"/><path class="cls-1" d="M389.24,413.84c.7-4.36.94-8.88,2.4-13,.41-1.14,4.42-1,8-1.68l-9,14.72Z" transform="translate(-35.68 -182.77)"/><path class="cls-1" d="M395.92,413.51l-3,15.93-1,.59c-1-2.8-2.68-5.6-2.72-8.42C389.13,417.54,392,414.92,395.92,413.51Z" transform="translate(-35.68 -182.77)"/><path class="cls-1" d="M398.56,440.06l-1.89-1.77c-1.83-4.58-2.69-9.07,1.32-13.44,1.47,5.47,2.84,10.57,4.3,16Z" transform="translate(-35.68 -182.77)"/><path class="cls-1" d="M493.16,336.23l4.5,17.36C492.13,352.37,489.71,345.33,493.16,336.23Z" transform="translate(-35.68 -182.77)"/></g></svg>