<svg id="Layer_1" data-name="Layer 1" xmlns="http://www.w3.org/2000/svg" viewBox="0 0 933.32 933.32"><defs><style>.cls-1{fill:#fff;}.cls-1,.cls-3{stroke:#231f20;stroke-miterlimit:10;}.cls-2{fill:#231f20;}.cls-3{fill:none;}</style></defs><title>newtest</title><rect class="cls-1" x="0.5" y="0.5" width="932.32" height="932.32"/><rect class="cls-1" x="105.15" y="92.25" width="72" height="72"/><path class="cls-2" d="M174.14,203.12h0l-1.35.73-.21-.81,1.71-.91h.9v7.8h-1Z" transform="translate(-38.01 -33.85)"/><path class="cls-2" d="M179.51,202.49a.62.62,0,0,1-.67.65.63.63,0,0,1-.63-.65.64.64,0,0,1,.66-.66A.62.62,0,0,1,179.51,202.49Zm-1.17,7.44v-5.81h1v5.81Z" transform="translate(-38.01 -33.85)"/><path class="cls-2" d="M181.15,205.69c0-.6,0-1.09-.05-1.57H182l.06,1h0A2.14,2.14,0,0,1,184,204c.8,0,2.05.48,2.05,2.47v3.47H185v-3.35c0-.93-.35-1.71-1.34-1.71a1.5,1.5,0,0,0-1.42,1.08,1.75,1.75,0,0,0-.07.49v3.49h-1Z" transform="translate(-38.01 -33.85)"/><path class="cls-2" d="M221,159.34h0l-1.35.73-.21-.81,1.7-.91h.9v7.8h-1Z" transform="translate(-38.01 -33.85)"/><path class="cls-2" d="M226.38,158.71a.62.62,0,0,1-.67.65.63.63,0,0,1-.64-.65.65.65,0,0,1,.66-.66A.63.63,0,0,1,226.38,158.71Zm-1.17,7.44v-5.81h1v5.81Z" transform="translate(-38.01 -33.85)"/><path class="cls-2" d="M228,161.91c0-.6,0-1.09,0-1.57h.93l.06,1h0a2.14,2.14,0,0,1,1.92-1.09c.81,0,2,.48,2,2.47v3.47h-1V162.8c0-.93-.35-1.71-1.34-1.71a1.5,1.5,0,0,0-1.42,1.08,1.45,1.45,0,0,0-.07.49v3.49H228Z" transform="translate(-38.01 -33.85)"/><line class="cls-3" x1="838.44" y1="56.02" x2="865.29" y2="82.87"/><line class="cls-3" x1="865.29" y1="56.02" x2="838.44" y2="82.87"/><line class="cls-3" x1="726.53" y1="797.14" x2="753.38" y2="823.99"/><line class="cls-3" x1="753.38" y1="797.14" x2="726.53" y2="823.99"/><line class="cls-3" x1="80.95" y1="485.74" x2="107.79" y2="512.59"/><line class="cls-3" x1="107.79" y1="485.74" x2="80.95" y2="512.59"/><polygon class="cls-3" points="531.51 356.67 400.47 356.67 334.95 470.15 400.47 583.63 531.51 583.63 597.02 470.15 531.51 356.67"/><polygon class="cls-3" points="501.99 407.8 429.99 407.8 393.99 470.15 429.99 532.5 501.99 532.5 537.99 470.15 501.99 407.8"/><polygon class="cls-3" points="483.99 438.97 447.99 438.97 429.99 470.15 447.99 501.33 483.99 501.33 501.99 470.15 483.99 438.97"/></svg>