<svg id="Layer_1" data-name="Layer 1" xmlns="http://www.w3.org/2000/svg" viewBox="0 0 155.54 160.2"><defs><style>.cls-1{fill:#fff;stroke:#231f20;stroke-miterlimit:10;}</style></defs><title>one-line</title><path class="cls-1" d="M67.69,48.52C65.42,69.63,80.29,86.39,96.06,87c13.67.49,28.24-11.17,28.78-24.75.7-17.58-22.39-32.1-36-26.76-6.24,2.45-11,9.26-12.07,16.5a22,22,0,0,0,6.84,19.32c5.5,5,16.35,9.58,23.74,3.82,6.87-5.36,6.41-16.22,2.62-22.94C107,47,99.87,40.25,93.25,42.69c-6.4,2.35-9,12-6,18.71,2.11,4.8,7.91,10,13.28,8.25,4.35-1.4,6.43-6.66,6.44-10.67,0-4.54-2.61-11-7.45-11.26-4.19-.27-9,4.13-8.45,8.65.5,4.14,5.38,7.51,7.65,6.44,2.7-1.28,2.23-9.08.4-9.66-1.27-.41-4.15,2.4-3.82,4.22,1.11,6.16,40.66,12.26,48.49-2,5.62-10.24-6.66-28.13-18.31-37.22-17.79-13.88-49.95-19.58-70-.81C32.2,39.05,44.73,75.22,45.56,77.49c10.41,28.59,41.61,46.72,68.21,42.86,15.61-2.26,35.72-13,36.82-27.16.59-7.52-4.08-17.28-11.47-18.71-8.93-1.73-19.73,9.1-18.11,17.5,1.47,7.6,12.62,10.63,18.72,11.07,11.92.85,23.9-6.88,28.57-17.71,4.81-11.16,1.9-25.65-2.82-26.76-3.74-.87-9.95,6.36-12.27,13.88-5.65,18.35,14.48,29.82,10.86,45.88-3.48,15.43-26.58,24.88-43.06,26.36-21.8,2-41.25-9.21-59.55-19.72-19.87-11.41-26.11-19.63-31.79-16.7-8.18,4.21-9,28.23,3,42.45,12.67,15,39.65,19.18,53.73,5.64,14.4-13.86,9.13-40.31-2.42-53.93C68.35,84,45.27,93.91,28.66,77.09c-8.94-9-16-25.85-10.46-59.55" transform="translate(-15.73 -4.87)"/></svg>