<svg id="Layer_1" data-name="Layer 1" xmlns="http://www.w3.org/2000/svg" viewBox="0 0 145.15 125.86"><defs><style>.cls-1{fill:none;stroke:#231f20;stroke-miterlimit:10;}</style></defs><title>poly</title><polygon class="cls-1" points="108.58 0.58 36.58 0.58 0.58 62.93 36.58 125.28 108.58 125.28 144.58 62.93 108.58 0.58"/><polygon class="cls-1" points="18.58 31.75 18.58 94.11 72.58 125.28 126.58 94.11 126.58 31.75 72.58 0.58 18.58 31.75"/><polygon class="cls-1" points="45.58 109.7 99.58 109.7 126.58 62.93 99.58 16.17 45.58 16.17 18.58 62.93 45.58 109.7"/><polygon class="cls-1" points="112.9 86.21 112.9 39.65 72.58 16.37 32.26 39.65 32.26 86.21 72.58 109.49 112.9 86.21"/><polygon class="cls-1" points="52.42 97.85 92.74 97.85 112.9 62.93 92.74 28.01 52.42 28.01 32.26 62.93 52.42 97.85"/><polygon class="cls-1" points="102.82 80.39 102.82 45.47 72.58 28.01 42.34 45.47 42.34 80.39 72.58 97.85 102.82 80.39"/><polygon class="cls-1" points="57.46 89.12 87.7 89.12 102.82 62.93 87.7 36.74 57.46 36.74 42.34 62.93 57.46 89.12"/><polygon class="cls-1" points="95.26 76.03 95.26 49.84 72.58 36.74 49.9 49.84 49.9 76.03 72.58 89.12 95.26 76.03"/><polygon class="cls-1" points="61.24 82.57 83.92 82.57 95.26 62.93 83.92 43.29 61.24 43.29 49.9 62.93 61.24 82.57"/><polygon class="cls-1" points="89.5 72.7 89.5 53.16 72.58 43.39 55.66 53.16 55.66 72.7 72.58 82.47 89.5 72.7"/><polygon class="cls-1" points="64.12 77.58 81.04 77.58 89.5 62.93 81.04 48.28 64.12 48.28 55.66 62.93 64.12 77.58"/><polygon class="cls-1" points="85.18 70.21 85.18 55.66 72.58 48.38 59.98 55.66 59.98 70.21 72.58 77.48 85.18 70.21"/><polygon class="cls-1" points="66.28 73.84 78.88 73.84 85.18 62.93 78.88 52.02 66.28 52.02 59.98 62.93 66.28 73.84"/><polygon class="cls-1" points="81.94 68.33 81.94 57.53 72.58 52.12 63.22 57.53 63.22 68.33 72.58 73.74 81.94 68.33"/><polygon class="cls-1" points="67.9 71.04 77.26 71.04 81.94 62.93 77.26 54.83 67.9 54.83 63.22 62.93 67.9 71.04"/><polygon class="cls-1" points="79.55 66.95 79.55 58.91 72.58 54.88 65.61 58.91 65.61 66.95 72.58 70.98 79.55 66.95"/><polygon class="cls-1" points="69.09 68.97 76.06 68.97 79.55 62.93 76.06 56.9 69.09 56.9 65.61 62.93 69.09 68.97"/></svg>