<svg id="Layer_1" data-name="Layer 1" xmlns="http://www.w3.org/2000/svg" viewBox="0 0 146.15 139"><defs><style>.cls-1{fill:none;stroke:#231f20;stroke-miterlimit:10;}</style></defs><title>star</title><polygon class="cls-1" points="73.07 1.13 95.32 46.21 145.07 53.44 109.07 88.53 117.57 138.08 73.07 114.69 28.58 138.08 37.07 88.53 1.07 53.44 50.83 46.21 73.07 1.13"/><polygon class="cls-1" points="73.07 7.98 93.1 48.55 137.87 55.06 105.47 86.64 113.12 131.23 73.07 110.18 33.03 131.23 40.67 86.64 8.27 55.06 53.05 48.55 73.07 7.98"/><polygon class="cls-1" points="73.07 14.82 90.87 50.89 130.67 56.67 101.87 84.75 108.67 124.39 73.07 105.67 37.48 124.39 44.27 84.75 15.47 56.67 55.27 50.89 73.07 14.82"/><polygon class="cls-1" points="73.07 21.67 88.65 53.23 123.47 58.29 98.27 82.85 104.22 117.54 73.07 101.16 41.93 117.54 47.87 82.85 22.67 58.29 57.5 53.23 73.07 21.67"/><polygon class="cls-1" points="73.07 28.52 86.42 55.57 116.27 59.91 94.67 80.96 99.77 110.69 73.07 96.66 46.38 110.69 51.47 80.96 29.87 59.91 59.73 55.57 73.07 28.52"/><polygon class="cls-1" points="73.07 35.37 84.2 57.91 109.07 61.52 91.07 79.07 95.32 103.84 73.07 92.15 50.83 103.84 55.07 79.07 37.07 61.52 61.95 57.91 73.07 35.37"/><polygon class="cls-1" points="73.07 42.22 81.97 60.25 101.87 63.14 87.47 77.18 90.87 97 73.07 87.64 55.27 97 58.67 77.18 44.27 63.14 64.17 60.25 73.07 42.22"/><polygon class="cls-1" points="73.07 49.06 79.75 62.59 94.67 64.76 83.87 75.28 86.42 90.15 73.07 83.13 59.73 90.15 62.27 75.28 51.47 64.76 66.4 62.59 73.07 49.06"/><polygon class="cls-1" points="73.07 55.91 77.52 64.93 87.47 66.37 80.27 73.39 81.97 83.3 73.07 78.62 64.17 83.3 65.87 73.39 58.67 66.37 68.63 64.93 73.07 55.91"/></svg>