<svg id="Layer_1" data-name="Layer 1" xmlns="http://www.w3.org/2000/svg" viewBox="0 0 321.93 127.92"><defs><style>.cls-1{fill:none;stroke:#231f20;stroke-miterlimit:10;}</style></defs><title>swim</title><path class="cls-1" d="M62.55,115.61a18.35,18.35,0,0,0,9.29,2.62c5.3,0,8.39-2.8,8.39-6.85,0-3.75-2.14-5.89-7.56-8C66.12,101.09,62.08,97.69,62.08,92c0-6.25,5.18-10.9,13-10.9a18.22,18.22,0,0,1,8.87,2l-1.43,4.22a16,16,0,0,0-7.62-1.9c-5.47,0-7.56,3.27-7.56,6,0,3.75,2.45,5.6,8,7.74,6.79,2.62,10.24,5.89,10.24,11.79,0,6.19-4.58,11.54-14,11.54-3.87,0-8.09-1.13-10.24-2.56Z" transform="translate(-60.66 -79.16)"/><path class="cls-1" d="M94,93.11l3.81,14.64c.84,3.22,1.61,6.19,2.15,9.17h.17c.66-2.92,1.61-6,2.56-9.11l4.71-14.7h4.4l4.46,14.4c1.08,3.46,1.91,6.49,2.56,9.41H119a86.15,86.15,0,0,1,2.21-9.35l4.1-14.46h5.18l-9.28,28.81h-4.77l-4.4-13.75a95.36,95.36,0,0,1-2.56-9.47h-.12a84.68,84.68,0,0,1-2.62,9.53l-4.64,13.69H97.38L88.69,93.11Z" transform="translate(-60.66 -79.16)"/><path class="cls-1" d="M141.6,85a3.24,3.24,0,0,1-6.48,0,3.19,3.19,0,0,1,3.27-3.27A3.11,3.11,0,0,1,141.6,85Z" transform="translate(-60.66 -79.16)"/><rect class="cls-1" x="75.11" y="13.95" width="5.24" height="28.81"/><path class="cls-1" d="M149.7,100.91c0-3-.06-5.42-.24-7.8h4.59l.23,4.64h.18a9.94,9.94,0,0,1,9-5.3,8.53,8.53,0,0,1,8.16,5.78h.11A11.91,11.91,0,0,1,175,94.48a9.82,9.82,0,0,1,6.37-2c3.81,0,9.46,2.5,9.46,12.5v17h-5.12V105.61c0-5.54-2-8.87-6.25-8.87a6.79,6.79,0,0,0-6.19,4.76,8.62,8.62,0,0,0-.41,2.62v17.8h-5.12V104.66c0-4.59-2-7.92-6-7.92-3.27,0-5.65,2.62-6.48,5.24a7.17,7.17,0,0,0-.42,2.56v17.38H149.7Z" transform="translate(-60.66 -79.16)"/><path class="cls-1" d="M240.18,120.61a25.74,25.74,0,0,1-10.6,1.9c-11.31,0-19.82-7.14-19.82-20.29,0-12.56,8.51-21.08,21-21.08,5,0,8.15,1.08,9.52,1.79L239,87.16a18.73,18.73,0,0,0-8.1-1.67c-9.4,0-15.65,6-15.65,16.55,0,9.82,5.65,16.13,15.42,16.13a20.75,20.75,0,0,0,8.45-1.67Z" transform="translate(-60.66 -79.16)"/><rect class="cls-1" x="185.83" y="0.5" width="5.24" height="42.26"/><path class="cls-1" d="M284.65,114.06c0,3,.06,5.6.23,7.86h-4.64l-.3-4.7h-.12a10.82,10.82,0,0,1-9.52,5.35c-4.52,0-9.94-2.5-9.94-12.62V93.11h5.24v16c0,5.48,1.67,9.17,6.43,9.17a7.57,7.57,0,0,0,6.9-4.76,7.65,7.65,0,0,0,.48-2.68V93.11h5.24Z" transform="translate(-60.66 -79.16)"/><path class="cls-1" d="M293.1,121.92c.12-2,.24-4.88.24-7.44V79.66h5.18V97.75h.12c1.84-3.21,5.17-5.3,9.82-5.3,7.14,0,12.2,6,12.14,14.71,0,10.29-6.49,15.41-12.92,15.41-4.16,0-7.5-1.6-9.64-5.41h-.18l-.24,4.76Z" transform="translate(-60.66 -79.16)"/><path class="cls-1" d="M298.52,110.37a10.62,10.62,0,0,0,.23,1.91,8.09,8.09,0,0,0,7.86,6.13c5.48,0,8.75-4.47,8.75-11.07,0-5.78-3-10.72-8.57-10.72a8.36,8.36,0,0,0-8,6.43,11.08,11.08,0,0,0-.29,2.14Z" transform="translate(-60.66 -79.16)"/><path class="cls-1" d="M355.78,121.92l-.42-3.63h-.18a10.71,10.71,0,0,1-8.8,4.28c-5.84,0-8.81-4.1-8.81-8.27,0-7,6.19-10.77,17.32-10.71V103c0-2.38-.66-6.67-6.55-6.67a14.34,14.34,0,0,0-7.5,2.15L339.65,95a17.93,17.93,0,0,1,9.46-2.56c8.81,0,11,6,11,11.79V115a41.46,41.46,0,0,0,.47,6.91Z" transform="translate(-60.66 -79.16)"/><path class="cls-1" d="M355,107.22c-5.72-.12-12.21.89-12.21,6.48a4.64,4.64,0,0,0,4.94,5,7.17,7.17,0,0,0,7-4.82,5.39,5.39,0,0,0,.3-1.66Z" transform="translate(-60.66 -79.16)"/><path class="cls-1" d="M374.59,84.83v8.28h7.5v4h-7.5v15.53c0,3.57,1,5.6,3.93,5.6a11.63,11.63,0,0,0,3-.36l.23,3.93a12.75,12.75,0,0,1-4.64.71,7.24,7.24,0,0,1-5.65-2.2c-1.49-1.55-2-4.11-2-7.5V97.1H365v-4h4.46V86.2Z" transform="translate(-60.66 -79.16)"/><path class="cls-1" d="M63.27,153.77a49.84,49.84,0,0,1,9.46-.83c5.18,0,8.51.89,11,2.91a8.41,8.41,0,0,1,3.34,7.09c0,3.86-2.56,7.26-6.79,8.8v.12c3.81,1,8.27,4.11,8.27,10.06a10.8,10.8,0,0,1-3.39,8c-2.8,2.56-7.32,3.75-13.87,3.75a59.91,59.91,0,0,1-8-.48Z" transform="translate(-60.66 -79.16)"/><path class="cls-1" d="M68.45,170.2h4.7c5.47,0,8.69-2.86,8.69-6.73,0-4.7-3.57-6.55-8.81-6.55a22,22,0,0,0-4.58.36Z" transform="translate(-60.66 -79.16)"/><path class="cls-1" d="M68.45,189.42a27.41,27.41,0,0,0,4.34.24c5.36,0,10.3-2,10.3-7.8,0-5.47-4.7-7.73-10.36-7.73H68.45Z" transform="translate(-60.66 -79.16)"/><path class="cls-1" d="M98.51,179.9c.12,7.08,4.64,10,9.88,10a18.94,18.94,0,0,0,8-1.49l.9,3.75a23.24,23.24,0,0,1-9.59,1.79c-8.87,0-14.16-5.84-14.16-14.53s5.12-15.53,13.51-15.53c9.4,0,11.9,8.27,11.9,13.57a22.42,22.42,0,0,1-.17,2.44Z" transform="translate(-60.66 -79.16)"/><path class="cls-1" d="M113.86,176.15c.06-3.33-1.36-8.51-7.26-8.51-5.3,0-7.62,4.88-8,8.51Z" transform="translate(-60.66 -79.16)"/><path class="cls-1" d="M125.41,173.53c0-3.39-.06-6.31-.24-9h4.59l.18,5.66h.23c1.31-3.87,4.47-6.31,8-6.31a5.63,5.63,0,0,1,1.49.18V169a7.84,7.84,0,0,0-1.79-.18c-3.69,0-6.31,2.8-7,6.72a14.72,14.72,0,0,0-.24,2.44v15.36h-5.18Z" transform="translate(-60.66 -79.16)"/><path class="cls-1" d="M150.29,177.76h.12c.72-1,1.73-2.27,2.56-3.28l8.46-9.94h6.31L156.6,176.39l12.68,17h-6.37L153,179.54l-2.68,3v10.83h-5.17V151.09h5.17Z" transform="translate(-60.66 -79.16)"/><path class="cls-1" d="M176,179.9c.12,7.08,4.64,10,9.88,10a19,19,0,0,0,8-1.49l.89,3.75a23.18,23.18,0,0,1-9.58,1.79c-8.87,0-14.17-5.84-14.17-14.53s5.12-15.53,13.51-15.53c9.41,0,11.91,8.27,11.91,13.57a19.69,19.69,0,0,1-.18,2.44Z" transform="translate(-60.66 -79.16)"/><path class="cls-1" d="M191.31,176.15c.06-3.33-1.37-8.51-7.26-8.51-5.3,0-7.62,4.88-8,8.51Z" transform="translate(-60.66 -79.16)"/><rect class="cls-1" x="142.2" y="71.93" width="5.24" height="42.26"/><path class="cls-1" d="M219.82,179.9c.12,7.08,4.64,10,9.88,10a19,19,0,0,0,8-1.49l.89,3.75A23.18,23.18,0,0,1,229,194c-8.87,0-14.17-5.84-14.17-14.53s5.12-15.53,13.51-15.53c9.41,0,11.91,8.27,11.91,13.57a19.69,19.69,0,0,1-.18,2.44Z" transform="translate(-60.66 -79.16)"/><path class="cls-1" d="M235.18,176.15c.06-3.33-1.37-8.51-7.26-8.51-5.3,0-7.62,4.88-8,8.51Z" transform="translate(-60.66 -79.16)"/><path class="cls-1" d="M248.63,164.54l6.31,17c.66,1.9,1.37,4.16,1.85,5.89h.12c.53-1.73,1.13-3.93,1.84-6l5.72-16.91H270l-7.86,20.54c-3.75,9.88-6.31,14.94-9.88,18a14.17,14.17,0,0,1-6.43,3.4l-1.3-4.41a13.83,13.83,0,0,0,4.58-2.56,15.82,15.82,0,0,0,4.4-5.83,3.75,3.75,0,0,0,.42-1.25,4.56,4.56,0,0,0-.36-1.37l-10.65-26.55Z" transform="translate(-60.66 -79.16)"/></svg>