<svg id="Layer_1" data-name="Layer 1" xmlns="http://www.w3.org/2000/svg" viewBox="0 0 612 792"><defs><style>.cls-1{fill:none;stroke:#231f20;stroke-miterlimit:10;}</style></defs><title>text-2</title><path class="cls-1" d="M496.2,41.64l1.32.14c0,1.86,0,3.74,0,5.62,0,.54-.33,1.23.47,1.56a2.07,2.07,0,0,0,2.28-.24,3.22,3.22,0,0,0,.24-4.08c-.73-.7-1.26-.69-2.16,0a2.45,2.45,0,0,1-.6.25"/><path class="cls-1" d="M115.8,45.24c0-.69-.19-1.13-1.07-1.25s-1.41.12-1.62.68c-.13.33.33,1,.67,1.39a4.82,4.82,0,0,0,1.18.74c.62.39,1.09.84.73,1.68a1.2,1.2,0,0,1-1.45.7c-.69-.12-1.51-.23-1.32-1.3"/><path class="cls-1" d="M404.52,45.24c0-.69-.19-1.13-1.07-1.25s-1.41.12-1.62.68c-.13.33.33,1,.67,1.39a4.82,4.82,0,0,0,1.18.74c.62.39,1.09.84.73,1.68a1.2,1.2,0,0,1-1.45.7c-.69-.12-1.51-.23-1.32-1.3"/><path class="cls-1" d="M300.6,45a1.39,1.39,0,0,0-2.16-.84,1,1,0,0,0-.11,1.67,6.36,6.36,0,0,0,1.31.84c.66.34,1.34.77,1.16,1.56a1.42,1.42,0,0,1-1.64,1c-.91-.08-1.56-.48-1.44-1.55"/><path class="cls-1" d="M230.28,45a1.39,1.39,0,0,0-2.16-.84,1,1,0,0,0-.11,1.67,6.36,6.36,0,0,0,1.31.84c.66.34,1.34.77,1.16,1.56a1.42,1.42,0,0,1-1.64,1c-.91-.08-1.56-.48-1.44-1.55"/><path class="cls-1" d="M460.8,48.84c.84.08,1.68.22,2.52.22.58,0,1,.17,1.05.74A1.75,1.75,0,0,1,463.9,51a3.35,3.35,0,0,1-3.35.27c-.59-.35-.83-.76-.34-1.32a1.22,1.22,0,0,0,.29-1.47c-.12-.3.42-.86.66-1.3"/><path class="cls-1" d="M219.36,48.84c.84.08,1.68.22,2.52.22.58,0,1,.17,1.05.74a1.75,1.75,0,0,1-.47,1.18,3.35,3.35,0,0,1-3.35.27c-.59-.35-.83-.76-.34-1.32a1.22,1.22,0,0,0,.29-1.47c-.12-.3.42-.86.66-1.3"/><path class="cls-1" d="M159.84,44.52c-.12,0-.28,0-.35,0a1.56,1.56,0,0,0-2.3-.12,2.71,2.71,0,0,0-.91,2.76c.31,1.46,1.36,2.55,3.09,1.46.17-.1.47,0,.71,0a.47.47,0,0,1,0,.12.68.68,0,0,1-.12.12"/><path class="cls-1" d="M536.88,44.52c-.12,0-.28,0-.35,0a1.56,1.56,0,0,0-2.3-.12,2.71,2.71,0,0,0-.91,2.76c.31,1.46,1.36,2.55,3.09,1.46.17-.1.47,0,.71,0a.47.47,0,0,1,0,.12.68.68,0,0,1-.12.12"/><path class="cls-1" d="M64.44,63.24a17.35,17.35,0,0,1,2.28.15c.49.09,1.2,0,1.33.81a1.25,1.25,0,0,1-.87,1.39,8.11,8.11,0,0,1-2.74.25c-.37,0-1-.42-.7-1a5.18,5.18,0,0,0,.46-2.53"/><path class="cls-1" d="M355,44.88c-.48-.54-.84-1.12-1.81-.88s-1.32,1.08-1.65,1.85a3,3,0,0,0,1.18,2.87c.69.44,1.59.21,2.4-.6"/><path class="cls-1" d="M513.12,48.6V42.84c0-1.28,0-1.28-1.32-1.2"/><path class="cls-1" d="M47.76,48.6V42.84c0-1.28,0-1.28-1.32-1.2"/><path class="cls-1" d="M44.4,48.6V42.84c0-1.28,0-1.28-1.32-1.2"/><path class="cls-1" d="M185.64,49.08c-.91,0-1.17-.47-1.09-1.32s0-1.6,0-2.4a1.18,1.18,0,0,0-1.92-1.08c-.32.19-.64.4-1,.6"/><path class="cls-1" d="M421.08,44.88c-.93-1.26-2-1.3-2.88-.12a3.28,3.28,0,0,0-.36,3.12c.86,1.45,2.37,1.35,3.72-.24"/><path class="cls-1" d="M85.08,49.08a1,1,0,0,1-.86-1.2,23.52,23.52,0,0,0,0-2.52c0-1.2-.75-1.64-1.8-1.08-.4.21-.8.4-1.2.6"/><path class="cls-1" d="M502.68,44a1,1,0,0,1,.86,1.2,21.33,21.33,0,0,0,0,2.4c0,1.2.84,1.72,1.92,1.2.29-.14.56-.32.84-.48l.24.48"/><path class="cls-1" d="M558.12,45.24c.15-1-.58-1.32-1.32-1.27a1.7,1.7,0,0,0-1.27.81c-.29.71.26,1.2.9,1.55a6.46,6.46,0,0,1,1.44,1,1,1,0,0,1-.47,1.79,1.52,1.52,0,0,1-2.16-1.2"/><path class="cls-1" d="M393.48,45.24c.15-1-.58-1.32-1.32-1.27a1.7,1.7,0,0,0-1.27.81c-.29.71.26,1.2.9,1.55a6.46,6.46,0,0,1,1.44,1,1,1,0,0,1-.47,1.79,1.52,1.52,0,0,1-2.16-1.2"/><path class="cls-1" d="M328.2,48.84c-.12-.2-.34-.4-.34-.6,0-1,0-1.92,0-2.88,0-.53,0-1.06-.61-1.18a2.92,2.92,0,0,0-1.31.12,4.22,4.22,0,0,0-1,.58"/><path class="cls-1" d="M98.76,48.84c.12-.12.34-.24.34-.36a21.18,21.18,0,0,0,0-2.76c-.06-.58-.09-1.41-.83-1.51a4.16,4.16,0,0,0-1.67.44,5.3,5.3,0,0,0-.72.35"/><path class="cls-1" d="M385.32,48.84c-.12-.2-.34-.4-.34-.6,0-1,0-1.92,0-2.88,0-.53,0-1.06-.61-1.18a2.92,2.92,0,0,0-1.31.12,4.22,4.22,0,0,0-1,.58"/><path class="cls-1" d="M448.68,48.84c-.12-.2-.34-.4-.34-.6,0-1,0-1.92,0-2.88,0-.53,0-1.06-.61-1.18a2.92,2.92,0,0,0-1.31.12,4.22,4.22,0,0,0-1,.58"/><path class="cls-1" d="M166.68,41.64c-.48.16-.49.52-.49,1,0,2,0,4,0,6"/><path class="cls-1" d="M123,41.64c-.16.28-.45.56-.46.84,0,1.52,0,3,0,4.56a12,12,0,0,1-.23,1.56"/><path class="cls-1" d="M491.4,41.64c-.48.16-.49.52-.49,1,0,2,0,4,0,6"/><path class="cls-1" d="M475.8,48.84c.12-.12.34-.24.34-.36a23.25,23.25,0,0,0,0-2.64c-.05-.63-.05-1.49-.83-1.63-.51-.1-1.11.26-1.67.43-.2.06-.4.16-.6.24"/><path class="cls-1" d="M112.08,55.56a7.25,7.25,0,0,0-.23,1.2c0,1.88,0,3.76,0,5.64a2.48,2.48,0,0,1-.34.84"/><path class="cls-1" d="M133.32,44.16c-.88-.54-1.55-.16-2.16.48a3,3,0,0,0-.37,3c.45.94,1.12,1.5,2.16,1.17a5.25,5.25,0,0,0,1.33-.93"/><path class="cls-1" d="M365.64,44.16c-.88-.54-1.55-.16-2.16.48a3,3,0,0,0-.37,3c.45.94,1.12,1.5,2.16,1.17a5.25,5.25,0,0,0,1.33-.93"/><path class="cls-1" d="M115.44,55.56a7.25,7.25,0,0,0-.23,1.2c0,1.88,0,3.76,0,5.64a2.48,2.48,0,0,1-.34.84"/><path class="cls-1" d="M340.32,48.6c0-1,0-1.92,0-2.88,0-1.57-1-2.1-2.28-1.32l-.84.48"/><path class="cls-1" d="M181.44,48.6c0-1,0-1.92,0-2.88a1.4,1.4,0,0,0-.75-1.51c-.42-.15-1,.17-1.54.32-.21.06-.39.3-.6.34-.52.08-.63-.15-.36-.59"/><path class="cls-1" d="M66.24,48.6c0-1,0-1.92,0-2.88,0-.68-.16-1.36-.85-1.52a2.54,2.54,0,0,0-1.54.34c-.82.44-.79.5-.85-.26"/><path class="cls-1" d="M242.16,48.6c0-1,0-1.92,0-2.88,0-.68-.16-1.36-.85-1.52a2.54,2.54,0,0,0-1.54.34c-.82.44-.79.5-.85-.26"/><path class="cls-1" d="M216.24,48.6c0-1,0-2,0-3,0-.65-.15-1.24-.74-1.4a3.15,3.15,0,0,0-1.43.33,6.78,6.78,0,0,0-.84.35"/><path class="cls-1" d="M457.68,48.6c0-1,0-2,0-3,0-.65-.15-1.24-.74-1.4a3.15,3.15,0,0,0-1.43.33,6.78,6.78,0,0,0-.84.35"/><path class="cls-1" d="M69.36,48.6c0-.92,0-1.84,0-2.76,0-.69,0-1.44-.74-1.64a3.34,3.34,0,0,0-1.55.33,2.84,2.84,0,0,0-.6.35"/><path class="cls-1" d="M245.28,48.6c0-.92,0-1.84,0-2.76,0-.69,0-1.44-.74-1.64a3.34,3.34,0,0,0-1.55.33,2.84,2.84,0,0,0-.6.35"/><path class="cls-1" d="M436.08,41.16a7.25,7.25,0,0,0-.23,1.2c0,2.08,0,4.16,0,6.24"/><path class="cls-1" d="M89.52,46.08a2.84,2.84,0,0,0-2.62,1.33,1.2,1.2,0,0,0-.1,1.05,1,1,0,0,0,1.28.5c.47-.21,1-.4,1.44-.6"/><path class="cls-1" d="M128.16,46.08a2.84,2.84,0,0,0-2.62,1.33,1.2,1.2,0,0,0-.1,1.05,1,1,0,0,0,1.28.5c.47-.21,1-.4,1.44-.6"/><path class="cls-1" d="M147.84,46.08a2.84,2.84,0,0,0-2.62,1.33,1.2,1.2,0,0,0-.1,1.05,1,1,0,0,0,1.28.5c.47-.21,1-.4,1.44-.6"/><path class="cls-1" d="M524.88,46.08a2.84,2.84,0,0,0-2.62,1.33,1.2,1.2,0,0,0-.1,1.05,1,1,0,0,0,1.28.5c.47-.21,1-.4,1.44-.6"/><path class="cls-1" d="M376.8,41.88c0,2.16,0,4.32,0,6.48,0,.16.22.32.34.48"/><path class="cls-1" d="M262.56,45.36c-.37-1-1.13-1.57-1.8-1.44a2.35,2.35,0,0,0-1.65,2.4,4.4,4.4,0,0,0,.59,1.79c.62,1,1.74,1.14,2.85.24a4.65,4.65,0,0,0,.61-.71"/><path class="cls-1" d="M109,59.76c-.37-1-1.13-1.57-1.8-1.44a2.35,2.35,0,0,0-1.65,2.4,4.4,4.4,0,0,0,.59,1.79c.62,1,1.74,1.14,2.85.24a4.65,4.65,0,0,0,.61-.71"/><path class="cls-1" d="M295.92,45.36c-.37-1-1.13-1.57-1.8-1.44a2.35,2.35,0,0,0-1.65,2.4,4.4,4.4,0,0,0,.59,1.79c.62,1,1.74,1.14,2.85.24a4.65,4.65,0,0,0,.61-.71"/><path class="cls-1" d="M289.68,44.28c0,1.16,0,2.32,0,3.48s.42,1.4,1.56,1.08"/><path class="cls-1" d="M469.44,44.28c0,1.16,0,2.32,0,3.48s.42,1.4,1.56,1.08"/><path class="cls-1" d="M484.08,44.28c0,1.16,0,2.32,0,3.48s.42,1.4,1.56,1.08"/><path class="cls-1" d="M321.36,44.28c0,1.16,0,2.32,0,3.48s.42,1.4,1.56,1.08"/><path class="cls-1" d="M194.88,49.08c.09-1.33-.71-2.35-1.15-3.5-.3-.75-.34-1.52-1.37-1.54"/><path class="cls-1" d="M34.56,63.48c.09-1.33-.71-2.35-1.15-3.5-.3-.75-.34-1.52-1.37-1.54"/><path class="cls-1" d="M104.64,45.3c-.39-.74-.81-1.46-1.8-1.37a2,2,0,0,0-1.67,2,3.8,3.8,0,0,0,.13,1.55c.71,1.72,2.26,1.86,3.7.37"/><path class="cls-1" d="M221.88,44.64A4.93,4.93,0,0,0,220.2,44c-.8,0-1.28,1.11-1.08,2.11a1.68,1.68,0,0,0,1.8,1.2,1.54,1.54,0,0,0,1.08-2l-.12-.48"/><path class="cls-1" d="M463.32,44.64a4.93,4.93,0,0,0-1.68-.67c-.8,0-1.28,1.11-1.08,2.11a1.68,1.68,0,0,0,1.8,1.2,1.54,1.54,0,0,0,1.08-2l-.12-.48"/><path class="cls-1" d="M67,59c-1.42-.94-2.37-.81-2.76.36a1.7,1.7,0,0,0,2.26,2.12,1.41,1.41,0,0,0,.62-1.76,5.79,5.79,0,0,1-.12-.6"/><path class="cls-1" d="M516.48,42.6a25.34,25.34,0,0,0-.22,5.64c0,.84.46.93,1.54.36"/><path class="cls-1" d="M277.68,42.6a25.34,25.34,0,0,0-.22,5.64c0,.84.46.93,1.54.36"/><path class="cls-1" d="M506.64,48.36c0-1-.05-2,0-3s-.19-1.33-1.1-1.32"/><path class="cls-1" d="M303.36,42.6a25.34,25.34,0,0,0-.22,5.64c0,.84.46.93,1.54.36"/><path class="cls-1" d="M546.48,42.6a25.34,25.34,0,0,0-.22,5.64c0,.84.46.93,1.54.36"/><path class="cls-1" d="M41.88,45.48a3.53,3.53,0,0,0-.36-.48c-.43-.37-.86-1-1.32-1a2.23,2.23,0,0,0-1.53.79,3.37,3.37,0,0,0,0,3.34c.71,1,2.06,1,3.24,0"/><path class="cls-1" d="M206.76,42.6c-.73,1.14-.25,2.4-.35,3.6,0,.48,0,1,0,1.44,0,1.38.55,1.67,1.8,1"/><path class="cls-1" d="M413.64,48.84c-1.22.22-1.29.17-1.32-1,0-.8,0-1.6,0-2.4,0-1.13-.31-1.53-1.2-1.56s-1.4.44-1.44,1.56"/><path class="cls-1" d="M82.2,59.88a3.53,3.53,0,0,0-.36-.48c-.43-.37-.86-1-1.32-1a2.23,2.23,0,0,0-1.53.79,3.37,3.37,0,0,0,0,3.34c.71,1,2.06,1,3.24,0"/><path class="cls-1" d="M176.52,48.84c-1.22.22-1.29.17-1.32-1,0-.8,0-1.6,0-2.4,0-1.13-.31-1.53-1.2-1.56s-1.4.44-1.44,1.56"/><path class="cls-1" d="M356.52,44.28c.85.22,1.68.81,2.56-.08.16-.16.94.08,1.26.35.58.49.53,3.54,0,4.29"/><path class="cls-1" d="M442.2,42.6c-.73,1.14-.25,2.4-.35,3.6,0,.48,0,1,0,1.44,0,1.38.55,1.67,1.8,1"/><path class="cls-1" d="M149.88,44.28c.85.22,1.68.81,2.56-.08.16-.16.94.08,1.26.35.58.49.53,3.54,0,4.29"/><path class="cls-1" d="M526.92,44.28c.85.22,1.68.81,2.56-.08.16-.16.94.08,1.26.35.58.49.53,3.54,0,4.29"/><path class="cls-1" d="M251.16,45.48a3.53,3.53,0,0,0-.36-.48c-.43-.37-.86-1-1.32-1a2.23,2.23,0,0,0-1.53.79,3.37,3.37,0,0,0,0,3.34c.71,1,2.06,1,3.24,0"/><path class="cls-1" d="M57.24,58.68c.85.22,1.68.81,2.56-.08.16-.16.94.08,1.26.35.58.49.53,3.54,0,4.29"/><path class="cls-1" d="M92.64,44.88c0,1,0,1.92,0,2.88s-.19,1.33-1.1,1.32"/><path class="cls-1" d="M333.84,44.88c0,1,0,1.92,0,2.88s-.19,1.33-1.1,1.32"/><path class="cls-1" d="M256.44,44.16c0,1.24-.13,2.48-.1,3.72,0,.91.48,1.15,1.54,1"/><path class="cls-1" d="M30,58.86c.52,1.18,1.07,2.35,1.54,3.55a3.18,3.18,0,0,1,0,1.07"/><path class="cls-1" d="M190.32,44.46c.52,1.18,1.07,2.35,1.54,3.55a3.18,3.18,0,0,1,0,1.07"/><path class="cls-1" d="M81.24,44.28c0,1.36-.14,2.72-.07,4.08,0,.25.67.48,1,.72"/><path class="cls-1" d="M178.08,45c0,.92,0,1.84,0,2.76s.19,1.33,1.1,1.32"/><path class="cls-1" d="M271.08,44.16c0,1.24-.13,2.48-.1,3.72,0,.91.48,1.15,1.54,1"/><path class="cls-1" d="M347.16,44a3.48,3.48,0,0,0-.7.85c-.37.9-.64,1.84-1,2.74-.08.21-.38.33-.58.49"/><path class="cls-1" d="M76.2,44a3.48,3.48,0,0,0-.7.85c-.37.9-.64,1.84-1,2.74-.08.21-.38.33-.58.49"/><path class="cls-1" d="M92.52,58.44a3.48,3.48,0,0,0-.7.85c-.37.9-.64,1.84-1,2.74-.08.21-.38.33-.58.49"/><path class="cls-1" d="M149.16,48.84c-.77.25-1.24.21-1.1-.84a14.14,14.14,0,0,0,0-2.52,1.46,1.46,0,0,0-1.31-1.54A1.26,1.26,0,0,0,145.2,45"/><path class="cls-1" d="M129.48,48.84c-.77.25-1.24.21-1.1-.84a14.14,14.14,0,0,0,0-2.52,1.46,1.46,0,0,0-1.31-1.54A1.26,1.26,0,0,0,125.52,45"/><path class="cls-1" d="M90.84,48.84c-.77.25-1.24.21-1.1-.84a14.14,14.14,0,0,0,0-2.52,1.46,1.46,0,0,0-1.31-1.54A1.26,1.26,0,0,0,86.88,45"/><path class="cls-1" d="M482.52,48.84c-.81.3-1.18.11-1.1-.84a17,17,0,0,0,0-2.76A1.25,1.25,0,0,0,480,43.93c-.78.06-1.49.26-1.32,1.31"/><path class="cls-1" d="M62.88,45c0,1,.06,1.92,0,2.88-.06.71.19,1.07.86,1.2"/><path class="cls-1" d="M526.2,48.84c-.77.25-1.24.21-1.1-.84a14.14,14.14,0,0,0,0-2.52,1.46,1.46,0,0,0-1.31-1.54A1.26,1.26,0,0,0,522.24,45"/><path class="cls-1" d="M238.8,45c0,1,.06,1.92,0,2.88-.06.71.19,1.07.86,1.2"/><path class="cls-1" d="M35.28,45.24l-4.56-.12"/><path class="cls-1" d="M72.36,58.44c.85.18,1,.88,1.33,1.55.35.83.79,1.61,1.19,2.41"/><path class="cls-1" d="M316.2,44c-.58.08-.43.63-.64.93-.65,1-.52,2.32-1.62,3.06-.16.12,0,.69,0,1"/><path class="cls-1" d="M308.52,44a1.48,1.48,0,0,1,1.12,1.19,19.49,19.49,0,0,0,.9,2.06,11.86,11.86,0,0,1,.38,1.79"/><path class="cls-1" d="M54.36,58.68c.56.14.92.37.86,1.08-.08,1,0,1.92,0,2.88,0,.2-.22.4-.34.6"/><path class="cls-1" d="M202.68,44.28c.56.14.92.37.86,1.08-.08,1,0,1.92,0,2.88,0,.2-.22.4-.34.6"/><path class="cls-1" d="M210,44.64c0,1.16,0,2.32,0,3.48,0,.24.22.48.34.72"/><path class="cls-1" d="M388.08,44.64c0,1.16,0,2.32,0,3.48,0,.24.22.48.34.72"/><path class="cls-1" d="M451.44,44.64c0,1.16,0,2.32,0,3.48,0,.24.22.48.34.72"/><path class="cls-1" d="M509.76,44.64c0,1.16,0,2.32,0,3.48,0,.24.22.48.34.72"/><path class="cls-1" d="M552.72,44.64c0,1.16,0,2.32,0,3.48,0,.24.22.48.34.72"/><path class="cls-1" d="M380,43.08l-.21-1.44h-6.06l-.21,1.44"/><path class="cls-1" d="M317.64,44.28c.56.14.92.37.86,1.08-.08,1,0,1.92,0,2.88,0,.2-.22.4-.34.6"/><path class="cls-1" d="M175.08,46a16.14,16.14,0,0,0-2.37,1.24,1.3,1.3,0,0,0-.22,1.24,2.23,2.23,0,0,0,1.39.49c.35,0,.72-.29,1.08-.45"/><path class="cls-1" d="M412.2,46a16.14,16.14,0,0,0-2.37,1.24,1.3,1.3,0,0,0-.22,1.24,2.23,2.23,0,0,0,1.39.49c.35,0,.72-.29,1.08-.45"/><path class="cls-1" d="M77.16,58.44c-.2.12-.5.19-.58.37-.59,1.26-1.16,2.54-1.69,3.84a2.55,2.55,0,0,0,0,.83"/><path class="cls-1" d="M96.6,58.44a1.27,1.27,0,0,1,1,1c.32,1,.82,1.84,1.16,2.78a5.11,5.11,0,0,1,.14,1.31"/><path class="cls-1" d="M35.88,58.44c.2.16.6.41.57.47-.52,1.17-1.09,2.33-1.65,3.49"/><path class="cls-1" d="M136.8,41.16a7.25,7.25,0,0,0-.23,1.2c0,1.8,0,3.6,0,5.4,0,.85-.19,1.33-1.1,1.32"/><path class="cls-1" d="M49.2,55.56c-.08,1.56-.18,3.12-.23,4.68,0,.88,0,1.76,0,2.64,0,.12-.22.24-.34.36"/><path class="cls-1" d="M196.2,44c.2.16.6.41.57.47-.52,1.17-1.09,2.33-1.65,3.49"/><path class="cls-1" d="M71.88,44.28c.68,1.36,1.4,2.7,2,4.09a3.38,3.38,0,0,1-1.19,2.84,2.68,2.68,0,0,1-1.07-.09"/><path class="cls-1" d="M342.84,44.28c.68,1.36,1.4,2.7,2,4.09a3.38,3.38,0,0,1-1.19,2.84,2.68,2.68,0,0,1-1.07-.09"/><path class="cls-1" d="M324.72,48.6c0-2-.06-3.92,0-5.88,0-.91-.21-1.25-1.1-1.08"/><path class="cls-1" d="M381.84,48.6c0-2-.06-3.92,0-5.88,0-.91-.21-1.25-1.1-1.08"/><path class="cls-1" d="M445.2,48.6c0-2-.06-3.92,0-5.88,0-.91-.21-1.25-1.1-1.08"/><path class="cls-1" d="M473.16,48.84a2.48,2.48,0,0,1-.34-.84c0-1.76-.08-3.52,0-5.28.05-.91-.21-1.25-1.1-1.08"/><path class="cls-1" d="M88.2,58.68c.68,1.36,1.4,2.7,2,4.09A3.38,3.38,0,0,1,89,65.61,2.68,2.68,0,0,1,88,65.52"/><path class="cls-1" d="M334,44.28c-.18.29-.26.6.24.46s.79-.42,1.2-.57A1.13,1.13,0,0,1,337,45.36c0,1,0,1.92,0,2.88,0,.2.22.4.34.6"/><path class="cls-1" d="M528,44.88c0,1.08,0,2.16,0,3.24,0,.24-.22.48-.34.72"/><path class="cls-1" d="M104.28,58.44c-1,.52-.88,1.6-1.32,2.4-.26.47-.48,1-.72,1.44"/><path class="cls-1" d="M357.6,44.88c0,1.08,0,2.16,0,3.24,0,.24-.22.48-.34.72"/><path class="cls-1" d="M58.32,59.28c0,1.08,0,2.16,0,3.24,0,.24-.22.48-.34.72"/><path class="cls-1" d="M151,44.88c0,1.08,0,2.16,0,3.24,0,.24-.22.48-.34.72"/><path class="cls-1" d="M399.12,44.64v4"/><path class="cls-1" d="M110.4,44.64v4"/><path class="cls-1" d="M543.12,44.64v4"/><path class="cls-1" d="M85.32,59.16a1,1,0,0,0-.86,1.2c.07.8,0,1.6,0,2.4,0,.16.22.32.34.48"/><path class="cls-1" d="M160.32,41.16c-.08,1.28-.17,2.56-.24,3.84-.05,1.12-.08,2.24-.12,3.36"/><path class="cls-1" d="M537.36,41.16c-.08,1.28-.17,2.56-.24,3.84,0,1.12-.08,2.24-.12,3.36"/><path class="cls-1" d="M49.2,60.6c.77-.12,1.06.46,1.45.95.67.85,1.13,2,2.51,1.93"/><path class="cls-1" d="M313.8,47.88c-.44-1-.87-2.08-1.33-3.12a2.26,2.26,0,0,0-.35-.48"/><path class="cls-1" d="M140.28,44c-1.27,0-1.8,1-2.51,1.81a.47.47,0,0,0,0,.46c.81,1.13,1.3,2.6,3,2.77"/><path class="cls-1" d="M44.88,59.4V63"/><path class="cls-1" d="M453.48,44.28l1.08.15V48.6"/><path class="cls-1" d="M212,44.28l1.08.15V48.6"/><path class="cls-1" d="M199.2,45v3.6"/><path class="cls-1" d="M481.32,46A3.1,3.1,0,0,0,479,47.07a1.8,1.8,0,0,0-.34,1.51c.2.53.82.57,1.4.27a6.59,6.59,0,0,1,1.19-.37"/><path class="cls-1" d="M92.52,44.52c.36,0,.79.13,1.07,0,1.44-.77,2.16-.38,2.17,1.22V48.6"/><path class="cls-1" d="M30.6,41.88V48.6"/><path class="cls-1" d="M35.52,42c0,2.12,0,4.24,0,6.36,0,.16.22.32.34.48"/><path class="cls-1" d="M265.08,44.28,267.6,48c.38.56.78,1.1,1.56,1.08"/><path class="cls-1" d="M266.64,46.56c-.48.56-.94,1.14-1.45,1.67a8.87,8.87,0,0,1-1.07.85"/><path class="cls-1" d="M52.68,58.44c-1.44.06-2,1.2-2.76,2.16"/><path class="cls-1" d="M41.16,45.6l-2.76.12"/><path class="cls-1" d="M250.44,45.6l-2.76.12"/><path class="cls-1" d="M259.44,45.72l2.76-.12"/><path class="cls-1" d="M292.8,45.72l2.76-.12"/><path class="cls-1" d="M105.84,60.12,108.6,60"/><path class="cls-1" d="M81.48,60l-2.76.12"/><path class="cls-1" d="M100.68,60.12l-.72,1-1,1.2"/><path class="cls-1" d="M104,45.6l-2.64.24"/><path class="cls-1" d="M100.2,58.68c.65,1.57,1.6,3,1.68,4.8"/><path class="cls-1" d="M312.48,45.84,311,48"/><path class="cls-1" d="M120.48,48.6a1,1,0,0,0,1.68.24"/><path class="cls-1" d="M193.32,45.84l-1,1.92"/><path class="cls-1" d="M33,60.24l-1,1.92"/><path class="cls-1" d="M46.68,58.68c-.65-.31-.8.42-1.21.57s-.85.06-.47-.57"/><path class="cls-1" d="M268.68,44c-1.08-.22-1,1-1.67,1.33-.16.09-.25.31-.37.47"/><path class="cls-1" d="M201,44.28l-.84.24-1,.24"/><path class="cls-1" d="M279,44h-2.64"/><path class="cls-1" d="M517.8,44h-2.64"/><path class="cls-1" d="M208,44h-2.64"/><path class="cls-1" d="M547.8,44h-2.64"/><path class="cls-1" d="M37.08,41.4a4.52,4.52,0,0,1-3.12,0"/><path class="cls-1" d="M304.68,44H302"/><path class="cls-1" d="M443.4,44h-2.64"/><path class="cls-1" d="M257.88,44h-2.4"/><path class="cls-1" d="M272.52,44h-2.4"/><path class="cls-1" d="M322.92,44h-2.64"/><path class="cls-1" d="M291.24,44H288.6"/><path class="cls-1" d="M471,44h-2.64"/><path class="cls-1" d="M271.32,42.6,271,43.92"/><path class="cls-1" d="M485.64,44H483"/><path class="cls-1" d="M256.68,42.6l-.36,1.32"/><path class="cls-1" d="M32,41.4l-1.2.36"/><path class="cls-1" d="M490.68,41.76l-1.2-.36"/><path class="cls-1" d="M30.36,41.76l-1.2-.36"/><path class="cls-1" d="M167.64,49.08l-1.2-.36"/><path class="cls-1" d="M166,41.76l-1.2-.36"/><path class="cls-1" d="M492.36,49.08l-1.2-.36"/><path class="cls-1" d="M30.36,48.72l-1.2.36"/><path class="cls-1" d="M122.28,41.76l-1.2-.36"/><path class="cls-1" d="M32,49.08l-1.2-.36"/><path class="cls-1" d="M45.48,49.08a2.41,2.41,0,0,0-2.16,0"/><path class="cls-1" d="M136.32,41.76l-1.08-.12"/><path class="cls-1" d="M514.2,49.08a2.41,2.41,0,0,0-2.16,0"/><path class="cls-1" d="M159.84,41.76l-1.08-.12"/><path class="cls-1" d="M96.84,49.08a2.41,2.41,0,0,0-2.16,0"/><path class="cls-1" d="M435.6,41.76l-1.08-.12"/><path class="cls-1" d="M544.2,49.08a2.41,2.41,0,0,0-2.16,0"/><path class="cls-1" d="M111.48,49.08a2.41,2.41,0,0,0-2.16,0"/><path class="cls-1" d="M536.88,41.76l-1.08-.12"/><path class="cls-1" d="M115,56.16,113.88,56"/><path class="cls-1" d="M182.52,49.08a2.41,2.41,0,0,0-2.16,0"/><path class="cls-1" d="M48.84,49.08a2.41,2.41,0,0,0-2.16,0"/><path class="cls-1" d="M436.92,49.08a2.41,2.41,0,0,0-2.16,0"/><path class="cls-1" d="M200.28,49.08a2.41,2.41,0,0,0-2.16,0"/><path class="cls-1" d="M400.2,49.08a2.41,2.41,0,0,0-2.16,0"/><path class="cls-1" d="M111.6,56.16,110.52,56"/><path class="cls-1" d="M70.44,49.08a2.41,2.41,0,0,0-2.16,0"/><path class="cls-1" d="M246.36,49.08a2.41,2.41,0,0,0-2.16,0"/><path class="cls-1" d="M341.4,49.08a2.41,2.41,0,0,0-2.16,0"/><path class="cls-1" d="M48.72,56.16,47.64,56"/><path class="cls-1" d="M46,63.48a2.41,2.41,0,0,0-2.16,0"/><path class="cls-1" d="M166,48.72l-1,.36"/><path class="cls-1" d="M124.2,41.4l-1,.12"/><path class="cls-1" d="M323.88,49.08c.64-.58,1.28-.12,1.92,0"/><path class="cls-1" d="M507.72,48.84l-1-.24"/><path class="cls-1" d="M167.88,41.4l-1,.12"/><path class="cls-1" d="M492.6,41.4l-1,.12"/><path class="cls-1" d="M381,49.08c.64-.58,1.28-.12,1.92,0"/><path class="cls-1" d="M490.68,48.72l-1,.36"/><path class="cls-1" d="M444.36,49.08c.64-.58,1.28-.12,1.92,0"/><path class="cls-1" d="M455.4,49.08a1.35,1.35,0,0,0-1.68,0"/><path class="cls-1" d="M458.52,49.08a1.35,1.35,0,0,0-1.68,0"/><path class="cls-1" d="M214,49.08a1.35,1.35,0,0,0-1.68,0"/><path class="cls-1" d="M217.08,49.08a1.35,1.35,0,0,0-1.68,0"/><path class="cls-1" d="M430.8,43.92c-2.47.59-2.32,3.6-.84,4.8a1.92,1.92,0,0,0,3-.6,2.86,2.86,0,0,0-2-4.2"/><path class="cls-1" d="M424.8,43.92c-2.47.59-2.32,3.6-.84,4.8a1.92,1.92,0,0,0,3-.6,2.86,2.86,0,0,0-2-4.2"/><path class="cls-1" d="M282,43.92a2.87,2.87,0,0,0-1,4.68,1.92,1.92,0,0,0,3.12-.48,2.78,2.78,0,0,0-2-4.2"/><path class="cls-1" d="M234,43.92a2.87,2.87,0,0,0-1,4.68,1.92,1.92,0,0,0,3.12-.48,2.78,2.78,0,0,0-2-4.2"/><path class="cls-1" d="M52.08,43.92a2.87,2.87,0,0,0-1,4.68,1.92,1.92,0,0,0,3.12-.48,2.78,2.78,0,0,0-2-4.2"/><path class="cls-1" d="M40.08,58.32a2.87,2.87,0,0,0-1,4.68,1.92,1.92,0,0,0,3.12-.48,2.78,2.78,0,0,0-2-4.2"/></svg>