<svg id="Layer_1" data-name="Layer 1" xmlns="http://www.w3.org/2000/svg" viewBox="0 0 150.15 201.18"><defs><style>.cls-1{fill:#fff;}</style></defs><title>trixie-large</title><path d="M207.57,249.86H96.15a16.44,16.44,0,0,0,.89-2.58c.26-1.52.35-3.07.5-4.61.07-.7.1-1.4.14-2.1a2.16,2.16,0,0,0,0-.67,15.64,15.64,0,0,1-.39-6.09c0-.58.11-1.16.15-1.74A42.32,42.32,0,0,1,101,219c.47-1.12.39-1.23-.57-2-1.72-1.35-3.39-2.79-5.09-4.18-.37-.3-.81-.52-1.17-.83-.2-.17-.46-.52-.39-.68a1.29,1.29,0,0,1,.69-.77,1.42,1.42,0,0,1,1.52.61,5.79,5.79,0,0,0,1.31,1c.59.39,1.22.71,1.8,1.1,1,.71,2,1.46,3.06,2.2,1.2.88,2.42,1.74,3.6,2.65a8.35,8.35,0,0,0,6.21,1.72c2.26-.26,4.45-1,6.7-1.32a12.86,12.86,0,0,0,4.8-1.8,15.91,15.91,0,0,0,5.82-5.73,27.54,27.54,0,0,1,2.59-3.25,7.57,7.57,0,0,0,.89-1.31,5.07,5.07,0,0,1,2.62-2.89c.23-.09.39-.38.56-.6s.52-.71.81-1.11c.45.74.36,1.23-.22,1.62a1.39,1.39,0,0,0-.37,1.86,1.21,1.21,0,0,0,1.67.59,3,3,0,0,0,1.92-1.6,1.54,1.54,0,0,0,.1-.87c-.27-1.15-.64-2.27-.89-3.42a2.43,2.43,0,0,1,1.19-2.84c.47-.26.68-.13.68.37,0,1.06,0,2.13,0,3.19,0,.91.1,1.82.21,2.72,0,.22.29.57.47.59,1.7.21,3.37.17,4.68-1.14a4.15,4.15,0,0,0,.79-1.43,1,1,0,0,1,1.05-.8,6.17,6.17,0,0,0,4.31-1.94,2.73,2.73,0,0,0,.5-2.46c-.21-1-.63-1.95-.86-2.94-.47-2-2-3.19-3.41-4.43-.73-.64-1.3-.41-1.58.52-.22.7-.34,1.42-.58,2.11-.07.21-.39.49-.57.47a.82.82,0,0,1-.54-.53,3.3,3.3,0,0,1,.13-1.67,11.42,11.42,0,0,1,1.5-1.78c.16-.19.4-.4.41-.61.09-1.68,1.22-2.83,2.14-4,2-2.64,4.12-5.19,6.19-7.78.34-.44.68-.88,1-1.35.08-.13.1-.45,0-.52a.7.7,0,0,0-.6-.16c-1.66.87-3.44,1.52-4.5,3.28a10.42,10.42,0,0,1-1.79,1.71,7.88,7.88,0,0,0-.51.73c-.27.31-.6.57-.86.89a4,4,0,0,0-1,1.37c-.26,1-.71,1.65-1.78,1.77a2.13,2.13,0,0,0-1.85,1.33c-.31.64-1.07,1-1.55,1.62-.67.81-1.28,1.66-1.88,2.53-.41.6-.76,1.24-1.15,1.87-.08.12-.27.25-.25.36.17,1.28-1,1.31-1.66,1.84a5.93,5.93,0,0,0-1,1,11,11,0,0,0-1.13,1.6c-.69,1.24-1.25,2.55-2,3.77a7.05,7.05,0,0,1-3.16,3.25,1.64,1.64,0,0,0-.74.71c-.44.82-.73,1.73-1.22,2.51a5.44,5.44,0,0,1-1.72,1.87,3.29,3.29,0,0,1-2,0c-.56-.11-.73-.06-.73.52a7.37,7.37,0,0,1-.09,1.41c-.17,1-.86,1.34-1.77,1.48a17.29,17.29,0,0,1-1.84.4c-.34,0-.71-.26-1.06-.42l-.7-.36a6.73,6.73,0,0,0-.32.73,1,1,0,0,0,0,.46c.09.88-.31,1.21-1.17.93a3.55,3.55,0,0,1-.63-.28c-.46-.27-.76-.19-1,.31a1.34,1.34,0,0,1-1.69.64,4.06,4.06,0,0,0-1.1,0c-.19,0-.45.13-.57,0a9.46,9.46,0,0,1-1-.84c.39-.36.72-.88,1.17-1.06.63-.23,1.37-.11,2-.3a2.87,2.87,0,0,0,1.38-.8,2.92,2.92,0,0,1,2-1.18c.51,0,.76-.26.66-.86a2.61,2.61,0,0,1,1.62-2.47,1.07,1.07,0,0,1,.76.14c.85.54,1.39.63,1.77.2a1.85,1.85,0,0,0-.16-2.37,12.93,12.93,0,0,0-1.52-1,.54.54,0,0,0-.43-.07c-2,.64-4.22.26-6.28.78-.44.11-.69-.11-.57-.6.08-.3.15-.59.21-.89.15-.7.16-1.28-.75-1.53-.59-.17-.87-1.89-.49-2.63a1.4,1.4,0,0,1,.16-.26c.79-1.19.64-1.48-.81-1.61a.75.75,0,0,1-.47-.3.51.51,0,0,1,.13-.46c.4-.34.84-.63,1.25-.95a1.9,1.9,0,0,0,.49-.44c.65-1,1.26-2,1.92-3,.32-.47.45-.84-.15-1.19a2,2,0,0,1-.37-3.08,2.14,2.14,0,0,0,.69-1.91.74.74,0,0,1,.2-.61.94.94,0,0,0,.22-1.35,3.2,3.2,0,0,1-.07-2.72.63.63,0,0,0,.07-.22,2.87,2.87,0,0,1,1-2.79c.15-.12.1-.58.07-.87,0-.55-.16-1.1-.2-1.66A1.48,1.48,0,0,1,117,173a1.17,1.17,0,0,0,.13-1.47c-.93-1.14-.34-2.17.16-3.23s1-2.24,1.53-3.38a.91.91,0,0,0-.07-.64c-.14-.35-.34-.67-.51-1-.49-1-.42-1.08.29-1.84a4.62,4.62,0,0,0,.61-1.39c.19-.5.34-1,.53-1.51,0-.14.24-.24.26-.37.29-1.61,1.54-2.76,2.08-4.24a.48.48,0,0,1,.15-.27c1.41-.86,1.48-2.52,2.22-3.78.35-.58.77-1.12,1.13-1.7.94-1.53,1.84-3.08,2.81-4.58a5.47,5.47,0,0,1,1.18-1.27,7.65,7.65,0,0,0,2.37-3.09.68.68,0,0,1,.24-.29c1.62-1,2.07-2.67,2.7-4.26.41-1,.92-2,1.26-3.08a11,11,0,0,1,1.34-3c.3-.45.14-1.19.28-1.78a9,9,0,0,1,.58-1.36c.22-.48.43-1,.68-1.41a7.3,7.3,0,0,1,.86-1.32c.48-.55.85-1,.43-1.82-.11-.23.07-.67.22-1a10.06,10.06,0,0,1,.84-1.17c-.65.06-1.08.07-1.51.15a.52.52,0,0,0-.26.41c.18,1.29-.89,2-1.31,3.07s-.87,2.1-1.33,3.13a17.4,17.4,0,0,1-.9,1.84c-.1.17-.4.22-.61.33-.09-.2-.28-.4-.26-.58.07-.55.24-1.08.31-1.62a24,24,0,0,0,.25-2.54c0-.18-.26-.37-.41-.56-.19.18-.55.35-.55.52a2.68,2.68,0,0,1-1.05,1.87,1.1,1.1,0,0,0-.13,1.51,12.45,12.45,0,0,1,1.15,2.08,2,2,0,0,1-.1,1.24c-.24.74-.56,1.45-.86,2.17a3,3,0,0,1-.5.92,5.79,5.79,0,0,0-1.22,2.5,10.51,10.51,0,0,1-.66,1.5c0,.12-.17.2-.22.31-.73,1.84-2.09,3.27-3.19,4.86-.85,1.23-1.87,2.34-2.8,3.51a61.13,61.13,0,0,0-6,9.05,4.34,4.34,0,0,1-.5.76c-1.81,2.1-2.48,4.79-3.78,7.15-.82,1.48-1.61,3-2.43,4.47-.33.59-.63.46-1.19.13a10.16,10.16,0,0,1-3.51-3.6c-.82-1.39-2-2.66-1.93-4.51,0-1.06-.42-1.5-1.13-1.52a1.84,1.84,0,0,0-.84.24c-.4.2-.81.27-.93-.23s-.45-1,.26-1.3a1,1,0,0,0,.52-1.54,5.25,5.25,0,0,1-.82-2.65c0-.32,0-.65.07-1a7,7,0,0,0,.1-2.31c-.48-1.56-.22-3.13-.36-4.68s.55-2.81.72-4.23a.73.73,0,0,1,.15-.35c.85-1,1.71-1.91,2.57-2.87.55-.62,1.08-1.25,1.66-1.84.28-.28.69-.43,1-.69a16.65,16.65,0,0,0,1.9-1.85c1.14-1.46,2.83-2.16,4.26-3.2.84-.6,1.65-1.23,2.51-1.8s1.82-1.08,2.69-1.69a13,13,0,0,0,1.43-1.35l-.18-.29a8.72,8.72,0,0,0-1.46.4c-1,.48-2,1-2.94,1.57-.75.4-1.48.83-2.25,1.19a1.24,1.24,0,0,1-.87,0,1,1,0,0,0-1.22.3,11,11,0,0,1-.95,1,2.83,2.83,0,0,1-.92.59,4.4,4.4,0,0,0-2.18,1.41,5,5,0,0,1-1.8,1c-1.43.65-3.14.84-3.77,2.68a4.29,4.29,0,0,1-1.08,1.35c-.61.67-1.26,1.3-1.89,1.95a.75.75,0,0,0-.24.38A1.84,1.84,0,0,1,98.39,139a2.5,2.5,0,0,0-1.56,2.14,2.26,2.26,0,0,1-1.38,1.84C93.23,144,92,145.92,91,148a6.7,6.7,0,0,1-.62,1.11c-.14.19-.43.28-.65.42-.13-.23-.38-.46-.39-.69-.06-1.11-.07-2.22,0-3.32a12.77,12.77,0,0,1,.18-2.48,15.51,15.51,0,0,1,.85-2.33,18.61,18.61,0,0,1,1-2.34,9.65,9.65,0,0,1,1.32-1.62c.38-.4.82-.73,1.21-1.13,1.23-1.24,2.57-2.38,3.7-3.75a16.63,16.63,0,0,1,2.65-2,4.46,4.46,0,0,0,1.06-1.15c.15-.24.15-.85,0-.93a1.25,1.25,0,0,0-1.09-.11c-.78.47-1.46,1.09-2.19,1.63a7,7,0,0,1-.86.44,2.16,2.16,0,0,0-.66.34c-2,2.1-4.07,4.12-5.89,6.36a45.45,45.45,0,0,0-4,6c-.84,1.46-1.25,3.17-2.08,4.63-1.1,1.94-.58,4-.64,6a11.83,11.83,0,0,0,1.46,5.54A7,7,0,0,0,87,160.5a10.33,10.33,0,0,0,1.64,1.23c1.58,1,3.19,1.85,4.79,2.76a8.84,8.84,0,0,0,.83.38,10.54,10.54,0,0,0,4.21,1,1.06,1.06,0,0,1,.62.22c1.27,1,2.52,2.1,3.77,3.17.15.12.2.36.34.49a6.13,6.13,0,0,0,1.43,1.14c1.56.66,3.19,1.17,4.75,1.83a1.78,1.78,0,0,1,.84,1c.17.53-.32.79-.75,1a1.15,1.15,0,0,0-.75,1.2.94.94,0,0,1-.73,1.15c-.57.16-.64.67-.65,1.17V180c-1.21-.54-1.47-.4-1.66.75s-.94,1.59-2.14,2c-2.31.71-4.75,1.17-6.69,2.73-1.06.86-1.95,1.92-2.94,2.86a9.62,9.62,0,0,1-1.24.94c-.18.12-.46.14-.6.3-1.34,1.48-3.39,1.64-5,2.66a4.73,4.73,0,0,0-1,1.14,5.61,5.61,0,0,0-.45.92l-.2,0a6.09,6.09,0,0,0,0-.74c-.06-.48-.12-1-.75-1.08s-.74.4-.87.84c-.18.63-.37,1.25-.61,2.07a6.61,6.61,0,0,1-.61-.79c-.34-.64-.69-1.29-1-2a1.47,1.47,0,0,0-1.33-1,44.23,44.23,0,0,1-4.75-.53,30.66,30.66,0,0,1-9.38-3.87,35,35,0,0,0-4.38-2.06,6.06,6.06,0,0,1-4-5.18,32.25,32.25,0,0,1-.3-6.28,20.29,20.29,0,0,1,2.1-8.42c.49-.89,1-1.74,1.54-2.62.19-.32.34-.66.52-1,.62-1.13,1.2-2.27,1.86-3.37s1.28-2,2-3a1.63,1.63,0,0,1,.81-.56c1.21-.33,1.39-.52,1.57-1.77.08-.55.27-1,1-.89a.48.48,0,0,0,.41-.23c.24-.89.93-1,1.69-1.06a4,4,0,0,0,.6,0c.21,0,.5-.11.58-.26s-.08-.42-.21-.58c-.35-.41-.67-.82-.23-1.33a2.06,2.06,0,0,1,2.1-.29c.32.25.62.51,1,.76.06,0,.17,0,.44.11-.18-.48-.32-.84-.44-1.21a8.52,8.52,0,0,1-.56-1.78c0-.31.33-.65.52-1a5.09,5.09,0,0,1,.91.67,5,5,0,0,1,.6,1l.22,0a3.25,3.25,0,0,0,.08-.75c-.16-1.29.67-2.17,1.27-3.15.09-.14.29-.23.36-.38.55-1.29,1.1-2.58,1.6-3.89.31-.79.48-1.63.83-2.4a1.27,1.27,0,0,1,.92-.63.94.94,0,0,0,1-.86,16.84,16.84,0,0,1,3.24-6.29c.82-1.09,1.74-2.1,2.56-3.19,1-1.35,2-2.74,2.92-4.14a.88.88,0,0,0-.13-.82c-1.17-1.37-2.45-2.64-3.55-4a3.17,3.17,0,0,1-.09-3.67,18.57,18.57,0,0,1,5.25-5.84,2.73,2.73,0,0,0,.42-.32c.17-.23.48-.57.41-.71a1.47,1.47,0,0,0-.74-.52,15.27,15.27,0,0,1-1.82-.71c-2.25-1.35-2-2.78-.7-4.57A9,9,0,0,1,94,97.18c2.13-1,4.22-2.06,6.34-3.09,1-.46,1.93-.89,2.89-1.33,1.18-.55,2.37-1.08,3.55-1.65a9,9,0,0,0,1.44-.83,1.85,1.85,0,0,1,2.15-.14c1.07.52,2.19.93,3.29,1.38a5.7,5.7,0,0,1,1,.37,3,3,0,0,1,.58.68,2.92,2.92,0,0,1-.77.34c-.47.06-1,0-1.44.07s-.67.37-.42.91a16.14,16.14,0,0,1,1.22,3,6.12,6.12,0,0,0,4.35,4.54,7.07,7.07,0,0,0,3.36.33c1.1-.15,2.22-.1,3.33-.14a1.17,1.17,0,0,0,.38,0A38,38,0,0,0,130.9,99a16.88,16.88,0,0,0,2.31-1.59c.9-.84,1.66-1.83,2.53-2.71.71-.72,1.5-1.36,2.23-2,.88-.83,1.69-1.72,2.61-2.51a14.53,14.53,0,0,1,2.55-1.87A6.42,6.42,0,0,0,145.24,86c.25-.35.45-.73.7-1.07a17.42,17.42,0,0,0,2.69-5.38c.45-1.63.74-3.3,1.06-5,.1-.52.29-.73.82-.55.74.26,1.59.09,2.21.83.29.34.82.07,1.09-.34a1,1,0,0,1,1.62-.35.83.83,0,0,0,.42.17c.79-.08,1.2.42,1.55,1a1.36,1.36,0,0,0,1.25.71c.63,0,.71.36.49.87,0,0,0,0,0,.07,0,.37,0,.73,0,1.1.48-.14,1.14-.12,1.39-.44.44-.54.75-.77,1.45-.47,1.33.59,2.7,1.11,4.07,1.61a5.82,5.82,0,0,0,1.55.29,1.65,1.65,0,0,1,1.6,1.24,17.4,17.4,0,0,0,1.11,2c.16.27.31.55.46.83l-.16.22-3.06-1.42c.33,1.19-.44,1.5-1.13,1.88-1.15.62-2.33,1.2-3.44,1.89-.76.47-1.27,1.24-2.2,1.55a2,2,0,0,0-1,1.28A6.09,6.09,0,0,1,158,90.84l-1,1,.18.2c1.85-1.48,3.67-3,5.57-4.44s3.85-2.72,5.79-4.07l-.1-.16c.3.09.6.2.91.27.58.13.73.54.77,1.07a.89.89,0,0,1-.66,1c-1.68.74-3.32,1.59-5,2.39-.64.32-1.28.61-1.91,1a5.32,5.32,0,0,0-.9.68c-.1.1-.18.39-.12.47a.65.65,0,0,0,.5.21,3.56,3.56,0,0,0,1.12-.4c1-.57,1.86-1.22,2.83-1.76.28-.16.71,0,1.07,0l-.24,1.26.51.1a4.11,4.11,0,0,1,.87.22c1.12.56,1.12.64.12,1.36a7.53,7.53,0,0,1-.73.41l.22.37H169a12.24,12.24,0,0,1,2,.16c.26.06.63.52.59.73s-.45.49-.75.65a2.08,2.08,0,0,1-.67,0,1.1,1.1,0,0,0-1.14,1.09,2.41,2.41,0,0,0-.05.75c.28,1-.42,1.23-1.12,1.4a11.74,11.74,0,0,1-1.95.36,21.85,21.85,0,0,0-8.58,2.86,19.66,19.66,0,0,0-3.29,2.66c-.84.73-1.64,1.52-2.45,2.29a6.52,6.52,0,0,0-.48.55l.12.15c1-.62,2-1.31,3.06-1.84,1.4-.69,2.84-1.31,4.3-1.87a18.38,18.38,0,0,1,2.91-.78c2.36-.46,4.73-.87,7.1-1.28a6.12,6.12,0,0,1,1.05-.09,1.83,1.83,0,0,0,1.82-1.23c.29-.7.59-1.4.92-2.08s.6-.69,1.28-.41a15.91,15.91,0,0,0,3.14.81c1.15.21,1.56.7,1.27,1.81a1.39,1.39,0,0,0,.76,1.67c1.46.74,1.62,2.14,2,3.45.16.5.46.94.65,1.42a3,3,0,0,1,.27,1c0,.67.2,1.06,1,.93a1.41,1.41,0,0,1,.9.28,4.82,4.82,0,0,1,1.34,1.1,3.36,3.36,0,0,1,.59,1.64c0,.26-.47.76-.76.79a1.81,1.81,0,0,1-1.16-.5c-.27-.23-.34-.68-.58-1s-.46-.21-.7-.3c-.09.27-.34.63-.24.78a12.49,12.49,0,0,0,1.58,2.21,2.19,2.19,0,0,0,1.3.45,1.77,1.77,0,0,1,1.52,1.53,5.6,5.6,0,0,0,.68,1.84,1.55,1.55,0,0,1,.23,1.62,5.17,5.17,0,0,0-.42,3.6,37,37,0,0,1,.69,9.45c-.19,2.81-.27,5.63-.52,8.43a47.89,47.89,0,0,1-.88,6.31,54.05,54.05,0,0,1-1.85,5.92A7.93,7.93,0,0,1,183.4,153a4.87,4.87,0,0,0,2.57-.35c1.69-.49,3.35-1.09,5-1.6a10.6,10.6,0,0,1,1.67-.22c-1.2,1.49-3.14,1.4-4.62,2.63a8.94,8.94,0,0,0,1.11.25c.64,0,1.28-.05,1.9,0a3.38,3.38,0,0,1,1,.51,2.86,2.86,0,0,1-.74.66,4.66,4.66,0,0,1-1.53.42c-1.59.06-3.18.06-4.77.07l-3.34,0a.7.7,0,0,0-.48.33,6.63,6.63,0,0,0,1,.36c1.6.25,3.21.44,4.8.71a6.28,6.28,0,0,1,1.41.56c-.35.38-.64,1-1.08,1.13-1.55.62-3.13,1.15-4.82.3a31.32,31.32,0,0,0-3.17-1.28,3.91,3.91,0,0,0-.91-.11l-.14.27a6.86,6.86,0,0,0,.86.67c1,.57,2.11,1.09,3.16,1.65.16.08.26.27.39.4-.16.15-.3.39-.48.43a20.7,20.7,0,0,1-3,.6,3.75,3.75,0,0,1-1.49-.47,2.7,2.7,0,0,0-2.07,0l-.08.26a11.15,11.15,0,0,0,1.36.64c1.76.56,3.54,1.09,5.31,1.61a5.76,5.76,0,0,0,1.39.34,21.57,21.57,0,0,0,7.91-.71,5.16,5.16,0,0,1,3.28-.26,4.18,4.18,0,0,0,1.79-.05c.49-.07.7.11.67.55a8.4,8.4,0,0,1-.23,1.66c-.26,1-.61,2-.9,3-.15.57-.46.67-1,.44-1.07-.49-2.13-1-3.21-1.46a3.82,3.82,0,0,0-1.26-.2c-.19,0-.38.16-.58.25a3.15,3.15,0,0,0,.28.51,1.09,1.09,0,0,0,.49.34c1.19.3,2,1.25,3,1.8.2.11.37.27.56.4.5.36.33.71-.08,1a2.38,2.38,0,0,1-.94.28,1.28,1.28,0,0,0-1.3,1.14,2.92,2.92,0,0,0-.05,2.12,1.47,1.47,0,0,1-.37,1.21c-.68.79-1.46,1.5-2.2,2.23a5.21,5.21,0,0,1-.9.8c-.82.49-1.68.92-2.51,1.39-.14.07-.34.26-.32.35a.81.81,0,0,0,.35.53,5.39,5.39,0,0,0,1.46.41c2,.2,4,.32,6,.54a1.81,1.81,0,0,1,1.24.64c.35.64-.1,1.31-.6,1.87a10.75,10.75,0,0,0-1.75,2.54c-.34.73-.84,1.31-1.49,1.36a8.46,8.46,0,0,0-3.59,1,.94.94,0,0,1-1.17-.12,1.84,1.84,0,0,0-1.23-.18,2.53,2.53,0,0,1-2.93-1.84c-.25-.71-.7-1.36-.92-2.08a2.15,2.15,0,0,1,0-1.5c.12-.23.86-.18,1.32-.16s1,.19,1.58.21c.19,0,.39-.22.59-.34a1.93,1.93,0,0,0-.53-.43c-.84-.26-1.7-.45-2.54-.73-.22-.07-.37-.36-.55-.55l.58-.41a7.28,7.28,0,0,0,1.07-.83.85.85,0,0,0,0-.71c-1-.41-.86-1.37-1.09-2.12s-.3-1.23-1.08-1.41c-.12,0-.26-.25-.29-.4-.34-1.58-.61-3.18-1-4.74a11.45,11.45,0,0,0-1.06-2.5c-.11-.19-.67-.26-1-.19a24,24,0,0,0-2.35.79,1.26,1.26,0,0,0-.52.29,1,1,0,0,1-1.16.25c-.88-.29-1.45.24-1.51,1.15a17.34,17.34,0,0,1-.43,2.66,10.64,10.64,0,0,1-.58,2,1.64,1.64,0,0,1-1.55.9,1.62,1.62,0,0,0-1.08.51c-.15.19.08.68.14,1,0,.05.06.08.08.13.16.41.32.81.47,1.22a4.32,4.32,0,0,1-1.44,0c-1.53-.58-3-1.26-4.55-1.88a7.56,7.56,0,0,0-1.52-.45c-.22,0-.48.16-.72.25a2.42,2.42,0,0,0,.37.6c.76.66,1.57,1.27,2.3,2a1.74,1.74,0,0,1,.39,1,1.12,1.12,0,0,0,.77,1.08c1.63.67,3.24,1.37,4.86,2.07.2.08.4.22.61.28a7.07,7.07,0,0,1,2.94,1.95,1.06,1.06,0,0,1,.27.61c.07.48.25.67.75.86a1.87,1.87,0,0,1,.88,1.32c.1.55-.53.49-.91.5a7.22,7.22,0,0,0-3.68,1.06c-.24.15-.63.54-.58.61a1.65,1.65,0,0,0,.76.8,11.47,11.47,0,0,0,1.95.3,1.53,1.53,0,0,1,.38,0c.28.12.55.28.82.42-.28.16-.57.46-.84.45-2.12-.1-4.25-.25-6.37-.4-.76-.06-1.52-.17-2.28-.26l-.09.25a1.55,1.55,0,0,0,.5.3q.9.18,1.8.27c1.34.15,2.67.3,4,.39,2.73.19,5.46.44,8.19.45a35.28,35.28,0,0,1,6.16.65,44.5,44.5,0,0,0,4.75.52c1.59.11,3.19.1,4.79.16a3.93,3.93,0,0,1,1,.15.84.84,0,0,1,.46,1.34,4.27,4.27,0,0,0-.54,3.19c.08,1,.24,2,.39,3s.37,2.3.53,3.45a2.82,2.82,0,0,1,0,.82,11.49,11.49,0,0,0,.08,5.5,6.92,6.92,0,0,1,.32,3.49.74.74,0,0,0,.06.44c.4.88.82,1.75,1.22,2.62.19.4.36.81.55,1.21s.26.53.4.8c.54,1,1.14,2.06,1.6,3.13.56,1.29,1,2.61,1.5,3.94.4,1.16.72,2.36,1.06,3.54s.66,2.4,1,3.58c.61,2,1.28,3.92,1.88,5.9.23.77.31,1.58.5,2.37C206.58,245.9,207.06,247.83,207.57,249.86ZM147,204.12c0,.86.11,1.65,1.06,2.08a1.7,1.7,0,0,1,.71.92c.33.86.85,1.2,1.7.83a4,4,0,0,0,1.47-1c.34-.41.74-1.13.6-1.52a26.06,26.06,0,0,0-1.67-3.29.56.56,0,0,0-.25-.17C149.22,201.3,147,202.65,147,204.12Zm8.25-110.27-.15-.2c-.7.47-1.38,1-2.09,1.41-1.19.75-2.39,1.49-3.6,2.2-.83.49-1.7.89-2.52,1.4a1.54,1.54,0,0,0-.52.78c-.16.5.07.68.56.49.33-.13.65-.28,1-.42l.14.17a4.38,4.38,0,0,1-.37.58,12.72,12.72,0,0,1-4.33,3.36,10.13,10.13,0,0,0-1.57,1.07l.14.28a6.71,6.71,0,0,0,1.19-.31,18.49,18.49,0,0,0,5.44-3.5,3,3,0,0,0,1.14-1.91,1.14,1.14,0,0,1,.38-.71c1.11-1,2.27-1.92,3.38-2.9C154,95.08,154.61,94.45,155.21,93.85Zm38.51,122.77.32-.29c-.16-.38-.26-1-.49-1.08-1.1-.24-1.57-1.13-2.21-1.85a5.44,5.44,0,0,0-2-1.53,4,4,0,0,1-1.39-1.1c-.36-.41-.57-1-.89-1.4a3.06,3.06,0,0,0-.53-.48c-.13.19-.34.37-.38.57-.09.51-.38.59-.82.53-1.33-.19-2.66-.37-4-.52a16.82,16.82,0,0,0-1.74,0l0,.28a2.72,2.72,0,0,0,.71.29c.85.13,1.71.19,2.56.33,1.61.26,3.3.34,4.46,1.76a1.56,1.56,0,0,0,.25.17c1.28,1,2.53,2.1,3.85,3.07A18.5,18.5,0,0,0,193.72,216.62Zm-51.43-6,0,.26a4.18,4.18,0,0,0,.82.28c1.66.22,3.31.42,5,.61a1.17,1.17,0,0,0,.73-.13,4,4,0,0,1,2.66-.66,18.93,18.93,0,0,0,4.14-.29,20.31,20.31,0,0,1,4.71-.53,2.91,2.91,0,0,0,1-.43l-.08-.27a2.83,2.83,0,0,0-.63-.13c-1.79.06-3.6.07-5.38.25s-3.59.65-5.39.79c-2.25.17-4.51.12-6.76.17C142.76,210.51,142.52,210.55,142.29,210.58ZM161.53,184l-.07.34c1.93.84,3.81,1.83,5.8,2.47a17.35,17.35,0,0,0,4.1.42c.21,0,.44-.25.65-.39a2.54,2.54,0,0,0-.48-.5,3.85,3.85,0,0,0-1-.48c-2.14-.51-4.28-1-6.42-1.47C163.24,184.17,162.38,184.08,161.53,184ZM146.48,90.35c1.4,0,4.68-2.56,5.2-3.86-.67-.31-1.34-.64-2-.91-.12,0-.5.22-.5.33,0,1.25-.86,2-1.49,2.89C147.31,89.28,146.94,89.74,146.48,90.35Zm29.38,122.38a3.36,3.36,0,0,0,.4.22c1,.46,2,.88,3,1.37,1.36.7,2.69,1.48,4.06,2.17a5,5,0,0,0,1.3.25C183.48,215,177.2,212.17,175.86,212.73ZM142.74,116a5.63,5.63,0,0,0,.71-.47A19.29,19.29,0,0,0,145,114a19.8,19.8,0,0,0,1.5-2c.13-.19,0-.53.06-.81a2.55,2.55,0,0,0-.71.31,12.2,12.2,0,0,0-1.35,1.34c-.6.71-1.17,1.45-1.7,2.21C142.64,115.25,142.74,115.58,142.74,116ZM155.4,80.13a2.88,2.88,0,0,0,.28.61A10.4,10.4,0,0,0,156.85,82c.24.2.8.45.89.35a3.47,3.47,0,0,0,.84-1.32c.08-.23-.21-.6-.37-.89,0-.07-.23-.08-.35-.07C157.09,80.05,156.32,80.09,155.4,80.13Zm23.2,129.56a2.83,2.83,0,0,0-2.54-.19.82.82,0,0,0-.17.67.91.91,0,0,0,.46.6,5.65,5.65,0,0,0,1.4.3,3.36,3.36,0,0,0,.92-.16v-.22l-.89-.54Zm-61.4-65.62c1-.29,3-3.12,2.81-4.07A11,11,0,0,0,117.2,144.07Zm71.92,28.23c-.34.44-.73.76-.67.92a3.76,3.76,0,0,0,.73,1c.27-.25.8-.53.77-.73C189.89,173.13,189.51,172.82,189.12,172.3ZM155.77,84.85c0-.47-.17-.77-.65-.71s-.94.09-.93.69.35.81.91.81S155.81,85.33,155.77,84.85Zm-20.14,21.33c1.93.15,3.89-.22,4.48-.82ZM157.75,84.1l.11-.32c-.2-.43-.47-.85-1-.65-.19.06-.25.5-.37.77Zm-36.21,39.28a1.91,1.91,0,0,0,1.8-1A1.48,1.48,0,0,0,121.54,123.38Zm41.29,87.43-.06.25a1.72,1.72,0,0,0,1.46.57.4.4,0,0,0,.29-.27.4.4,0,0,0-.21-.33C163.82,210.93,163.32,210.88,162.83,210.81ZM154.61,78.2l.36,0c.72-.41-.12-.92.06-1.36l-.31,0Zm29.72,127,.51,0c0-.37-.06-.74-.12-1.1a1.61,1.61,0,0,0-.38,0C184.32,204.45,184.33,204.83,184.33,205.21Zm-26.11-109c.22.15.4.31.42.28a3.65,3.65,0,0,0,.58-.6s-.27-.31-.29-.29A8.14,8.14,0,0,0,158.22,96.24Zm-1.55,100.14,0-.22h-1.17v.22Z" transform="translate(-57.41 -48.68)"/><path d="M130.34,62.36a5,5,0,0,1-1.84,3.83A10.11,10.11,0,0,1,125.83,68c-1.67.77-3.42,1.36-5.15,2a2.27,2.27,0,0,1-1-.09,18.82,18.82,0,0,0-2.35-.37c-1.31,0-2.63,0-4,0a1.45,1.45,0,0,1-.52-.22,2.16,2.16,0,0,1,.28-.57,9.83,9.83,0,0,1,4.67-2.24,6.66,6.66,0,0,0,1.27-.48c.18-.1.26-.38.39-.58a2.42,2.42,0,0,0-.58-.29,13.41,13.41,0,0,0-7.6.58,4.81,4.81,0,0,1-1.64.3c-.19,0-.59-.39-.55-.49.5-1.45-.65-2.42-1.06-3.58s-1.2-2.51-1.11-4A1.14,1.14,0,0,1,108,56.79c.58-.07,1.17-.06,1.73-.18,1.44-.3,2.85-.69,4.29-1a13.88,13.88,0,0,1,1.7,0,10.21,10.21,0,0,0,3-.26,25.67,25.67,0,0,0,6.84-3.9,5.16,5.16,0,0,1,1-.61c.83-.4,1.17-1.23,1.72-1.86.17-.19.49-.4.67-.35s.41.38.44.62a14.56,14.56,0,0,1,.16,2.55c-.08,1.38-.3,2.76-.45,4.13a1.48,1.48,0,0,0,.53,1.56,1.23,1.23,0,0,1,.34.81C130.16,59.69,130.25,61,130.34,62.36Zm-18.22-2.92,0-.4a4.11,4.11,0,0,0-1.36,0c-.2.06-.25.57-.37.88l.24.17Z" transform="translate(-57.41 -48.68)"/><path d="M144.69,66.4c0-1.55-.06-3.11,0-4.67a8.59,8.59,0,0,0-.63-2.93c-.3-1-.6-2-.83-3.08-.2-.88.15-1.17,1-1a5.42,5.42,0,0,0,.9.13,2,2,0,0,1,1.61.85c.34.47.82.82,1.19,1.27a5.63,5.63,0,0,1,1.13,3.93c0,.38,0,.76,0,1.14a1.49,1.49,0,0,0,1.35,1.42c.58,0,1.06-.45,1.17-1.27.07-.52,0-1.06.07-1.59a.86.86,0,0,1,.3-.54c.1-.06.38.08.52.2,1.26,1.09,1.34,1.8.85,3.44a7.1,7.1,0,0,1-2.27,3.31,4.5,4.5,0,0,0-1,1.53c-.43.91-.77,1.87-1.18,2.8a3.9,3.9,0,0,1-2.15,2c-1.09.5-2.09,1.23-3.15,1.82a5,5,0,0,1-1.2.48.79.79,0,0,1-.67-.12.85.85,0,0,1,0-.7c.24-.53.59-1,.81-1.55.62-1.47,1.24-2.94,1.76-4.45a16.52,16.52,0,0,0,.44-2.45Z" transform="translate(-57.41 -48.68)"/><path d="M93.86,62.17c1.56.34,3,.63,4.42,1a3.58,3.58,0,0,0,3.55-1c.43-.4.37-.69-.11-1.1a12.83,12.83,0,0,1-1.79-1.89.86.86,0,0,1,.11-1.27,4.29,4.29,0,0,0,.77-1.29c.46-1,1.52-1.33,2.24-.46a10.49,10.49,0,0,1,1.33,2.5c.34.72.53,1.51.89,2.21.51,1,1.41,1.81,1.37,3.07,0,.59-.07,1.1-.67,1.41-.39.2-.41.48-.15.87a2.42,2.42,0,0,1-.86,2.57,1,1,0,0,1-1.38-.43,3.65,3.65,0,0,1-.53-2.61c.13-.88,0-1.06-.92-1.2A8.18,8.18,0,0,0,99,64.7a5.62,5.62,0,0,1-5.47-1.45,3.07,3.07,0,0,1-.43-.89Z" transform="translate(-57.41 -48.68)"/><path d="M99.71,197.11l-.82-4.68h-.28l-.3,3.6-.24,0a4.59,4.59,0,0,1-.27-.7,13.79,13.79,0,0,1,.32-5.12,18.09,18.09,0,0,1,.5-1.74,2.44,2.44,0,0,1,1.46-1.44c.52-.28.68.18.67.59a5.64,5.64,0,0,1-.22,1.27,20.81,20.81,0,0,0-.48,7.25,5.57,5.57,0,0,1-.06.91Z" transform="translate(-57.41 -48.68)"/><path d="M189.87,162.42a11.17,11.17,0,0,1,1.67-1.22c1.07-.5,2.2-.89,3.31-1.3a1.76,1.76,0,0,1,.82-.07c.47.08.68.7.3.89-1.84.91-3.61,2.07-5.8,1.89C190.15,162.61,190.13,162.59,189.87,162.42Z" transform="translate(-57.41 -48.68)"/><path d="M108,189.85a9.34,9.34,0,0,1-.9-1.45c-.6-1.65-1.42-3.27-1.22-5.11a2.86,2.86,0,0,1,.32-.77,2.49,2.49,0,0,1,.74.51,2.2,2.2,0,0,1,.28.93c.3,1.77.58,3.54.86,5.31A2.42,2.42,0,0,1,108,189.85Z" transform="translate(-57.41 -48.68)"/><path d="M111.94,87.08a2.16,2.16,0,0,1-2.76-2c0-.16.35-.56.46-.53a2,2,0,0,1,.93.54C111.05,85.72,111.45,86.38,111.94,87.08Z" transform="translate(-57.41 -48.68)"/><path d="M111.91,186.36c0,.07-.13.29-.27.37a.49.49,0,0,1-.47-.09c-.66-.79-1.3-1.61-1.92-2.44,0,0,.17-.42.26-.42C110.13,183.76,111.89,185.6,111.91,186.36Z" transform="translate(-57.41 -48.68)"/><path d="M108.76,82c0-.87.24-1.09,1-1.06.51,0,.91.14.87.78-.06.82-.48,1.22-1.24,1.19S108.74,82.42,108.76,82Z" transform="translate(-57.41 -48.68)"/><path d="M104.72,184.36v4.21h-.27A6.82,6.82,0,0,1,104.72,184.36Z" transform="translate(-57.41 -48.68)"/><path d="M154,59.27l-.37.59c-.27-.32-.65-.61-.76-1s.26-.86.42-.86C153.87,58,154,58.53,154,59.27Z" transform="translate(-57.41 -48.68)"/><path d="M192.91,194.14a3.29,3.29,0,0,1,.81-.5c.23-.06.52.09.78.14-.11.25-.18.67-.34.71a5,5,0,0,1-1.22,0Z" transform="translate(-57.41 -48.68)"/><path d="M108.93,88.08c-.46.19-.73.41-1,.36s-.36-.36-.55-.55c.21-.18.44-.53.62-.5S108.51,87.73,108.93,88.08Z" transform="translate(-57.41 -48.68)"/><path d="M105.6,89.76c-.11-.79.3-1.35.82-1.35a.54.54,0,0,1,.37.19.33.33,0,0,1,0,.33C106.42,89.21,106.05,89.45,105.6,89.76Z" transform="translate(-57.41 -48.68)"/><path d="M115.53,86.86l-1.77-.36.08-.38,1.78.33Z" transform="translate(-57.41 -48.68)"/><path d="M153.93,71.91l-.9-.22a1.83,1.83,0,0,1,.12-.35,8.52,8.52,0,0,1,.87.22Z" transform="translate(-57.41 -48.68)"/><path class="cls-1" d="M147,204.12c0-1.47,2.26-2.82,3.62-2.16a.56.56,0,0,1,.25.17,26.06,26.06,0,0,1,1.67,3.29c.14.39-.26,1.11-.6,1.52a4,4,0,0,1-1.47,1c-.85.37-1.37,0-1.7-.83a1.7,1.7,0,0,0-.71-.92C147.07,205.77,147,205,147,204.12Z" transform="translate(-57.41 -48.68)"/><path class="cls-1" d="M155.21,93.85c-.6.6-1.17,1.23-1.8,1.79-1.11,1-2.27,1.92-3.38,2.9a1.14,1.14,0,0,0-.38.71,3,3,0,0,1-1.14,1.91,18.49,18.49,0,0,1-5.44,3.5,6.71,6.71,0,0,1-1.19.31l-.14-.28a10.13,10.13,0,0,1,1.57-1.07,12.72,12.72,0,0,0,4.33-3.36,4.38,4.38,0,0,0,.37-.58l-.14-.17c-.33.14-.65.29-1,.42-.49.19-.72,0-.56-.49a1.54,1.54,0,0,1,.52-.78c.82-.51,1.69-.91,2.52-1.4,1.21-.71,2.41-1.45,3.6-2.2.71-.45,1.39-.94,2.09-1.41Z" transform="translate(-57.41 -48.68)"/><path class="cls-1" d="M193.72,216.62a18.5,18.5,0,0,1-2.37-1.26c-1.32-1-2.57-2-3.85-3.07a1.56,1.56,0,0,1-.25-.17c-1.16-1.42-2.85-1.5-4.46-1.76-.85-.14-1.71-.2-2.56-.33a2.72,2.72,0,0,1-.71-.29l0-.28a16.82,16.82,0,0,1,1.74,0c1.34.15,2.67.33,4,.52.44.06.73,0,.82-.53,0-.2.25-.38.38-.57a3.06,3.06,0,0,1,.53.48c.32.45.53,1,.89,1.4a4,4,0,0,0,1.39,1.1,5.44,5.44,0,0,1,2,1.53c.64.72,1.11,1.61,2.21,1.85.23,0,.33.7.49,1.08Z" transform="translate(-57.41 -48.68)"/><path class="cls-1" d="M142.29,210.58c.23,0,.47-.07.71-.08,2.25-.05,4.51,0,6.76-.17,1.8-.14,3.58-.61,5.39-.79s3.59-.19,5.38-.25a2.83,2.83,0,0,1,.63.13l.08.27a2.91,2.91,0,0,1-1,.43,20.31,20.31,0,0,0-4.71.53,18.93,18.93,0,0,1-4.14.29,4,4,0,0,0-2.66.66,1.17,1.17,0,0,1-.73.13c-1.66-.19-3.31-.39-5-.61a4.18,4.18,0,0,1-.82-.28Z" transform="translate(-57.41 -48.68)"/><path class="cls-1" d="M161.53,184c.85.12,1.71.21,2.55.39,2.14.46,4.28,1,6.42,1.47a3.85,3.85,0,0,1,1,.48,2.54,2.54,0,0,1,.48.5c-.21.14-.44.41-.65.39a17.35,17.35,0,0,1-4.1-.42c-2-.64-3.87-1.63-5.8-2.47Z" transform="translate(-57.41 -48.68)"/><path class="cls-1" d="M146.48,90.35c.46-.61.83-1.07,1.18-1.55.63-.89,1.52-1.64,1.49-2.89,0-.11.38-.37.5-.33.69.27,1.36.6,2,.91C151.16,87.79,147.88,90.35,146.48,90.35Z" transform="translate(-57.41 -48.68)"/><path class="cls-1" d="M175.86,212.73c1.34-.56,7.62,2.27,8.72,4a5,5,0,0,1-1.3-.25c-1.37-.69-2.7-1.47-4.06-2.17-1-.49-2-.91-3-1.37A3.36,3.36,0,0,1,175.86,212.73Z" transform="translate(-57.41 -48.68)"/><path class="cls-1" d="M142.74,116c0-.42-.1-.75,0-.92.53-.76,1.1-1.5,1.7-2.21a12.2,12.2,0,0,1,1.35-1.34,2.55,2.55,0,0,1,.71-.31c0,.28.07.62-.06.81a19.8,19.8,0,0,1-1.5,2,19.29,19.29,0,0,1-1.51,1.49A5.63,5.63,0,0,1,142.74,116Z" transform="translate(-57.41 -48.68)"/><path class="cls-1" d="M155.4,80.13c.92,0,1.69-.08,2.46-.1.12,0,.31,0,.35.07.16.29.45.66.37.89a3.47,3.47,0,0,1-.84,1.32c-.09.1-.65-.15-.89-.35a10.4,10.4,0,0,1-1.17-1.22A2.88,2.88,0,0,1,155.4,80.13Z" transform="translate(-57.41 -48.68)"/><path class="cls-1" d="M178.6,209.69l-.83.46.89.54v.22a3.36,3.36,0,0,1-.92.16,5.65,5.65,0,0,1-1.4-.3.91.91,0,0,1-.46-.6.82.82,0,0,1,.17-.67A2.83,2.83,0,0,1,178.6,209.69Z" transform="translate(-57.41 -48.68)"/><path class="cls-1" d="M117.2,144.07A11,11,0,0,1,120,140C120.15,141,118.19,143.78,117.2,144.07Z" transform="translate(-57.41 -48.68)"/><path class="cls-1" d="M189.12,172.3c.39.52.77.83.83,1.19,0,.2-.5.48-.77.73a3.76,3.76,0,0,1-.73-1C188.39,173.06,188.78,172.74,189.12,172.3Z" transform="translate(-57.41 -48.68)"/><path class="cls-1" d="M155.77,84.85c0,.48-.14.78-.67.79s-.9-.28-.91-.81.52-.64.93-.69S155.8,84.38,155.77,84.85Z" transform="translate(-57.41 -48.68)"/><path class="cls-1" d="M135.63,106.18l4.48-.82C139.52,106,137.56,106.33,135.63,106.18Z" transform="translate(-57.41 -48.68)"/><path class="cls-1" d="M157.75,84.1l-1.3-.2c.12-.27.18-.71.37-.77.57-.2.84.22,1,.65Z" transform="translate(-57.41 -48.68)"/><path class="cls-1" d="M121.54,123.38a1.48,1.48,0,0,1,1.8-1A1.91,1.91,0,0,1,121.54,123.38Z" transform="translate(-57.41 -48.68)"/><path class="cls-1" d="M162.83,210.81c.49.07,1,.12,1.48.22a.4.4,0,0,1,.21.33.4.4,0,0,1-.29.27,1.72,1.72,0,0,1-1.46-.57Z" transform="translate(-57.41 -48.68)"/><path class="cls-1" d="M154.61,78.2l.11-1.34.31,0c-.18.44.66,1-.06,1.36Z" transform="translate(-57.41 -48.68)"/><path class="cls-1" d="M184.33,205.21c0-.38,0-.76,0-1.13a1.61,1.61,0,0,1,.38,0c.06.36.09.73.12,1.1Z" transform="translate(-57.41 -48.68)"/><path class="cls-1" d="M158.22,96.24a8.14,8.14,0,0,1,.71-.61s.3.27.29.29a3.65,3.65,0,0,1-.58.6S158.44,96.39,158.22,96.24Z" transform="translate(-57.41 -48.68)"/><path class="cls-1" d="M156.67,196.38h-1.18v-.22h1.17Z" transform="translate(-57.41 -48.68)"/><path class="cls-1" d="M112.12,59.44l-1.52.68-.24-.17c.12-.31.17-.82.37-.88a4.11,4.11,0,0,1,1.36,0Z" transform="translate(-57.41 -48.68)"/></svg>