<svg id="Layer_1" data-name="Layer 1" xmlns="http://www.w3.org/2000/svg" viewBox="0 0 612 792"><defs><style>.cls-1,.cls-2{fill:none;stroke:#231f20;stroke-miterlimit:10;}.cls-2{stroke-width:0.28px;}</style></defs><title>void</title><rect class="cls-1" x="92.99" y="73.66" width="105.68" height="105.68"/><rect class="cls-1" x="108.46" y="89.14" width="74.72" height="74.72" transform="translate(-46.74 140.17) rotate(-45)"/><rect class="cls-1" x="107.89" y="88.56" width="75.88" height="75.88" transform="translate(-46.19 106.52) rotate(-35)"/><rect class="cls-1" x="106.07" y="86.74" width="79.52" height="79.52" transform="translate(-39.8 73.48) rotate(-25)"/><rect class="cls-1" x="102.68" y="83.36" width="86.28" height="86.28" transform="translate(-27.77 42.05) rotate(-15)"/><rect class="cls-1" x="97.05" y="77.73" width="97.55" height="97.55" transform="matrix(1, -0.09, 0.09, 1, -10.47, 13.19)"/><path class="cls-2" d="M117.28,133.82q2-2,4.14-4.3c1.41-1.51,2.75-3,4-4.43s2.39-2.79,3.38-4a37.22,37.22,0,0,0,2.24-3.1,3,3,0,0,0,.61-1.54,1,1,0,0,0,0-.23.5.5,0,0,1,0-.19c0-.1,0-.15.07-.15a.26.26,0,0,1,.2.11,5.31,5.31,0,0,1,.46.58,1.15,1.15,0,0,1,.26.61,1.6,1.6,0,0,1-.11.58,4.25,4.25,0,0,1-.5.84c-.25.36-.61.81-1.07,1.36s-1.09,1.26-1.88,2.13l-2.92,3.17L122,129.64c-.38.38-.83.83-1.34,1.36s-1,1.07-1.52,1.63-1,1.11-1.38,1.63a7.76,7.76,0,0,0-.9,1.32.83.83,0,0,1-.77.5,2.57,2.57,0,0,0-1.09.25,1.27,1.27,0,0,1-.6.21.13.13,0,0,1-.15-.15,1.17,1.17,0,0,1,.15-.42,5.72,5.72,0,0,0,.31-.73c.33-1,.64-2.11.92-3.32s.52-2.38.71-3.51.35-2.13.46-3a16.19,16.19,0,0,0,.18-1.82,12.44,12.44,0,0,0-.08-1.37,3,3,0,0,0-.37-1.18,2.21,2.21,0,0,0-.84-.85,3,3,0,0,0-1.52-.32,5.84,5.84,0,0,0-1.7.28A3.46,3.46,0,0,0,111,121c-.2.2-.34.24-.42.11s0-.25.15-.38a10.52,10.52,0,0,1,2.65-1.27,9.39,9.39,0,0,1,2.88-.5,2.15,2.15,0,0,1,1.93.79,3.58,3.58,0,0,1,.52,2,20.37,20.37,0,0,1-.25,3q-.25,1.68-.57,3.39c-.22,1.14-.41,2.2-.58,3.19a14.55,14.55,0,0,0-.25,2.39c0,.13,0,.19.08.19A.25.25,0,0,0,117.28,133.82Z"/><path class="cls-2" d="M149.27,123.69a11.13,11.13,0,0,1-1.11,4.64,14.77,14.77,0,0,1-2.82,4,13.82,13.82,0,0,1-4.05,2.84,11.12,11.12,0,0,1-4.79,1.07,15.11,15.11,0,0,1-2.78-.23,6.4,6.4,0,0,1-2.23-.8A4.31,4.31,0,0,1,130,133.7a4.65,4.65,0,0,1-.56-2.41,8.53,8.53,0,0,1,.44-2.59A16.31,16.31,0,0,1,131,126a17.63,17.63,0,0,1,1.57-2.45,14.64,14.64,0,0,1,1.73-1.92,10.34,10.34,0,0,1,3.72-2.19,13.38,13.38,0,0,1,4.26-.69,13.86,13.86,0,0,1,2.44.23,7.75,7.75,0,0,1,2.26.79,4.89,4.89,0,0,1,1.67,1.49A3.94,3.94,0,0,1,149.27,123.69Z"/><path class="cls-2" d="M147.35,123.42a4.84,4.84,0,0,0-.38-2,3.59,3.59,0,0,0-1-1.34,4.27,4.27,0,0,0-1.57-.77,7.58,7.58,0,0,0-2-.25,8.15,8.15,0,0,0-3.65.79,9.25,9.25,0,0,0-3,2.32,18.5,18.5,0,0,0-1.52,2,21.1,21.1,0,0,0-1.43,2.46,17.34,17.34,0,0,0-1.08,2.63,8.15,8.15,0,0,0-.42,2.47,4.94,4.94,0,0,0,.37,2.05,3.19,3.19,0,0,0,1,1.31,4.22,4.22,0,0,0,1.55.69,8.78,8.78,0,0,0,2,.21,8.31,8.31,0,0,0,4.28-1.19,14,14,0,0,0,3.55-3,15.19,15.19,0,0,0,2.43-4A11.31,11.31,0,0,0,147.35,123.42Z"/><path class="cls-2" d="M148.81,135.81a1.28,1.28,0,0,0,.59-.23,2,2,0,0,0,.48-.42c.31-.38.73-.94,1.25-1.69s1.09-1.57,1.69-2.49,1.22-1.89,1.86-2.92,1.24-2,1.8-3,1.06-1.85,1.48-2.66a12.38,12.38,0,0,0,.86-2,1.35,1.35,0,0,0,.08-.42c0-.28-.35-.42-1-.42-.3,0-.65,0-1,0a6,6,0,0,0-1.08.15l-.11,0a1,1,0,0,1,.23-.46l3.16-.17a26,26,0,0,0,2.67-.29.35.35,0,0,1,.19.31c0,.05-.08.1-.23.15a.87.87,0,0,0-.5.35,5.42,5.42,0,0,0-.38.61L159,123.58c-.68,1.22-1.4,2.5-2.17,3.81s-1.55,2.63-2.36,3.94-1.58,2.51-2.32,3.64a2.47,2.47,0,0,1-.69.65,2.62,2.62,0,0,1-.73.31,6.37,6.37,0,0,1-.92.09,5,5,0,0,1-.88,0S148.81,135.92,148.81,135.81Z"/><path class="cls-2" d="M159.32,135.85a9.68,9.68,0,0,0,.92-1.17c.28-.42.5-.77.65-1.05l.83-1.4,1.38-2.38c.52-.91,1.07-1.88,1.65-2.92s1.13-2,1.67-3,1-1.81,1.42-2.59.7-1.36.88-1.74a.16.16,0,0,0-.12-.16.81.81,0,0,0-.19,0,12.87,12.87,0,0,0-2.41.23,14,14,0,0,1-2.42.27c-.46,0-.69-.2-.69-.61a1.93,1.93,0,0,1,0-.31c0-.15.07-.23.15-.23a3.32,3.32,0,0,1,.59.23,2.5,2.5,0,0,0,1.06.23q.69,0,1.8-.06c.74,0,1.38-.08,1.92-.13l1.88-.08c.61,0,1.24,0,1.88,0a22.56,22.56,0,0,1,3,.2,8.54,8.54,0,0,1,2.65.76,5.14,5.14,0,0,1,1.92,1.63,4.72,4.72,0,0,1,.74,2.79,9.34,9.34,0,0,1-.59,3.24,14,14,0,0,1-1.59,3.07A14.22,14.22,0,0,1,176,133.2a11.32,11.32,0,0,1-2.78,1.81,13.63,13.63,0,0,1-3,.94,17.63,17.63,0,0,1-3.17.28,16.6,16.6,0,0,1-2.49-.17,6.88,6.88,0,0,1-2.34-.78,1.57,1.57,0,0,0-.65-.2,2.35,2.35,0,0,0-.89.27,6,6,0,0,0-1.11.69Z"/><path class="cls-2" d="M178.5,124.07a5.21,5.21,0,0,0-.29-1.68,3.64,3.64,0,0,0-1-1.54,5.46,5.46,0,0,0-2-1.11,10.54,10.54,0,0,0-3.26-.42,4.78,4.78,0,0,0-.71,0,.75.75,0,0,0-.52.42c-.64,1-1.31,2.1-2,3.3s-1.42,2.43-2.13,3.68-1.37,2.47-2,3.66-1.19,2.26-1.65,3.21a1.14,1.14,0,0,0-.15.46.65.65,0,0,0,.23.46,4,4,0,0,0,1.78,1,7.91,7.91,0,0,0,2.32.35,10.79,10.79,0,0,0,4.41-.92,11.86,11.86,0,0,0,3.65-2.52,11.9,11.9,0,0,0,3.41-8.42Z"/></svg>