<svg id="Layer_1" data-name="Layer 1" xmlns="http://www.w3.org/2000/svg" viewBox="0 0 612 792"><defs><style>.cls-1{fill:#fff;stroke:#231f20;stroke-miterlimit:10;}</style></defs><title>zelda</title><path class="cls-1" d="M302.92,165.25c-.06,0-.16,0-.17,0-.47,1-1.46.82-2.28,1a19.52,19.52,0,0,0-3.39,1.12c-2.51,1.21-4.93,2.58-7.42,3.82a31,31,0,0,1-8.23,2.75,3.92,3.92,0,0,0-2.24,1.13,4,4,0,0,1-1.52.82c-2.17.8-4.36,1.56-6.53,2.36-4.94,1.81-9.85,3.73-14.83,5.41-3.36,1.13-6.83,1.94-10.25,2.9-.39.11-.77.28-1.16.43-.81.31-1.26.06-1-.66.51-1.19-.25-2-.54-2.89-.06-.2-.14-.47,0-.62.91-1.65.65-3.36.33-5.08,0-.17,0-.34,0-.28l-1.27-1.23L241,177.4a1.26,1.26,0,0,1-.44-1.71c-.59-.77-1.13-1.46-1.62-2.08l-1.56-.51a5.64,5.64,0,0,1-.56-1.41,3.38,3.38,0,0,1,.27-1.14c-1-.05-1.11-.33-1.08-1.48a3.52,3.52,0,0,0-.34-1.53c-.19-.41-.59-.81-.11-1.14a5.81,5.81,0,0,1,1.65-.6c.14,0,.33.15.49.14a1.83,1.83,0,0,0,.53-.21,2.25,2.25,0,0,0-.19-.45c-.31-.42-.63-.82-1-1.28-.62.4-1.16,1.36-2.08.39-.16-2,1.91-2.85,2.64-4.42l-.15-.2-1.16.49c-.14-.37-.27-.81-.46-1.21s-.5-.68-.64-1.06a6.4,6.4,0,0,1-.22-1.39c-.31-2.5-.79-5,1-7.24.85-1.06,1.59-2.2,2.35-3.33,1.06-1.58,2-3.24,3.15-4.74A29.74,29.74,0,0,1,245,137.5c2.08-1.94,4.27-3.77,6.44-5.62a28.91,28.91,0,0,1,8.58-4.82,12,12,0,0,1,4.18-.79,4.75,4.75,0,0,1,.68,0c-.27,1-.5,1.84-.79,2.72s-.63,1.54-.9,2.33a1,1,0,0,0,.08.66,9.37,9.37,0,0,1,.44.9c.31.44.6.91.95,1.32s.66.83,1.08.93a5.87,5.87,0,0,1,2.73,1.41c.21.2.66.15,1,.38-.29,0-.59,0-.87.08-.83.12-1.67.2-2.48.4-.25.06-.62.57-.56.7a1.62,1.62,0,0,0,.82.81c1,.32,1.5-.74,2.31-1,.3-.09.53-.38.82-.49.48-.16,1-.29,1.26.37a.72.72,0,0,0,.2.28,1.49,1.49,0,0,1,.22,2.4c-.75.83-1.52,1.62-2.89,1.08a2.87,2.87,0,0,0-1.76.33c-.84.33-1.37-.14-2-.49-1.34-.72-2.58-1.7-4.2-1.76h-.09l-1.95-.35a7.75,7.75,0,0,1-2.78,4.57c-.86.66-1.82,1.17-2.67,1.84-.32.25-.42.76-.65,1.14-.32.57-.65,1.13-1,1.68a6.54,6.54,0,0,1-.41.51l-.61.74c.46.27,1.12.68,1.82,1a6.21,6.21,0,0,0,4.31.16,14.19,14.19,0,0,0,3.52-1.39c.91-.48,1.69-1.2,2.55-1.74.55-.25,1.08-.53,1.64-.74,1.56-.59,3.17-1.09,4.69-1.76a10.13,10.13,0,0,0,4.66-4.19,9.72,9.72,0,0,0,.65-1.81c.19-.59.36-1.19.55-1.77-.19-.63-.39-1.34-.6-2a1.15,1.15,0,0,0-.18-.48,7.52,7.52,0,0,1-2.25-5.76,25.25,25.25,0,0,0-.61-6.93,7.53,7.53,0,0,1,0-3.5,8.83,8.83,0,0,1,1.69-2.7c2.95-4,5.89-8,8.89-12a25.62,25.62,0,0,1,2.27-2.4l1.34.41.17.3.52-.83.72,1c.38-.54.94-1,.92-1.39,0-.84.31-1.09,1.25-1.06l-.58-1.8-.19,0-.13,1.2a3.39,3.39,0,0,1-1.06,0,1.34,1.34,0,0,0-1.49.36c-.38.35-.73.74-1.1,1.1a65.92,65.92,0,0,1,7-9.63,4.35,4.35,0,0,1,3.77-.94A1.62,1.62,0,0,1,295.94,92c.39,2.7.73,5.4,1.07,8.11.07.58,0,1.18.05,1.77.19,2.43.37,4.86.59,7.28s.48,4.85.73,7.27c.22,2.13.47,4.26.68,6.39.13,1.31.16,2.64.33,3.94.28,2.14.66,4.26,1,6.39.16,1.07.21,2.16.39,3.23.32,2,.73,3.9,1,5.86s.49,3.7.77,5.54a2.73,2.73,0,0,0,.37.77Z"/><path class="cls-1" d="M191.4,209c0-.12.39-.29.63-.39.47-.2.95-.36,1.61-.61l-.63-.39a1.68,1.68,0,0,1-.75-1.88,1.31,1.31,0,0,0-.18-1.05,2.64,2.64,0,0,1-.54-2.06,19.45,19.45,0,0,0-1.56-7.88,14.65,14.65,0,0,1-.92-4c-.13-1.18,1-1.67,2.11-1.22,1.54.63,2.06,2,2.79,3.25,1.26,2.23,1.63,4.73,2.43,7.1a15,15,0,0,1,.47,5.8,2.13,2.13,0,0,0,2.49,2.36c1.25-.06,2.51,0,3.76-.06a15.44,15.44,0,0,0,2-.33c1.33-.22,2.65-.46,4-.67.49-.08,1,0,1.1-.75,0-.11.35-.29.54-.28,1.13.05,2.27.16,3.41.22a9.72,9.72,0,0,0,2.41,0,5,5,0,0,1,2.63.38.68.68,0,0,0,.26.07c1.5-.27,2.93.35,4.4.35,1.72,0,3.43,0,5.15,0a18.75,18.75,0,0,0,2.59-.54c.32.66.86,0,1.24-.25,1.15-.67,1.43-.72,2.44.06v-.85a8.75,8.75,0,0,0,4.19.66c-.33-.73-.55-1.31-.84-1.85-.07-.13-.36-.21-.54-.21s-.53.22-.75.16a3.47,3.47,0,0,1-.89-.51,4.3,4.3,0,0,1,.78-1,2.26,2.26,0,0,0,.88-1.06c.08-.26.34-.46.5-.71.71-1.17,1.39-2.35.64-3.78a1.19,1.19,0,0,1,0-.44c1-.14,1.89-.24,2.78-.43s1.78-.48,2.66-.74a6.83,6.83,0,0,0,2.12-.74c1-.72,2.08-.62,3.12-.94.49-.15,1-.34,1.47-.47s.79-.06,1.16-.17a3.84,3.84,0,0,0,1-.53,12.9,12.9,0,0,0,1-.92c1,.9,2,.14,2.92.08,1.47-.09,2.94-.33,4.39-.55a13.61,13.61,0,0,0,2.64-.56,6.65,6.65,0,0,1,3.25-.85,2.65,2.65,0,0,0,1.51-.37c1-.56,2.26,0,3.14-.91a.6.6,0,0,1,.58-.06c.76.53,1.32.1,1.9-.31a1.55,1.55,0,0,1,.71-.34c1.76-.1,3.52-.2,5-1.41l-.35-.52,1.23.28c.12-.87-.21-1.07-1.1-.85a10.9,10.9,0,0,1-3.52.6,6.56,6.56,0,0,0-3.32.34c-.9.39-1.85.65-2.77,1-.16.06-.38.16-.5.1a2.66,2.66,0,0,0-2.19,0c-.74.24-1.5.39-2.25.59l-2.69.73-2.92.85c-1.51.44-3,.89-4.52,1.32-2.12.6-4.25,1.2-6.38,1.75-.89.22-1.8.31-2.71.47l-.11-.35c1.14-.48,2.27-1,3.43-1.44,1.48-.54,3-1,4.49-1.5,1.11-.34,2.27-.52,3.33-.94,1.48-.58,2.88-1.32,4.32-2,2.33-1.07,4.63-2.19,7-3.15,1.9-.77,3.89-1.32,5.83-2,2.84-1,5.67-2.1,8.48-3.21,3.51-1.38,7-2.81,10.48-4.23,1.3-.54,2.59-1.11,3.89-1.65a3.22,3.22,0,0,1,.74-.12c-.67,1.41-1.25,2.73-1.91,4-.46.9-1.13,1.71-1.53,2.64a5.2,5.2,0,0,1-2.66,2.45c-1.43.76-2.93,1.39-4.4,2.07a1.75,1.75,0,0,0-.28.17l1.35.58,0,0,1.05.28,1.31.35c-.3.62-.55,1.27-.9,1.86-1.44,2.42-2.91,4.83-4.38,7.24q-3.34,5.49-6.73,11c-.41.67-.57.73-1.54.71l-.29.29.94.29"/><path class="cls-1" d="M109.48,207.45c.18-1.6.79-3.12.62-4.8-.21-2.07-.29-4.17-.32-6.25,0-1.08.21-2.15.27-3.23.06-1.3,0-2.62.11-3.91.19-1.73.18-3.53,1.11-5.11a.88.88,0,0,0,0-.43,22.1,22.1,0,0,0,0-2.82c-.06-.55-.54-1-.62-1.59a17.84,17.84,0,0,1,0-2.19,2.49,2.49,0,0,0-.16-1.06,3.73,3.73,0,0,1-.08-3.23,1.88,1.88,0,0,1,1.77-1.17,1,1,0,0,1,1.2,1c0,1.65.06,3.31,0,5,0,.5-.5,1-.7,1.48a1.67,1.67,0,0,0,0,.86,12.32,12.32,0,0,1,.42,1.85c.07,2.15.14,4.31,0,6.46s-.43,4.2-.67,6.3c-.12,1-.25,2-.4,3.06-.33,2.12-.71,4.22-1,6.34a30.52,30.52,0,0,0-.2,3.44"/><path class="cls-1" d="M286.9,184.7c-1-1.5-1.81-.34-2.59-.22-.35.05-.62.66-.93,1l.21.2Z"/><path class="cls-1" d="M25.31,155a2.77,2.77,0,0,0-.13,1c.27,1.1.6,2.19.95,3.28s.75,2.15,1.09,3.24c.71,2.27,1.41,4.54,2.08,6.83a21.09,21.09,0,0,1,.76,3.78,3.37,3.37,0,0,1-.4-.61c-.56-1.64-1.13-3.28-1.65-4.93-1-3-1.87-6-2.8-9-.84-2.69-1.63-5.4-2.54-8.07-1.07-3.14-2.27-6.23-3.36-9.36-.65-1.88-1.2-3.8-1.8-5.7-.67-2.12-1.35-4.24-2-6.37a12.38,12.38,0,0,1-.38-1.81,30,30,0,0,1,0-9.74,14.68,14.68,0,0,1,2.84-7,4.29,4.29,0,0,0,.58-1.65A7.31,7.31,0,0,1,20,106.6a23.11,23.11,0,0,1,8.7-6.24A38.9,38.9,0,0,1,38,97.46c2.85-.54,5.69-1.12,8.55-1.65,1-.19,2.1-.26,3.15-.38,1.4-.15,2.8-.33,4.21-.43q6.23-.41,12.44-.74c2.2-.12,4.42-.11,6.62-.24,1.92-.11,3.84-.34,5.74-.51,1.67,2.94,3.32,6.08,5.2,9.08a11.09,11.09,0,0,1,1.81,6.26A30.89,30.89,0,0,1,84,118.13a5.28,5.28,0,0,0,.93,5.59c.35.39.67.81,1,1.21a2.74,2.74,0,0,1-.71,4.26,19.72,19.72,0,0,1-3.6,1.77,35.65,35.65,0,0,0-7.2,3.33,4.4,4.4,0,0,0-1.76,3.33c-.22,1.83-.38,3.68-.74,5.49a4.33,4.33,0,0,1-1.13,2.13c-1.53,1.48-1.41,3.26-1.22,5.1a15.62,15.62,0,0,1,.24,1.65c0,2,0,4.08,0,6.11,0,.85-.32,1.68-.36,2.53-.12,2.73-.35,5.47-.2,8.2a30.19,30.19,0,0,0,1.17,5.22c0,.15.08.29.1.43.13,1.7.2,3.41.42,5.1s.55,3.18.84,4.76a3.68,3.68,0,0,1,.17.77c-.13,1.73.57,3.29.94,4.92a6.57,6.57,0,0,1,.24,2.84,30.42,30.42,0,0,0-.19,3.71,4,4,0,0,1-.3,1.27c-.35.8-.81,1.56-1.12,2.38-.09.24.15.62.26.94,0,0,.1,0,.15.07,1.1.59,1.5,1.3,1.08,1.89a2.18,2.18,0,0,1-3,.59,7.17,7.17,0,0,1-2.72-4.38,2,2,0,0,0-.38-.88c-.79-.82-1.65-1.56-2.41-2.4a3.59,3.59,0,0,1-.85-1.47,3.84,3.84,0,0,0-2.54-2.7c-.95-.21-1.88-.45-2.83-.64a1.47,1.47,0,0,0-.86.05.93.93,0,0,1-1.44-.68c-.31-2.2-1.85-3.81-2.57-5.79a11.49,11.49,0,0,1-.5-3.11c0-.32.42-.66.59-1A33,33,0,0,0,55,177.36c.11-.3-.31-.78-.49-1.17a7.74,7.74,0,0,0-.83.52c-.4.32-.81.78-1.3.29a1.34,1.34,0,0,1-.4-1.74,6.13,6.13,0,0,1,1.35-1.39,1.74,1.74,0,0,0,.69-1.79c-.05-.3-.39-.57-.65-.78a7.36,7.36,0,0,1-1.19-.82c-1.09-1.29-1.67-1.45-3.17-.72a4,4,0,0,0-.69.4c-.74.52-1.28.26-1.83-.35s-1.27-1.19-1.84-1.85c-.43-.5-.71-1.12-1.1-1.64a4.59,4.59,0,0,0-1-1,2.22,2.22,0,0,1-1-2.26,1.33,1.33,0,0,1,.73-.84,1,1,0,0,1,.89.47c.33.81.49,1.68.75,2.51.11.33.22.76.48.93,1,.7,2.06,1.34,3.33.46.16-.12.57,0,.8.11.49.25.95.73,1.51.2s1.28-1.15,1-2.19a2.38,2.38,0,0,1,.07-1.35c.19-.45.66-.6.92,0s.73,1.07,1.42.85c.34-.1.84-.6.81-.86a2.82,2.82,0,0,0-.71-1.68,1.45,1.45,0,0,1-.64-1.39,2.43,2.43,0,0,0-.43-1.37c-.43-.68-.42-1.17.31-1.63.28-.17.43-.54.65-.82a3.6,3.6,0,0,0-1.11-.52c-1.76-.12-2.39-1-1.84-2.7.05-.17.12-.33.16-.5.29-1.12.43-1.16,1.53-.71.39.16,1.07.29,1.26.09s.16-.85.17-1.31c0-.65,0-1.31,0-2a4.08,4.08,0,0,0-.25-1.4c-.61-1.33-1.27-2.65-2-3.94a1.77,1.77,0,0,0-1-.82,1.89,1.89,0,0,0-2.05.46,5.78,5.78,0,0,1-.91.94,1.29,1.29,0,0,1-1.83-.11c-1.77-1.71-4.11-1.12-5.06,1.18A22.28,22.28,0,0,1,38.85,148a1.44,1.44,0,0,0,0,1.92,3.57,3.57,0,0,1,.61,1.63c.16.84.48,1.38,1.44,1.3a1,1,0,0,1,.67.16c.88.82,1.78,1.64,2.58,2.53s.44,1.41-.57,1.71a2.12,2.12,0,0,0-1.41,1.34c-.18.4-.58,1-.79,1a3.41,3.41,0,0,1-1.5-.79c-.47-.42-.77-1-1.25-1.47-1.14-1-1.47-2.46-2-3.8a16.06,16.06,0,0,1-.65-2.74,3,3,0,0,1,.28-2.12c.56-1-.17-1.9-.72-2.71a5.3,5.3,0,0,0-1.24-1.26,5.31,5.31,0,0,1-1.91-4.21,6,6,0,0,0-.78-2.77,17,17,0,0,1-2.14-5.67,3.89,3.89,0,0,0-.52-1.4,6,6,0,0,1-.71-3.58c0-.66.3-.86,1-.81.41,0,1.2-.13,1.2-.25,0-.61.1-1.47-.25-1.79a7.4,7.4,0,0,1-1.94-3,2.12,2.12,0,0,1-.09-1.4c.51-1.38,1.15-2.71,1.7-4.08.09-.2,0-.48,0-.72a2.17,2.17,0,0,0-.69.24A7.26,7.26,0,0,0,26.62,120c-.35,1.67-.9,3.3-1.17,5a8.58,8.58,0,0,0,.1,3,26.63,26.63,0,0,0,1.34,5,7.44,7.44,0,0,1,.8,3,6.49,6.49,0,0,0,.43,1.79c.44,1.45.81,3,1.39,4.35.72,1.72,1,3.59,2.28,5.13A12,12,0,0,1,33,150.38a10.9,10.9,0,0,0,.78,1.78A16.41,16.41,0,0,1,35.6,157a13.89,13.89,0,0,0,1.82,4.28A20.93,20.93,0,0,1,39,165c.58,1.45,1.13,2.91,1.67,4.38.13.38.15.8.26,1.19a5.57,5.57,0,0,0,.6,1.82,11.5,11.5,0,0,1,2.12,6.2,10.15,10.15,0,0,0,.89,2.62c.62,1.69,1.23,3.37,1.86,5a2,2,0,0,0,.45.84,4.39,4.39,0,0,1,1.32,3.34,6.61,6.61,0,0,0,1,3.42,1.88,1.88,0,0,1,.4,1.14,5.42,5.42,0,0,0,1,3.09,2.6,2.6,0,0,1,0,3,1.06,1.06,0,0,0,.44,1.66,2.62,2.62,0,0,1,1.46,3,2.33,2.33,0,0,0,.15,1c.31.77,0,1.11-.73,1.26a2.12,2.12,0,0,0-.69.15c-1.89,1.25-2.91-.35-4.06-1.29-.33-.26-.3-1-.43-1.45a3.17,3.17,0,0,0-.26-1.07c-.9-1.17-1.87-2.28-2.78-3.43a1.79,1.79,0,0,1-.43-1,9.6,9.6,0,0,0-.94-3.82c-.5-1.19-.77-2.46-1.17-3.69-.19-.57-.51-1.09-.7-1.66-.33-1-.56-2-.91-3s-.82-2-1.21-3a3.85,3.85,0,0,1-.53-1.64c.17-1.44-.58-2.44-1.3-3.53-1.32-2-2.81-3.92-3.06-6.46a6.35,6.35,0,0,0-.81-2.14c-.71-1.41-1.54-2.77-2.23-4.18a25.19,25.19,0,0,1-.86-2.39c-.27-.74-.6-1.45-.83-2.2-.38-1.21-.59-2.47-1.07-3.63s-1.25-2.47-1.89-3.7Z"/><path class="cls-1" d="M52.8,117.07h-.06c.09.82.16,1.64.28,2.46a6.15,6.15,0,0,0,.32.91,1.12,1.12,0,0,0,1.41.88c.86-.16,1.63-.12,2,.88.12.29.51.47.77.71,1,.89,1.69,2.31.92,3.35-.2.27-.62.61-.86.56a1.66,1.66,0,0,1-1-.74c-.45-.82-.73-1.72-1.16-2.54-.17-.31-.64-.75-.85-.69-.54.16-.4.65-.25,1.11a2.38,2.38,0,0,1-2.17,2.86,3.35,3.35,0,0,0-1.1.38c-.53.2-1.05.4-1.57.63s-1.15.33-1.29.68c-.57,1.41-1,2.91-.2,4.38a1.2,1.2,0,0,0,1,.49,2.93,2.93,0,0,1,2.78.32c.47.31.77.22,1.1-.25A2.91,2.91,0,0,1,55.24,132a2.33,2.33,0,0,0,2-1.31,2.5,2.5,0,0,1,2.16-1.48A2.51,2.51,0,0,0,60,129a.79.79,0,0,0,.54-1.17,1.73,1.73,0,0,1,.13-1.32,3.78,3.78,0,0,0,.14-3.26,9.06,9.06,0,0,1-.53-1.57,17.56,17.56,0,0,1,1.75-.37c.51-.06.81.23.88.77a4.3,4.3,0,0,0,.3.92c.18.46.4.93,1,.61a1,1,0,0,0,.42-1.52,6.6,6.6,0,0,0-.9-.85,1,1,0,0,1-.12-1.54,2.24,2.24,0,0,1,1.72-.93,2.23,2.23,0,0,0,1.09-4c-.8-.57-.87-.92-.29-1.76.41-.6.93-1.14,1.32-1.76a1.68,1.68,0,0,1,2.12-.93c.69.16,1-.13,1.3-.81a7.27,7.27,0,0,1,1.21-2.09c.61-.71.61-.94.12-1.73a4.26,4.26,0,0,1-.54-2A22.3,22.3,0,0,1,72,101.4c.07-1.51.8-2.23,2.31-2.1a2.47,2.47,0,0,1,1.33.42c1.06.91,2.29.6,3.47.58.27,0,.78-.46.75-.64a7.1,7.1,0,0,0-1.64-4.07A2.29,2.29,0,0,0,76.62,95c-2.52.18-5,.5-7.55.7a6,6,0,0,0-3.84,1.74.79.79,0,0,1-.71.13,2.35,2.35,0,0,0-2.81,0c-.79.43-1.55.91-2.33,1.35s-1,1.17-.19,1.81c.31.26.75.36,1.06.61a1.13,1.13,0,0,1,.45.76c0,.18-.33.47-.57.54a9.07,9.07,0,0,1-1.65.31c-1.28.13-2.08,1.16-3.17,1.66-.69.31-1,.58-.41,1.36a1.9,1.9,0,0,1-1.11,2.94,2,2,0,0,1-1.43-.58c-.18-.15,0-.76.09-1.16a7.06,7.06,0,0,1,.21-.79c-.34,0-.75-.19-1-.05a3.66,3.66,0,0,0-.84,1,12,12,0,0,1-.68,1,2.07,2.07,0,0,0-.3,2.44,7,7,0,0,1,.54.91c.54,1.33,1.36,2.1,2.93,1.8.3-.06.68.27,1,.41-.24.3-.43.74-.74.87A1.18,1.18,0,0,0,52.8,116Z"/><path class="cls-1" d="M44.28,125.68a5.81,5.81,0,0,1,2-4.07c1.27-1.06,1.36-1.2,2.8-.38a1.07,1.07,0,0,0,.86.11,1.69,1.69,0,0,0,.53-2.2,1.48,1.48,0,0,0-2.31-.11,2.48,2.48,0,0,1-3.94-.17c-.18-.2-.53-.23-.8-.34a2.37,2.37,0,0,0,.05.89c.29.61.73,1.14,1,1.76.4.91.2,1.24-.75,1.56s-1.64.55-1.56,1.71c0,.35-.21,1-.42,1a2.09,2.09,0,0,1-1.29-.3c-.42-.25-.71-.72-1.12-1a1.12,1.12,0,0,0-.88,0c-.11,0-.1.51-.06.77.12.65.27,1.31.43,2,.1.4.14,1,.39,1.14s.83-.19,1.27-.25a6.65,6.65,0,0,1,1.66-.1c.42.06.78.44,1.2.54a1.71,1.71,0,0,0,1.17-.07,1,1,0,0,0,.24-1.42A8.89,8.89,0,0,1,44.28,125.68Z"/><path class="cls-1" d="M82.86,129.26a3.59,3.59,0,0,0,3-2.07,1,1,0,0,0-.14-.78,11.19,11.19,0,0,0-1.43-1.32.78.78,0,0,0-1.34.37c-.33.85-.64,1.71-.93,2.57S81.86,129.24,82.86,129.26Z"/><path class="cls-1" d="M45.13,109.76a3.58,3.58,0,0,0-1,.85c-.12.2.21.79.46,1.11A10,10,0,0,0,45.85,113c.37.31.8.56,1.2.84.35-.58.92-1.14,1-1.76C48.15,111.26,46.34,109.79,45.13,109.76Z"/><path class="cls-1" d="M47.92,137.42,46,138.62A8.22,8.22,0,0,0,47.67,140c.48.22,1.33-.9,1.16-1.55C48.74,138.1,48.32,137.85,47.92,137.42Z"/><path class="cls-1" d="M119.15,64.7c.13-.93,1.14-.4,1.58-1a1.38,1.38,0,0,0-.45-.08c-1.18.2-1.82-.6-2.48-1.33a3,3,0,0,0-2.39-1.11,25.73,25.73,0,0,0-6.16.82c-1,.3-2.19-.78-2.27-2.18a57.24,57.24,0,0,1,.24-6,14.94,14.94,0,0,0,0-1.77c-.12-1.69.84-3,1.59-4.37.28-.49,1.12-.64,1.58-1.08a7.66,7.66,0,0,1,4.9-1.83c1.22-.1,2.42-.42,3.64-.57.78-.1,1.59-.07,2.38-.12s1.58-.19,2.37-.19a5,5,0,0,1,1.71.28c1.29.49,2.54,1.06,3.81,1.6a2.78,2.78,0,0,0,.4.16s.1,0,.38-.13a3.78,3.78,0,0,0-.73-1,1.84,1.84,0,0,1-.94-1.83,1.09,1.09,0,0,0-.13-.49c-.3-.59-.62-1.16-.89-1.76,0-.09.18-.29.3-.48l-1-.18.3-.49a2,2,0,0,0-.27-.06,3,3,0,0,1-2.17-.76,9.61,9.61,0,0,0-2.18-1.07c-.15-.07-.32-.13-.47-.21l-1.15-.64c.13-.67.33-1.54.47-2.42a4.36,4.36,0,0,0,0-1c-.18.2-.36.39-.53.6s-.31.42-.48.65l-.58-1.21-.32,0-.58,1.88-.1-1.19c0-.65-.27-1-1-.86a2.07,2.07,0,0,1-1.29-.12c-.83-.52-1.24,0-1.71.49-.16.16-.29.35-.5.6l-.22-.91-.68.83c0-1.3-.84-.76-1.38-.82s-1.16-.06-1.83-.1c.88-1.54,2.2-1.74,3.56-1.83,1.91-.12,3.81-.33,5.71-.33A17.14,17.14,0,0,1,126,33.09c3.44,1.49,5.24,4.43,6.85,7.55a35.57,35.57,0,0,0,2.09,4.08c1.16,1.63,2.59,3.07,3.87,4.61s2.82,3.34,4.13,5.09c.69.93.37,1.44-.81,1.52a4.4,4.4,0,0,1-3-1.25,8.22,8.22,0,0,0-1.33-.87c-.68-.34-1.39-.6-2.12-.9-.12.17-.23.46-.42.55-.62.28-.52.78-.37,1.21.42,1.21.87,2.41,1.39,3.59.09.19.58.33.85.3,1.34-.18,2.66-.42,4-.64.4-.07.79-.2,1.19-.26.68-.1,1.14.1,1,.89-.13.95-.27,1.91-.47,2.86-.29,1.39-.6,2.79-1,4.17-.31,1.11-.8,2.17-1.07,3.3a9.71,9.71,0,0,0-.23,2.74c.09,1.31.43,2.6.53,3.91.21,2.61.31,5.23.47,7.85a29.15,29.15,0,0,1,.24,3.6c-.2,3.34-1.1,6.41-3.87,8.62a5.25,5.25,0,0,1-.81.51c-.91.49-1.08.89-.85,1.92a9.4,9.4,0,0,1,.26,1.82c0,3.13,0,6.27,0,9.4,0,1.87.16,3.6,1.58,5a2.24,2.24,0,0,1,.67,2.48c-.13.38.15,1,.34,1.41a20.78,20.78,0,0,0,1.14,2.26,14.51,14.51,0,0,0,1.21,1.62c.61.76,1.27,1.48,1.83,2.27s.19,1.67-.85,1.91c-2.5.57-5,1.15-7.47,1.86-1.33.38-2-.36-2.8-1.13-1.92-1.94-3.7-4-5.76-5.83a10.35,10.35,0,0,0-7-2.7,6,6,0,0,1-1.76-.48c-.11,0-.21-.16-.31-.16-.42,0-.84.08-1.25.12.19.36.3.83.59,1a4.53,4.53,0,0,0,1.62.79c.27.06.64-.31,1-.49-.07,1-.41,1.38-1.32,1.3a20.13,20.13,0,0,1-3.29-.52c-1.16-.29-2.27-.8-3.42-1.14a10.27,10.27,0,0,0-2-.37c-1.66-.17-3.33-.34-5-.43-1.32-.07-1.88.36-1.83,1.59a5.2,5.2,0,0,1-.64,2.83,2.05,2.05,0,0,0-.11.72l.2.08,1.31-1.55,1.7,4.14-1.31-.75c.28,1.16,1.28,1.17,1.93,1.61s1.46,1,2.15,1.53,1.23,1.08,1.85,1.62l.27-.22a4.55,4.55,0,0,1-.49-1.17,1.67,1.67,0,0,1,.23-1.25,1.5,1.5,0,0,1,1.29-.33c.78.3.9,0,1-.66.17-1.62.41-3.23.7-4.83,0-.21.55-.49.82-.48a16.54,16.54,0,0,1,2.53.34.88.88,0,0,1,.56.55c.27,1.19.46,2.4.7,3.6a.85.85,0,0,0,.25.52c.49.32.71.62.11,1.1l1,.11.1.91c.83.38,1.13-.31,1.58-.8.59,1.35,1.36.3,2.15.15l.18.57,1.94.14.48,1.31h2a1.27,1.27,0,0,1-.2,1.85l2.92.76c-.86.6-2.22.12-2,1.58a4,4,0,0,0-1.77-.08l.19.28a12.69,12.69,0,0,1,1.52.45c.07,0,0,.52-.1.94.76,1,.77,1.19-.1,1.73a5.11,5.11,0,0,0,0-.68,5.69,5.69,0,0,0-.24-.65c-.22.08-.53.1-.66.26-.38.46-.68,1-1,1.46l-.3,0-.54-1.73c-.36.58-.81.4-1.26-.13l-.11.24.9,1.38-1-.45c-.32,1.33-1,.49-1.62.21l.57-.94-.18-.16L120.59,137a2.66,2.66,0,0,0,0-.68,2.14,2.14,0,0,0-.37-.72,1,1,0,0,1,.11-1.58l-.27-.17-.81.84c-.46-.29-1.49,0-1.57-1.26-.18.19-.3.26-.31.35-.19,1.33-1.19,2.25-1.7,3.41a10,10,0,0,0-.67,2.53,31.53,31.53,0,0,0-.37,3.49,29.4,29.4,0,0,1-1.29,6.89c-.08.3.28.89.59,1.11,1.15.82,2.49,1.36,3.28,2.63.67,1.06.69,1.88,0,2.37-.38.26-.8.47-1.18.73a.8.8,0,0,0-.35.41,5.42,5.42,0,0,0-.27,1.76c.12.95-.42,1.39-1.14,1.87a7.62,7.62,0,0,1-.07,2.48c-.21.59-1,1-1.55,1.45a6.52,6.52,0,0,1-1.13.38c-.17.07-.28.28-.42.42.21.11.44.34.63.31a13,13,0,0,0,2.56-.55c.59-.22.88,0,1,.42s.28,1-.48,1.19a4.48,4.48,0,0,1-3,.05c-.68.76-1.49-.2-2.35.2a7,7,0,0,1-2.44.08c-.5,0-1-.33-1.51,0a.78.78,0,0,1-.65-.1c-.52-.31-.94-.7-1.65-.3-.21.12-.73-.33-1.13-.47a3.36,3.36,0,0,0-.9-.1.53.53,0,0,0-.11.36c.22.22.46.55.72.58.77.1,1.57,0,2.24.58.13.11.55-.19.82-.15a3.5,3.5,0,0,1,.89.35c-.18.23-.34.64-.53.66-1.3.09-2.61.13-3.91.13s-2.28-1.08-3.4-1.65a6.44,6.44,0,0,1-.74-.55,5.1,5.1,0,0,0-.27,1.31,26.71,26.71,0,0,1-.72,7.56c-.32,1.51-.83,3-1.22,4.47-.12.46-.06,1-.18,1.43-.21.85-.51,1.67-.75,2.52-.36,1.32-.7,2.65-1,4-.12.48-.24,1-.33,1.45-.25,1.26-.48,2.53-.74,3.8a1.78,1.78,0,0,1-1.31,1.62c-.37.09-.65.48-1,.75a2.09,2.09,0,0,1-1-2.22c.16-1,.23-2.11.46-3.14a19.46,19.46,0,0,1,.76-1.85,3.67,3.67,0,0,0,0-1,2.24,2.24,0,0,1,0-.78,13.87,13.87,0,0,0,1-4.68,48.21,48.21,0,0,1,.74-6.46c.37-1.82.48-3.66.75-5.48a12.9,12.9,0,0,1,1-3.11,2.75,2.75,0,0,1,1.18-1.13c.22-.13.66.14,1,.23.5-.71.43-.72-.39-1.1a17.69,17.69,0,0,1-2.58-1.53c-.46-.33-.2-.73.24-.84s1,0,1.52-.12a11,11,0,0,0,1.33-.32L94.76,161c1-.45.51-.92,0-1.29a1.18,1.18,0,0,1-.45-1.5l1.17-.5a19.56,19.56,0,0,1-.36-2.87c0-.51.46-1,.7-1.52a1.05,1.05,0,0,0,.16-.47c0-.76.24-1.06,1-.77.15-.52.3-1,.42-1.48.18-.71.33-1.42.52-2.13a.85.85,0,0,1,.3-.5c1.63-.9,1.74-2.51,1.72-4a32.85,32.85,0,0,0-.52-5.87,25.42,25.42,0,0,0-1.68-4.81c-.74-1.76-1.6-3.48-2.45-5.19-.52-1-1.12-2-1.72-3.12l-1,.47a7.77,7.77,0,0,1-.41-1.59c-.06-1.15,0-2.3,0-3.45a.6.6,0,0,1,0-.27c1.18-1.65,1.69-3.81,3.65-4.87a13.93,13.93,0,0,0,3.85-3.8c.13-.16.22-.42.38-.47,1-.26.73-.88.64-1.6a4.7,4.7,0,0,1,.28-2c.19-.53.1-.73-.41-.76-.94,0-1.2-.61-1.16-1.43,0-.33,0-.65,0-1a1.43,1.43,0,0,1,1.68-1.21c.72.14,1.45.2,2.17.3a2.63,2.63,0,0,1,.85.18c.76.38,1.27.23,1.31-.61a14.87,14.87,0,0,0-.26-2.65c-.11-.87-.27-1.73-.39-2.6-.15-1.06-.23-2.14-.43-3.2s-.51-2.27-.79-3.39c-.22-.91-.46-1.8-.76-2.95l-9.25,1c0-.9,0-1.68,0-2.46,0-.19.29-.46.5-.53a8.33,8.33,0,0,1,1.63-.36c2-.25,4.07-.47,6-.68a16.89,16.89,0,0,1,.48-1.7c.08-.22.33-.37.5-.55.21.22.5.41.6.68a7.45,7.45,0,0,0,.26,1.13c.12-.39.22-.78.36-1.15a4.88,4.88,0,0,1,.38-.66c.27.18.65.31.77.56a4,4,0,0,1,.13,1.23h2.94c.78,0,1.53.52,1.55,1.13,0,.78-.59,1.12-1.2,1.33-.88.3-1.81.46-2.69.77a1.08,1.08,0,0,0-.62.75,35.45,35.45,0,0,0,0,4.25c.14,1.9.4,3.79.68,5.67.16,1.15.45,2.29.69,3.43,0,.1.12.18.18.27.62.9,1.5.27,2.26.35.57.06.67-.43.77-.89.16-.64.94-.73,1.43-.11a16.52,16.52,0,0,1,1,1.62c-.56,1.37-1.89,1.19-2.89,1.59-.23.09-.66-.17-.93-.37a1.56,1.56,0,0,0-1.91-.14c.32.22.56.39.82.55,1.38.88,2.75,1.77,4.14,2.62a1.81,1.81,0,0,0,1,.26c.62,0,.92.08,1.13.77a9,9,0,0,0,1.17,1.92,5.7,5.7,0,0,1-.88-.38c-.61-.39-.79-.07-.82.48,0,.23,0,.54.09.69a15,15,0,0,0,1.67,1.71,3.55,3.55,0,0,0,1-.92c.44-.67-.29-.92-.59-1.33,1.11.22,1.75.79,1.56,2a.67.67,0,0,0,.33.55,12.12,12.12,0,0,0,1.87.45c.09,0,.39-.45.34-.54a7.31,7.31,0,0,0-1-1.36c-.13-.14-.48-.08-.73-.11-.22-1,0-1.36,1.19-1.75l-.2,1.14a7.09,7.09,0,0,0,2.89-3.11,1.26,1.26,0,0,1,1.84-.35c.28.21.53.44,1,.83a3.48,3.48,0,0,0-.08-1c-.4-.72-.11-1.22.44-1.69s1-.92,1.48-1.4a2.82,2.82,0,0,1,2.21-.93,1.72,1.72,0,0,0,1.48-.74,26.61,26.61,0,0,1,2.37-2,21.81,21.81,0,0,0,1.9-1.82c.5-.53.27-1-.31-1.28a3.5,3.5,0,0,0-3.32-.1c-2.2,1.34-3,.54-4.26-1.22-.37-.52-.56-1.15-.9-1.69-.22-.34-.61-.56-.83-.9a7.64,7.64,0,0,1-.8-1.59.73.73,0,0,1,.34-.63c1.08-.24,1.17-1.32,1.66-2a2,2,0,0,1,1.35-.94,2.59,2.59,0,0,0,2.4-1.7c.2-.53,1.12-.94,1.78-1.1a12.57,12.57,0,0,1,2.7,0c-.19-.31-.23-.49-.33-.52-1.56-.55-3.05-1.56-4.79-1.21a10.29,10.29,0,0,1-3.12.67c-1-.09-1.28-.25-1.31-1.24,0-.54,0-1.07,0-1.6,0-1.74.19-1.92,1.67-1.88.36-.79.71-1.5,1-2.23a.84.84,0,0,0-.1-.7A5.1,5.1,0,0,0,126,76a4.47,4.47,0,0,1-1.53-4.41,3,3,0,0,0-1-2.55c-.71-.81-1.31-1.7-2-2.54,1.13-1,1.36-1,2.14,0,1,1.23,1.89,2.53,2.76,3.84,1,1.48,2,3,3.89,3.19a17,17,0,0,0,3.47-.25,3.3,3.3,0,0,0,.85-.25c.6-.2,1.06-.49.5-1.23a17,17,0,0,0,1.81-.91,5.43,5.43,0,0,0,1.24-1.2.5.5,0,0,0-.38-.85c-1.58,0-2.15-1.09-2.7-2.28a2.7,2.7,0,0,0-.77-.85c-.49-.41-1.11-.59-1.38-1.34a1.47,1.47,0,0,0-1.64-.72c-.74.08-1-.43-1-1,0-.32.25-.65.42-1.07-.07,0-.33,0-.58,0s-.87.17-.89-.51c0-.08-.26-.19-.41-.2a1.25,1.25,0,0,0-.61.06l-3.9,1.7c1.34,1-.13,1.87.52,2.83L122,65.21a1.37,1.37,0,0,1-1.74,0,7.49,7.49,0,0,0-1.14-.55Z"/><path class="cls-1" d="M110.2,115.17l.08-.24c-.4-.28-.82-.53-1.21-.82-2.31-1.75-4.8-3-7.81-2.57a1.73,1.73,0,0,0-1.2.7A17.12,17.12,0,0,0,99,115.37c-.14.54-.08,1-.88.81-.23,0-.62.45-.84.76-.09.11,0,.53.17.61a.81.81,0,0,0,.73,0,10.1,10.1,0,0,1,4.68-1.62.84.84,0,0,0,.5-.51,1.8,1.8,0,0,1,2.23-1.31c.59.16,1.16.42,1.76.55C108.26,114.86,109.23,115,110.2,115.17Z"/><path class="cls-1" d="M132.48,117.7h.1c.11,1.67.17,3.33.34,5A2.57,2.57,0,0,0,134.5,125a2.69,2.69,0,0,0,1.66,0c.2-.06.38-.72.32-1.06a11.7,11.7,0,0,0-.65-2.54c-.61-1.48-1.31-2.94-2-4.37-.12-.26-.52-.38-.8-.56-.17.29-.37.56-.51.86C132.43,117.38,132.48,117.55,132.48,117.7Z"/><path class="cls-1" d="M139.31,68.42a5.1,5.1,0,0,0,1.13-4.35c-.35-2.55-.71-3.47-3.36-3.7-.44,0-.91.31-1.36.48.27.4.45,1,.82,1.17,1.56.67,2,1.93,2.14,3.45.07.81.25,1.61.4,2.41A2.55,2.55,0,0,0,139.31,68.42Z"/><path class="cls-1" d="M128.52,59a1.85,1.85,0,0,0-2.06-.47c-.6.21-1.23.39-1.83.63a2.17,2.17,0,0,0-1.32,1.75.66.66,0,0,0,.23.51,1.28,1.28,0,0,0,1.9-.4A3.71,3.71,0,0,1,128.52,59Z"/><path class="cls-1" d="M114.69,113.77c-2-.61-3.08-2.67-5.14-3.17.92,1.05,2,2,2.91,3A1.47,1.47,0,0,0,114.69,113.77Z"/><path class="cls-1" d="M113.12,152.12l2.48,3.43c.92-.26,1-.54.28-1.45a4.88,4.88,0,0,0-.85-1A19.6,19.6,0,0,0,113.12,152.12Z"/><path class="cls-1" d="M143.36,102.1l.89-.26-.39-.69c.27-.38.57-.8.89-1.22s.6-.77.9-1.16l-.22-.24c-.58.54-1.19,1.06-1.75,1.62-.36.36-.64.63-.86-.15l-1.12.77c0-1.5,1.56-1.88,1.93-3.25L142,98.8c-.08-.21-.16-.31-.14-.36.47-1.13.88-2.28,1.44-3.35a3.11,3.11,0,0,1,2.39-1.39c-.77-1.28.91-1.79.67-3l-.33.73-.3-.19c.18-.41.37-.82.54-1.23.24-.56.47-1.12.7-1.68.06-.13.07-.32.17-.4,1.49-1.1,2.07-2.8,2.8-4.36a2.5,2.5,0,0,0-.1-1.82c-.19-.42-1-1-1.23-.86-.55.26-1.2.52-1.36,1.43A19.16,19.16,0,0,1,146,85.61l-.29,0-.46-1.16-.52.31a3,3,0,0,1,0-.77c.14-.55.43-1.09-.24-1.53-.08-.05.13-.5.18-.77s.19-.61.08-.79a1.5,1.5,0,0,1,.16-2.16c.23-.29.08-.89.08-1.35,0-1.29-.1-2.58,0-3.86a1.77,1.77,0,0,0-.5-1.43c-.11-.41-.2-.84-.34-1.24-.24-.65-.53-1.28-.78-1.93,0-.13-.11-.36,0-.42.88-.81.17-1.94.63-2.89a9.62,9.62,0,0,0,.53-3.11c.11-1,.12-2,.18-3l.38-.13A6.62,6.62,0,0,1,146.1,61c.69,2.15,1.34,4.32,1.89,6.52a9.4,9.4,0,0,1,.14,2.55,26,26,0,0,0,.69,5.83,2.08,2.08,0,0,0,.7,1,20.05,20.05,0,0,1,4.73,6.55c.68,1.66,1.37,3.32,1.9,5a14.68,14.68,0,0,1,.45,3.11,17,17,0,0,1,0,2.67c-.13,1.3-.31,2.6-.56,3.87a15.91,15.91,0,0,1-.77,2.16c0,.1-.08.25,0,.34.51,1.11,1.11,2.19,1.55,3.33a13.92,13.92,0,0,1,.3,1.88c.15.59.49,1.15.58,1.75a7.78,7.78,0,0,1-.12,1.71l1.25,1-.07.17-.89-.23a12.94,12.94,0,0,1-.63,1.43c-.08.16-.37.22-.57.31a7,7,0,0,0-1.13.55c-.19.14-.24.47-.36.71a5.29,5.29,0,0,0,1.11.15c.19,0,.38-.24.56-.39l2.39-2c.12.21.25.43.37.66q.65,1.26,1.26,2.52a1.05,1.05,0,0,1,.16.4c.07.61.44.59.94.63a3,3,0,0,1,1.58.61c.52.44.33,1-.08,1.58-.2.26-.11.72-.15,1.1-1.38-.15-1.59,1.57-2.87,1.69l.13.31,1.31.16v.31h-4.58l0-.23,2.68-.71-2.06-.19v-.12l1.58-.5-.06-.34a8.47,8.47,0,0,1-1-.1c-.17,0-.31-.19-.47-.3.11-.12.22-.23.32-.36s.41-.5.61-.76a8.76,8.76,0,0,0-1-.08,16.07,16.07,0,0,1-2.4.06c-.21,0-.35-.69-.36-1.14l-1-.63c.19-.16.23-.23.27-.24.59,0,1.19-.32,1.11-.88s-.63-.81-1-1.13-.83-.28-.75-.91c0-.09-.61-.4-.66-.34a1.5,1.5,0,0,1-1.82.28l-.4-.93a.84.84,0,0,1-.1-.33c0-.67.09-1.34.13-2,0-.08,0-.21,0-.24.69-.45.37-.79-.24-1.07a2.8,2.8,0,0,0,.51-.81,2,2,0,0,0,0-1.06,12.24,12.24,0,0,0-.76-1.56l-.61,1.18a1.76,1.76,0,0,1,.45-2.1,2.29,2.29,0,0,0,.29-.87c.14-.43.28-.87.47-1.43a4.05,4.05,0,0,0-1.73.26c-.4.26-.49,1-.69,1.52s-.34,1.09-.53,1.63c0,.09-.2.21-.25.19a.69.69,0,0,1-.29-.27c-.17-.34-.3-.69-.5-1.14-.18.21-.35.31-.39.45a15.36,15.36,0,0,1-2.23,4.24.68.68,0,0,1-.45.32,1.59,1.59,0,0,1-1.37-1.83c.1-.47.28-1-.31-1.35-.11-.07,0-.48,0-.72.09-.42.22-.82.34-1.27C143.46,103.53,143.25,102.6,143.36,102.1Z"/><path class="cls-1" d="M212.73,178.77a3.35,3.35,0,0,1-2.3,1.77c-.28.07-.78-.45-1.07-.79-1.31-1.55-2.6-3.12-3.84-4.73a23.22,23.22,0,0,1-2.08-3.06,4.84,4.84,0,0,0-1.87-1.78,2.16,2.16,0,0,1-1-2.52c.15-.38.65-.61,1-1-1-.57-2.14-1.19-3.24-1.83-.21-.12-.49-.38-.48-.55a4.94,4.94,0,0,0-1.55-3.53,28.74,28.74,0,0,1-4.88-8c-.13-.32-.29-.63-.47-1l-.71.36c-.05,0-.16-.08-.18-.15a17.55,17.55,0,0,1-.93-2.82,9.81,9.81,0,0,0-1.7-3.71c-.37-.59-.67-1.23-1.06-1.8-1.32-1.9-2.72-3.74-4-5.69a9.17,9.17,0,0,1-1.12-2.85,9.71,9.71,0,0,0-2-3.42,16.89,16.89,0,0,1-2.94-6.52c-.28-1.31-.67-2.6-.86-3.92a8.74,8.74,0,0,1,.3-2.24c-.26-.6-1.33-1.29-1.09-2.56l-.76-.58.67-.6c-.52-.45-1-.87-1.5-1.34-.19-.19-.21-.54-.37-.78-.87-1.29-1.82-2.54-2.64-3.87a7.18,7.18,0,0,1-.92-2.32,4.81,4.81,0,0,0-2.06-3.38c-.48-.33-1.36-.61-.75-1.63.11-.19-.51-.81-.84-1.31l.86-.32-.74-.46c.26-1.08,0-1.83-.94-2.16l.56-1.78-.95.06c.09-.26.09-.54.22-.61a5.48,5.48,0,0,1,1-.33c-.57-.56-1.34-.27-1.9-.43a12.71,12.71,0,0,1,.19-1.34c.16-.55.39-.34.76-.1a24.82,24.82,0,0,1,6.07,6.24,40.76,40.76,0,0,1,5,8.82c.93,2.32,2,4.59,2.79,7,.93,2.83,1.61,5.74,2.41,8.61a43.93,43.93,0,0,0,4.57,10,37.84,37.84,0,0,1,2.42,5.44A10.65,10.65,0,0,0,190,143a9.52,9.52,0,0,1,2.51,5.15,8,8,0,0,0,1.29,3c1.66,2.7,3.29,5.41,5,8.07,1.35,2.08,2.82,4.08,4.26,6.09a33.25,33.25,0,0,1,2.76,3.82c.95,1.9,1.55,4,2.36,6a14.88,14.88,0,0,0,1.49,3C210.33,179,211,179.53,212.73,178.77Z"/><path class="cls-1" d="M119.13,64.67c.05.2.05.49.18.57,1.23.76,1.14,2,1.26,3.2a1.11,1.11,0,0,1,0,.44c-.66,1.67-1.35,3.34-2,5-.15.37-.12.81-.25,1.18-.23.65-.52,1.28-.79,1.92a1.74,1.74,0,0,0-.23.62,17.63,17.63,0,0,1-.25,6.23,5.53,5.53,0,0,1-.73,1.58.74.74,0,0,1-1.29-.13,8.52,8.52,0,0,1-.41-1.44c-.26-1-.48-2.05-.78-3.06-.06-.2-.33-.36-.53-.5s-.57-.2-.58-.34c-.15-1.1-1.19-.82-1.8-1.2a6,6,0,0,0-2.08-.81,5.6,5.6,0,0,1-2.69-1.33c-1.62-1.49-3.06-3.16-4.57-4.76a10.08,10.08,0,0,0-.92-1c-.53-.41-1-.87-1.82-.25a15.27,15.27,0,0,1-2.92,1.6c-.29.14-.72,0-1.08,0,.12-.37.14-.86.39-1.08a18.71,18.71,0,0,1,2.53-1.89A4.26,4.26,0,0,1,99.19,69l-.7-1L102,67.2c.11,0,.3,0,.33-.07.62-1.34,2-.91,3-1.25a31.15,31.15,0,0,1,3.77-.81,2.69,2.69,0,0,1,.69,0l.09.24a3.14,3.14,0,0,1-.88.36,9,9,0,0,0-4.24,1.52,3.71,3.71,0,0,0-1.28,1.6c-.18.43.09,1,.15,1.55,1.83-.95,3.52-1.85,5.24-2.71,1.39-.68,2.12-.25,2.28,1.3,0,.56.13,1.11.16,1.67s0,1,0,1.69c-.27,0-.62,0-.67-.06-.44-.88-1.26-.52-1.91-.62a9.21,9.21,0,0,0-3.47.09c-.23.05-.5-.1-1-.21.19.42.3.71.44,1A9.33,9.33,0,0,0,107.6,76a3.25,3.25,0,0,0,2.78.69,8.41,8.41,0,0,1,1.33-.08,9,9,0,0,0,5.34-1.84,4.63,4.63,0,0,0,1-1.39c.07-.13-.19-.46-.33-.68s-.59-.59-.62-.9a3.1,3.1,0,0,0-2.75-3.07c.26-.67,0-1.14-.7-1.18a7,7,0,0,0-.79,0c-.48,0-.78-.17-.7-.65s.2-.65.77-.56a6.35,6.35,0,0,1,5.51,5.05,1.2,1.2,0,0,0,.11.23,4.08,4.08,0,0,0-1-5.54A5.2,5.2,0,0,0,113.88,65c-.69.07-1.39,0-2.28,0,.21-.32.28-.59.4-.61,1.11-.19,2.18-.69,3.37-.24a8.26,8.26,0,0,0,1.75.16c.68.1,1.35.24,2,.37Z"/><path class="cls-1" d="M78.12,81.21l.42-1.73A54.44,54.44,0,0,0,80,68.18c0-1.64.23-3.28.34-4.92.12-1.88.07-3.78.37-5.63.34-2.13.28-4.39,1.53-6.38a1.17,1.17,0,0,1,.45,1.66c-.84,1.28-.36,2.42,0,3.64a1,1,0,0,1,0,.82A3.78,3.78,0,0,0,82,59.88c-.19,2-.41,4.06-.58,6.1-.08.89,0,1.8-.13,2.68-.37,2.46-.76,4.91-1.25,7.34-.3,1.5-.77,3-1.19,4.43a6.65,6.65,0,0,1-.42.9Z"/><path class="cls-1" d="M130.35,68.37c-.36-.08-.67-.08-.72-.19-.32-.72-1-.58-1.55-.66s-1.42-.21-2.24-.33c0-.45-.49-1.08.4-1.51.15-.07.18-.46.23-.71a2,2,0,0,1,1.85-1.7c.57,0,.82.2,1,.77C129.57,65.4,129.94,66.75,130.35,68.37Z"/></svg>